<svg width="50" height="50" viewBox="0 0 50 50" fill="none" xmlns="http://www.w3.org/2000/svg">
<path d="M35.4168 37.5C36.5835 37.5 37.5002 38.4166 37.5002 39.5833C37.5002 40.75 36.5835 41.6666 35.4168 41.6666C34.2502 41.6666 33.3335 40.75 33.3335 39.5833C33.3335 38.4166 34.2502 37.5 35.4168 37.5ZM35.4168 31.25C29.7293 31.25 24.8752 34.7083 22.9168 39.5833C24.8752 44.4583 29.7293 47.9166 35.4168 47.9166C41.1043 47.9166 45.9585 44.4583 47.9168 39.5833C45.9585 34.7083 41.1043 31.25 35.4168 31.25ZM35.4168 44.7916C34.0355 44.7916 32.7107 44.2429 31.734 43.2661C30.7572 42.2894 30.2085 40.9646 30.2085 39.5833C30.2085 38.202 30.7572 36.8772 31.734 35.9004C32.7107 34.9237 34.0355 34.375 35.4168 34.375C36.7982 34.375 38.1229 34.9237 39.0997 35.9004C40.0764 36.8772 40.6252 38.202 40.6252 39.5833C40.6252 40.9646 40.0764 42.2894 39.0997 43.2661C38.1229 44.2429 36.7982 44.7916 35.4168 44.7916ZM19.0418 41.1458L18.4377 39.5833L19.0418 38.0416C21.7293 31.375 28.1252 27.0833 35.4168 27.0833C37.6043 27.0833 39.7085 27.5208 41.6668 28.25V16.6666L29.1668 4.16663H12.5002C10.1877 4.16663 8.3335 6.02079 8.3335 8.33329V41.6666C8.3335 42.7717 8.77248 43.8315 9.55388 44.6129C10.3353 45.3943 11.3951 45.8333 12.5002 45.8333H21.8752C20.7293 44.4583 19.7918 42.875 19.0418 41.1458ZM27.0835 7.29163L38.5418 18.75H27.0835V7.29163Z" fill="#07002C"/>
</svg>
