<svg width="70" height="70" viewBox="0 0 70 70" fill="none" xmlns="http://www.w3.org/2000/svg">
<path d="M0 15C0 6.71573 6.71573 0 15 0H55C63.2843 0 70 6.71573 70 15V55C70 63.2843 63.2843 70 55 70H15C6.71573 70 0 63.2843 0 55V15Z" fill="white"/>
<path fill-rule="evenodd" clip-rule="evenodd" d="M25.4144 33.1418C25.4143 33.1418 25.4143 33.1418 25.4143 33.1418L24.0002 34.5559C24.0001 34.5559 24.0001 34.556 24.0002 34.556L24.0002 34.556C24.0002 34.556 24.0002 34.556 24.0002 34.556V34.556C24.0001 34.556 24.0001 34.5561 24.0002 34.5561L25.4143 35.9702C25.4143 35.9703 25.4144 35.9703 25.4144 35.9702V35.9702C25.4144 35.9702 25.4144 35.9702 25.4144 35.9702L40.2636 50.8194C40.6541 51.2099 41.2873 51.2099 41.6778 50.8194V50.8194C42.0683 50.4289 42.0683 49.7957 41.6778 49.4052L28.2428 35.9702C27.4618 35.1892 27.4618 33.9228 28.2428 33.1418L41.6778 19.7068C42.0683 19.3163 42.0683 18.6831 41.6778 18.2926V18.2926C41.2873 17.9021 40.6541 17.9021 40.2636 18.2926L25.4144 33.1418C25.4144 33.1418 25.4144 33.1418 25.4144 33.1418V33.1418Z" fill="#07002C"/>
</svg>
