<svg width="60" height="60" viewBox="0 0 60 60" fill="none" xmlns="http://www.w3.org/2000/svg">
<g clip-path="url(#clip0_2330_22637)">
<path d="M12.5 0H47.5C54.4037 0 60 5.59625 60 12.5V47.5C60 54.4037 54.4037 60 47.5 60H12.5C5.59625 60 0 54.4037 0 47.5V12.5C0 5.59625 5.59625 0 12.5 0Z" fill="url(#paint0_linear_2330_22637)"/>
<path d="M20.6625 27.7266L7.8 42.7266C7.6125 42.2766 7.5 41.7766 7.5 41.2516V18.7516C7.5 18.0766 7.675 17.4516 7.975 16.9141L20.6625 27.7266Z" fill="white"/>
<path d="M28.2359 30.8875L9.89844 15.2625C10.3109 15.0875 10.7734 15 11.2484 15H48.7484C49.2484 15 49.7234 15.1 50.1609 15.2875L33.0109 30.8125C31.7109 31.9875 29.5734 32.025 28.2359 30.8875Z" fill="white"/>
<path d="M37.8367 29.8109L50.4867 44.5734C49.9742 44.8484 49.3742 44.9984 48.7492 44.9984H11.2492C10.6242 44.9984 10.0242 44.8484 9.51172 44.5734L22.5617 29.3359L26.6117 32.7859C27.7242 33.7234 29.1242 34.2484 30.5867 34.2484C32.0992 34.2484 33.5617 33.6859 34.6867 32.6609L37.8367 29.8109Z" fill="white"/>
<path d="M52.5 18.7484V41.2484C52.5 41.7734 52.3875 42.2734 52.2 42.7234L39.6875 28.1359L52.05 16.9609C52.3375 17.4859 52.5 18.0984 52.5 18.7484Z" fill="white"/>
<path d="M40.0123 57.2C39.8248 55.325 41.2873 53.75 43.1248 53.75H48.7498C49.4373 53.75 50.0623 53.475 50.5123 53.0125C50.9748 52.5625 51.2498 51.9375 51.2498 51.25C51.2498 49.875 50.1248 48.75 48.7498 48.75H46.8748C45.8373 48.75 44.9998 47.9125 44.9998 46.875C44.9998 45.8375 45.8373 45 46.8748 45H59.9998V47.5C59.9998 54.4 54.3998 60 47.4998 60H43.2998C41.6623 60 40.1748 58.825 40.0123 57.2Z" fill="url(#paint1_linear_2330_22637)"/>
</g>
<defs>
<linearGradient id="paint0_linear_2330_22637" x1="30" y1="74.8412" x2="30" y2="-16.94" gradientUnits="userSpaceOnUse">
<stop stop-color="#005CE2"/>
<stop offset="0.278" stop-color="#0080E8"/>
<stop offset="0.569" stop-color="#009CED"/>
<stop offset="0.82" stop-color="#00B0F1"/>
<stop offset="1" stop-color="#00B5F2"/>
</linearGradient>
<linearGradient id="paint1_linear_2330_22637" x1="49.9973" y1="65.2213" x2="49.9973" y2="-7.22" gradientUnits="userSpaceOnUse">
<stop stop-color="#005CE2"/>
<stop offset="0.278" stop-color="#0080E8"/>
<stop offset="0.569" stop-color="#009CED"/>
<stop offset="0.82" stop-color="#00B0F1"/>
<stop offset="1" stop-color="#00B5F2"/>
</linearGradient>
<clipPath id="clip0_2330_22637">
<rect width="60" height="60" fill="white"/>
</clipPath>
</defs>
</svg>
