<svg width="50" height="49" viewBox="0 0 50 49" fill="none" xmlns="http://www.w3.org/2000/svg">
<path d="M46.5016 36.25V13.75C46.5016 11.675 44.8266 10 42.7516 10H7.72656C5.65156 10 3.97656 11.675 3.97656 13.75V36.25C3.97656 38.325 5.65156 40 7.72656 40H42.7516C44.8266 40 46.5016 38.325 46.5016 36.25ZM43.2266 13.475C44.0516 14.3 43.6016 15.15 43.1516 15.575L33.0016 24.875L42.7516 35.025C43.0516 35.375 43.2516 35.925 42.9016 36.3C42.5766 36.7 41.8266 36.675 41.5016 36.425L30.5766 27.1L25.2266 31.975L19.9016 27.1L8.97656 36.425C8.65156 36.675 7.90156 36.7 7.57656 36.3C7.22656 35.925 7.42656 35.375 7.72656 35.025L17.4766 24.875L7.32656 15.575C6.87656 15.15 6.42656 14.3 7.25156 13.475C8.07656 12.65 8.92656 13.05 9.62656 13.65L25.2266 26.25L40.8516 13.65C41.5516 13.05 42.4016 12.65 43.2266 13.475V13.475Z" fill="white"/>
</svg>
