<svg width="62" height="59" viewBox="0 0 62 59" fill="none" xmlns="http://www.w3.org/2000/svg">
<g clip-path="url(#clip0_2330_22644)">
<path d="M10.3635 2.71498C23.9656 -0.904992 38.2803 -0.904992 51.8824 2.71498C56.4485 3.92988 59.9357 7.66063 60.8423 12.2999C62.4483 20.5214 62.4483 28.9774 60.8423 37.199C59.936 41.8382 56.4486 45.569 51.8824 46.7851C51.5375 46.8769 51.1919 46.9665 50.8458 47.0537C50.1611 47.2258 49.6775 47.8468 49.6775 48.5539V58.3815C49.6775 58.6219 49.5374 58.8411 49.3195 58.9424C49.1016 59.0437 48.8436 59.0095 48.6602 58.8541L38.6427 50.3909C37.7984 49.678 36.7123 49.3139 35.6091 49.3752C27.11 49.8489 18.5896 48.9745 10.3635 46.7851C5.79728 45.569 2.30993 41.8382 1.4037 37.199C-0.202276 28.9774 -0.202276 20.5214 1.4037 12.2999C2.31017 7.66063 5.79751 3.92988 10.3635 2.71498ZM36.6895 37.1247C37.0288 37.1247 37.308 36.8455 37.308 36.5061V24.7494H49.059C49.3983 24.7494 49.6775 24.4702 49.6775 24.1308V12.9928C49.6775 12.6535 49.3983 12.3741 49.059 12.3741H13.1875C12.8482 12.3741 12.569 12.6535 12.569 12.9928V24.1308C12.569 24.4702 12.8482 24.7494 13.1875 24.7494H24.9386V36.5061C24.9386 36.8455 25.2177 37.1247 25.5569 37.1247H36.6895Z" fill="#FC3234"/>
<path d="M50.4447 5.64062H11.9258V44.049H50.4447V5.64062Z" fill="#FC3234"/>
<path fill-rule="evenodd" clip-rule="evenodd" d="M45.4158 12.3222C45.4158 11.4 44.666 10.6523 43.741 10.6523H18.6201C17.6951 10.6523 16.9453 11.4 16.9453 12.3222V18.1671C16.9453 19.0893 17.6951 19.837 18.6201 19.837H24.4863C25.4112 19.837 26.1611 20.5846 26.1611 21.5069V37.363C26.1611 38.2853 26.9108 39.033 27.8357 39.033H34.5347C35.4597 39.033 36.2094 38.2853 36.2094 37.363V21.5069C36.2094 20.5846 36.9592 19.837 37.8842 19.837H43.741C44.666 19.837 45.4158 19.0893 45.4158 18.1671V12.3222Z" fill="white"/>
<path d="M10.1876 2.66798C23.5542 -0.889327 37.6211 -0.889327 50.9877 2.66798C55.4748 3.86186 58.9018 7.52803 59.7925 12.0871C61.3708 20.1662 61.3708 28.4759 59.7925 36.5551C58.902 41.1141 55.4749 44.7802 50.9877 45.9752C50.6489 46.0655 50.3092 46.1535 49.9691 46.2393C49.2963 46.4083 48.8211 47.0185 48.8211 47.7134V57.3709C48.8211 57.6071 48.6833 57.8225 48.4692 57.9221C48.2551 58.0217 48.0016 57.9881 47.8213 57.8353L37.9772 49.5187C37.1476 48.818 36.0803 48.4603 34.9962 48.5205C26.6443 48.986 18.2713 48.1268 10.1876 45.9752C5.70037 44.7802 2.2734 41.1141 1.38286 36.5551C-0.195328 28.4759 -0.195328 20.1662 1.38286 12.0871C2.27363 7.52803 5.70061 3.86186 10.1876 2.66798ZM36.0578 36.4821C36.3914 36.4821 36.6657 36.2077 36.6657 35.8742V24.321H48.2134C48.5466 24.321 48.8211 24.0466 48.8211 23.7131V12.7678C48.8211 12.4344 48.5466 12.1599 48.2134 12.1599H12.9626C12.6292 12.1599 12.3549 12.4344 12.3549 12.7678V23.7131C12.3549 24.0466 12.6292 24.321 12.9626 24.321H24.5103V35.8742C24.5103 36.2077 24.7847 36.4821 25.1181 36.4821H36.0578Z" fill="#FC3234"/>
<path fill-rule="evenodd" clip-rule="evenodd" d="M45.4158 12.3183C45.4158 11.3961 44.666 10.6484 43.741 10.6484H18.6201C17.6951 10.6484 16.9453 11.3961 16.9453 12.3183V18.1632C16.9453 19.0854 17.6951 19.8331 18.6201 19.8331H43.741C44.666 19.8331 45.4158 19.0854 45.4158 18.1632V12.3183ZM34.5347 39.0385C35.4597 39.0385 36.2094 38.2908 36.2094 37.3685V21.5041C36.2094 20.5819 35.4597 19.8343 34.5347 19.8343H27.8357C26.9108 19.8343 26.1611 20.5819 26.1611 21.5041V37.3685C26.1611 38.2908 26.9108 39.0385 27.8357 39.0385H34.5347Z" fill="white"/>
</g>
<defs>
<clipPath id="clip0_2330_22644">
<rect width="62" height="59" fill="white"/>
</clipPath>
</defs>
</svg>
