<svg width="50" height="50" viewBox="0 0 50 50" fill="none" xmlns="http://www.w3.org/2000/svg">
<g clip-path="url(#clip0_2330_22659)">
<path d="M39.9998 4.77734H9.32812V37.3268H39.9998V4.77734Z" fill="white"/>
<path fill-rule="evenodd" clip-rule="evenodd" d="M36.0023 10.4425C36.0023 9.66095 35.4053 9.02734 34.6689 9.02734H14.6656C13.9291 9.02734 13.332 9.66095 13.332 10.4425V15.3958C13.332 16.1773 13.9291 16.811 14.6656 16.811H19.3367C20.0732 16.811 20.6703 17.4445 20.6703 18.2262V31.6635C20.6703 32.4451 21.2673 33.0787 22.0039 33.0787H27.338C28.0745 33.0787 28.6716 32.4451 28.6716 31.6635V18.2262C28.6716 17.4445 29.2686 16.811 30.0051 16.811H34.6689C35.4053 16.811 36.0023 16.1773 36.0023 15.3958V10.4425Z" fill="#090732"/>
<path d="M7.96129 2.261C18.6047 -0.753667 29.8059 -0.753667 40.4493 2.261C44.0223 3.27277 46.7512 6.37968 47.4605 10.2433C48.7171 17.09 48.7171 24.1321 47.4605 30.9789C46.7514 34.8424 44.0224 37.9493 40.4493 38.962C40.1795 39.0386 39.9091 39.1132 39.6383 39.1858C39.1026 39.3291 38.7241 39.8462 38.7241 40.4351V48.6194C38.7241 48.8196 38.6144 49.0021 38.444 49.0865C38.2735 49.1709 38.0716 49.1424 37.928 49.013L30.0895 41.965C29.4289 41.3712 28.579 41.0681 27.7157 41.1191C21.0653 41.5136 14.3981 40.7854 7.96129 38.962C4.38824 37.9493 1.65943 34.8424 0.950313 30.9789C-0.306354 24.1321 -0.306354 17.09 0.950313 10.2433C1.65961 6.37968 4.38843 3.27277 7.96129 2.261ZM28.5612 30.917C28.8266 30.917 29.0451 30.6845 29.0451 30.4018V20.611H38.2402C38.5056 20.611 38.7241 20.3785 38.7241 20.0958V10.8202C38.7241 10.5377 38.5056 10.305 38.2402 10.305H10.1711C9.90549 10.305 9.68703 10.5377 9.68703 10.8202V20.0958C9.68703 20.3785 9.90549 20.611 10.1711 20.611H19.3662V30.4018C19.3662 30.6845 19.5845 30.917 19.85 30.917H28.5612Z" fill="white"/>
<path fill-rule="evenodd" clip-rule="evenodd" d="M36.0023 10.4386C36.0023 9.65704 35.4053 9.02344 34.6689 9.02344H14.6656C13.9291 9.02344 13.332 9.65704 13.332 10.4386V15.3919C13.332 16.1734 13.9291 16.8071 14.6656 16.8071H34.6689C35.4053 16.8071 36.0023 16.1734 36.0023 15.3919V10.4386ZM27.338 33.0828C28.0745 33.0828 28.6716 32.4492 28.6716 31.6676V18.2232C28.6716 17.4417 28.0745 16.8081 27.338 16.8081H22.0039C21.2673 16.8081 20.6703 17.4417 20.6703 18.2232V31.6676C20.6703 32.4492 21.2673 33.0828 22.0039 33.0828H27.338Z" fill="#090732"/>
</g>
<defs>
<clipPath id="clip0_2330_22659">
<rect width="50" height="50" fill="white"/>
</clipPath>
</defs>
</svg>
