<svg width="59" height="59" viewBox="0 0 59 59" fill="none" xmlns="http://www.w3.org/2000/svg">
<g clip-path="url(#clip0_2330_22634)">
<path d="M59.125 50.8958C59.125 55.4416 55.4416 59.125 50.8958 59.125H8.10417C3.56002 59.125 -0.125 55.4416 -0.125 50.8958V8.10417C-0.125 3.55837 3.56002 -0.125 8.10417 -0.125H50.8958C55.4416 -0.125 59.125 3.55837 59.125 8.10417V50.8958Z" fill="#1976D2"/>
<path d="M49.1463 19.6938C49.222 19.4453 49.2582 19.2148 49.2484 19.0091C49.2237 18.4133 48.8139 17.9805 47.8494 17.9805H43.5406C42.4527 17.9805 41.9507 18.6388 41.6578 19.2988C41.6578 19.2988 38.9718 24.8271 35.876 28.4727C34.872 29.5276 34.3618 29.5013 33.8187 29.5013C33.5274 29.5013 32.7917 29.1491 32.7917 28.183V19.6493C32.7917 18.5071 32.5069 17.9805 31.5869 17.9805H23.9354C23.2656 17.9805 22.9167 18.5071 22.9167 19.0354C22.9167 20.1332 24.3946 20.3966 24.5625 23.4726V29.4355C24.5625 30.8838 24.3107 31.1471 23.7676 31.1471C22.3028 31.1471 19.4193 26.2096 17.4887 19.7382C17.0707 18.4643 16.6526 17.9805 15.5647 17.9805H11.2148C9.95902 17.9805 9.75 18.596 9.75 19.2543C9.75 20.441 10.7375 26.8564 16.1276 34.2331C20.0365 39.582 25.1863 42.668 29.7452 42.668C32.5069 42.668 32.79 41.9652 32.79 40.8674V35.976C32.7917 34.6577 33.0929 34.4388 33.9717 34.4388C34.5988 34.4388 35.8776 34.8503 38.3464 37.7305C41.1936 41.0518 41.7104 42.668 43.3431 42.668H47.6519C48.6526 42.668 49.227 42.2483 49.25 41.4336C49.2549 41.2262 49.2253 40.9942 49.1578 40.7358C48.8385 39.7878 47.3738 37.4704 45.5469 35.2617C44.5347 34.0389 43.5357 32.8275 43.0765 32.1692C42.7687 31.7396 42.6519 31.4368 42.6667 31.1471C42.6815 30.8427 42.8395 30.553 43.0765 30.1481C43.0337 30.1481 48.6032 22.3288 49.1463 19.6938Z" fill="white"/>
</g>
<defs>
<clipPath id="clip0_2330_22634">
<rect width="59" height="59" fill="white"/>
</clipPath>
</defs>
</svg>
