<svg width="707" height="323" viewBox="0 0 707 323" fill="none" xmlns="http://www.w3.org/2000/svg">
<g clip-path="url(#clip0_2309_22547)">
<path d="M4.07812 226.563L17.6212 221.054V135.221L4.07812 129.712V114.607L59.3124 113.719V129.712L45.7695 135.221V166.498H58.0733L88.3459 114.607L121.894 113.719V129.712L104.633 134.866L80.9106 174.495L114.635 221.054L128.267 226.563V242.023H72.9441V226.563L83.8315 221.054L58.9585 186.49H45.7695V221.054L59.3124 226.563V242.023H4.07812V226.563Z" fill="white" fill-opacity="0.05"/>
<path d="M183.504 141.973C198.08 141.973 209.322 146.238 217.229 154.768C225.196 163.297 229.178 175.411 229.178 191.109C229.178 201.89 227.172 211.249 223.16 219.186C219.206 227.124 213.6 233.225 206.341 237.49C199.083 241.696 190.556 243.799 180.76 243.799C149.956 243.799 134.555 227.124 134.555 193.774C134.555 182.993 136.561 173.723 140.574 165.963C144.646 158.203 150.37 152.28 157.746 148.192C165.122 144.046 173.708 141.973 183.504 141.973ZM182.531 163.742C175.685 163.742 170.64 165.963 167.394 170.406C164.208 174.848 162.614 182.342 162.614 192.886C162.614 202.956 164.119 210.331 167.129 215.01C170.197 219.69 175.036 222.03 181.645 222.03C188.314 222.03 193.212 219.69 196.339 215.01C199.467 210.331 201.031 202.66 201.031 191.997C201.031 182.519 199.555 175.441 196.605 170.761C193.654 166.082 188.963 163.742 182.531 163.742Z" fill="white" fill-opacity="0.05"/>
<path d="M515.121 217.855C515.474 218.092 516.419 218.506 517.953 219.099C519.546 219.691 521.643 220.283 524.237 220.876C526.834 221.409 529.696 221.676 532.823 221.676C538.962 221.676 544.153 220.372 548.402 217.766C552.651 215.16 554.776 211.546 554.776 206.926C554.776 204.142 553.831 201.802 551.944 199.906C550.115 198.011 547.754 196.441 544.863 195.197C542.03 193.894 537.899 192.265 532.47 190.31C524.505 187.526 517.924 184.772 512.73 182.047C507.539 179.322 503.023 175.383 499.189 170.229C495.411 165.076 493.523 158.382 493.523 150.149C493.523 142.033 495.499 135.073 499.454 129.268C503.467 123.404 508.955 118.99 515.919 116.029C522.88 113.067 530.759 111.586 539.551 111.586C545.57 111.586 551.531 112.119 557.432 113.185C563.392 114.252 568.291 115.377 572.125 116.562C576.02 117.687 578.47 118.457 579.472 118.872L578.499 151.925H561.858L557.344 136.465C556.87 136.347 555.839 136.08 554.246 135.665C552.651 135.251 550.675 134.836 548.314 134.421C545.955 133.948 543.652 133.711 541.411 133.711C535.273 133.711 530.523 134.925 527.158 137.354C523.795 139.782 522.114 142.892 522.114 146.683C522.114 150.593 523.913 153.673 527.514 155.924C531.171 158.116 536.925 160.603 544.774 163.388C552.741 166.172 559.29 168.897 564.425 171.562C569.617 174.228 574.044 178.048 577.702 183.024C581.42 188 583.278 194.368 583.278 202.128C583.278 211.013 581.155 218.655 576.906 225.052C572.658 231.39 566.843 236.218 559.467 239.535C552.091 242.793 543.711 244.422 534.33 244.422C528.309 244.422 522.291 243.889 516.272 242.823C510.312 241.815 505.354 240.779 501.4 239.713C497.446 238.587 494.94 237.847 493.877 237.491V202.572H512.377L515.121 217.855Z" fill="white" fill-opacity="0.05"/>
<path d="M657.279 230.204C657.279 230.441 655.715 231.774 652.588 234.203C649.461 236.631 645.713 238.853 641.347 240.867C636.98 242.821 632.495 243.799 627.893 243.799C619.04 243.799 612.106 241.34 607.091 236.424C602.133 231.448 599.656 224.399 599.656 215.277C599.656 204.851 603.373 197.24 610.81 192.441C618.244 187.643 629.072 185.244 643.293 185.244H656.039V175.204C656.039 166.318 651.378 161.905 642.056 161.965C639.282 161.965 636.715 162.172 634.354 162.587C631.992 163.001 630.105 163.446 628.689 163.92C627.331 164.334 626.477 164.601 626.121 164.719L623.377 176.181H607.091L605.852 149.259C606.914 148.903 609.511 148.133 613.642 146.948C617.83 145.764 622.817 144.638 628.6 143.572C634.442 142.506 639.96 141.973 645.154 141.973C654.476 141.973 661.884 143.157 667.37 145.527C672.858 147.837 676.871 151.628 679.409 156.9C681.947 162.113 683.216 169.132 683.216 177.958V222.918L696.846 226.206V240.778L660.556 242.022L657.279 230.204ZM625.944 212.522C625.944 216.076 626.86 218.801 628.689 220.697C630.576 222.533 633.232 223.451 636.656 223.451C639.547 223.451 642.409 222.681 645.242 221.141C648.074 219.542 650.465 217.913 652.412 216.254C654.358 214.536 655.568 213.411 656.039 212.878V200.705H645.684C638.661 200.705 633.617 201.653 630.547 203.548C627.478 205.444 625.944 208.435 625.944 212.522Z" fill="white" fill-opacity="0.05"/>
<path d="M0.381582 271.023C5.50375 271.208 9.48257 271.299 12.3181 271.299C15.1535 271.299 19.1324 271.208 24.2546 271.023C24.3459 271.39 24.3917 271.642 24.3917 271.781C24.3917 272.033 24.3459 272.32 24.2546 272.641C23.2027 272.734 22.3451 272.836 21.682 272.952C21.0417 273.043 20.2414 273.205 19.281 273.435C18.3435 273.662 17.6232 273.996 17.1201 274.433C16.617 274.845 16.354 275.35 16.3312 275.948C16.0339 282.742 15.8853 289.018 15.8853 294.78H16.88L36.3282 275.948C36.6255 275.511 36.7742 275.179 36.7742 274.949C36.7742 274.513 36.6484 274.156 36.3969 273.88C36.168 273.582 35.7336 273.364 35.0935 273.228C34.476 273.066 33.8472 272.952 33.2068 272.882C32.5895 272.814 31.6634 272.734 30.4286 272.641C30.3371 272.229 30.2913 271.942 30.2913 271.781C30.2913 271.642 30.3371 271.39 30.4286 271.023C35.5965 271.208 38.9922 271.299 40.6158 271.299C41.7361 271.299 44.8804 271.208 50.0483 271.023C50.1397 271.39 50.1854 271.642 50.1854 271.781C50.1854 271.942 50.1397 272.229 50.0483 272.641C49.0651 272.734 48.2761 272.825 47.6815 272.918C47.11 273.009 46.3667 273.171 45.4519 273.398C44.5602 273.605 43.7028 273.928 42.8795 274.363C42.0792 274.777 41.3017 275.304 40.5471 275.948L22.8483 292.853L44.6289 315.095C48.2876 318.377 51.5004 320.088 54.2672 320.224C54.3588 320.593 54.4043 320.902 54.4043 321.154C54.4043 321.43 54.3588 321.682 54.2672 321.912C50.9516 321.728 47.2928 321.637 43.291 321.637C39.701 321.637 35.3679 321.728 30.2913 321.912C30.2 321.637 30.1542 321.361 30.1542 321.086C30.1542 320.788 30.2 320.499 30.2913 320.224C32.5095 320.156 33.9729 319.96 34.6817 319.639C35.4134 319.296 35.7794 318.709 35.7794 317.883C35.7794 317.585 35.6994 317.299 35.5392 317.024C35.3792 316.748 35.0935 316.391 34.6817 315.955C34.2931 315.497 34.0529 315.208 33.9614 315.095L17.223 297.673L15.8853 297.741C15.8853 302.655 16.011 309.046 16.2626 316.919C16.2854 317.517 16.5484 318.034 17.0515 318.468C17.5545 318.882 18.2748 319.203 19.2124 319.433C20.1728 319.662 20.9731 319.835 21.6134 319.949C22.2765 320.042 23.1341 320.133 24.186 320.224C24.2773 320.499 24.323 320.811 24.323 321.154C24.323 321.339 24.2773 321.568 24.186 321.844C20.2986 321.705 16.3197 321.637 12.2495 321.637C8.13343 321.637 4.1546 321.705 0.312983 321.844C0.221515 321.568 0.175781 321.339 0.175781 321.154C0.175781 320.765 0.221515 320.454 0.312983 320.224C0.998986 320.156 1.54779 320.099 1.95939 320.053C2.37099 320.008 2.93122 319.926 3.6401 319.812C4.37185 319.696 4.95494 319.571 5.38941 319.433C5.84676 319.273 6.31551 319.078 6.79572 318.848C7.27592 318.618 7.63035 318.343 7.85903 318.022C8.11056 317.699 8.23633 317.333 8.23633 316.919C8.51072 309.736 8.64793 302.493 8.64793 295.194C8.64793 287.756 8.53359 281.341 8.30492 275.948C8.28206 275.35 8.01908 274.845 7.51603 274.433C7.01295 273.996 6.28122 273.662 5.32081 273.435C4.38327 273.205 3.58293 273.043 2.9198 272.952C2.27954 272.836 1.43346 272.734 0.381582 272.641C0.290116 272.229 0.244381 271.942 0.244381 271.781C0.244381 271.551 0.290116 271.299 0.381582 271.023Z" fill="white" fill-opacity="0.05"/>
<path d="M72.7921 290.34C75.0558 290.34 77.091 290.74 78.8977 291.543C80.7268 292.348 82.2817 293.461 83.5623 294.885C84.8428 296.306 85.8262 298.017 86.5122 300.014C87.1981 301.988 87.5412 304.147 87.5412 306.488C87.5412 311.262 86.2035 315.14 83.528 318.125C80.8754 321.132 77.2969 322.635 72.7921 322.635C70.5512 322.635 68.5161 322.244 66.6867 321.464C64.8802 320.661 63.3366 319.549 62.0561 318.125C60.7756 316.678 59.781 314.97 59.072 312.995C58.386 311.021 58.043 308.851 58.043 306.488C58.043 304.147 58.386 301.988 59.072 300.014C59.7581 298.017 60.7298 296.306 61.9874 294.885C63.2682 293.461 64.8231 292.348 66.6523 291.543C68.4816 290.74 70.5283 290.34 72.7921 290.34ZM72.7921 292.578C70.4597 292.578 68.5961 293.713 67.2011 295.986C65.8293 298.258 65.1431 301.759 65.1431 306.488C65.1431 311.217 65.8293 314.717 67.2011 316.99C68.5961 319.237 70.4597 320.363 72.7921 320.363C75.1245 320.363 76.9767 319.226 78.3488 316.953C79.7436 314.681 80.441 311.194 80.441 306.488C80.441 304.122 80.2582 302.068 79.8922 300.323C79.5265 298.579 79.0119 297.134 78.3488 295.986C77.6856 294.839 76.8852 293.988 75.9477 293.438C75.0103 292.865 73.9584 292.578 72.7921 292.578Z" fill="white" fill-opacity="0.05"/>
<path d="M94.0229 272.124C98.3678 271.712 102.221 270.77 105.582 269.301C106.2 269.553 106.6 269.863 106.783 270.231C106.783 296.237 106.874 311.8 107.057 316.918C107.08 317.4 107.217 317.837 107.469 318.226C107.743 318.595 108.04 318.893 108.36 319.122C108.681 319.329 109.115 319.525 109.664 319.707C110.213 319.868 110.636 319.982 110.933 320.053C111.253 320.098 111.676 320.155 112.202 320.223C112.339 320.499 112.408 320.787 112.408 321.085C112.408 321.383 112.339 321.636 112.202 321.843C109.184 321.704 106.257 321.636 103.421 321.636C100.632 321.636 97.7274 321.704 94.709 321.843C94.6175 321.474 94.5717 321.222 94.5717 321.085C94.5717 320.969 94.6175 320.683 94.709 320.223C95.4636 320.132 96.0695 320.041 96.5268 319.948C97.007 319.834 97.6016 319.661 98.3104 319.432C99.0421 319.202 99.5909 318.881 99.9569 318.467C100.323 318.033 100.517 317.516 100.54 316.918C100.632 314.646 100.677 309.562 100.677 301.667C100.677 298.016 100.666 293.046 100.643 286.756C100.62 280.469 100.609 276.6 100.609 275.153C99.3052 274.396 97.1099 273.927 94.0229 273.743C93.9087 273.445 93.8516 273.17 93.8516 272.917C93.8516 272.688 93.9087 272.424 94.0229 272.124Z" fill="white" fill-opacity="0.05"/>
<path d="M126.879 284.484C127.108 284.393 127.371 284.348 127.668 284.348C127.965 284.348 128.274 284.393 128.594 284.484V292.025H138.987C139.124 292.37 139.193 292.793 139.193 293.298C139.193 293.735 139.124 294.138 138.987 294.504H128.594V312.89C128.594 316.518 130.252 318.331 133.568 318.331C134.825 318.331 135.9 318.09 136.792 317.608C137.707 317.125 138.713 316.402 139.81 315.438C140.382 315.508 140.759 315.783 140.942 316.266C139.936 318.078 138.45 319.593 136.483 320.81C134.517 322.027 132.356 322.635 130.001 322.635C124.467 322.635 121.7 319.273 121.7 312.546V294.504H117.481C117.39 294.092 117.344 293.828 117.344 293.712C117.344 293.69 117.39 293.426 117.481 292.921C118.579 292.37 119.413 291.922 119.985 291.579C120.579 291.21 121.323 290.694 122.214 290.027C123.129 289.363 123.952 288.583 124.684 287.687C125.439 286.77 126.17 285.701 126.879 284.484Z" fill="white" fill-opacity="0.05"/>
<path d="M147.875 299.015C147.875 296.49 149.018 294.414 151.305 292.783C153.614 291.154 156.335 290.34 159.468 290.34C163.31 290.34 166.008 291.109 167.563 292.646C169.141 294.184 169.93 296.777 169.93 300.428V314.717C169.93 316.002 170.399 316.644 171.336 316.644C172.091 316.644 173.051 315.727 174.217 313.889C175.04 313.96 175.601 314.326 175.898 314.992C175.738 315.222 175.464 315.634 175.075 316.232C174.686 316.828 174.4 317.253 174.217 317.506C174.034 317.758 173.748 318.147 173.36 318.675C172.971 319.18 172.651 319.56 172.399 319.812C172.171 320.065 171.851 320.363 171.439 320.706C171.05 321.052 170.684 321.316 170.341 321.498C170.021 321.659 169.644 321.798 169.209 321.912C168.775 322.051 168.34 322.119 167.906 322.119C166.763 322.119 165.814 321.705 165.059 320.879C164.327 320.054 163.893 318.78 163.756 317.058C163.733 317.081 163.378 317.413 162.692 318.056C162.006 318.698 161.526 319.135 161.252 319.364C161 319.571 160.508 319.949 159.777 320.499C159.068 321.029 158.462 321.407 157.959 321.637C157.456 321.866 156.827 322.085 156.072 322.292C155.318 322.519 154.575 322.635 153.843 322.635C152.677 322.635 151.636 322.474 150.721 322.153C149.83 321.832 149.132 321.441 148.629 320.982C148.126 320.524 147.715 319.994 147.394 319.398C147.074 318.78 146.857 318.216 146.743 317.711C146.651 317.206 146.605 316.701 146.605 316.196C146.605 314.658 146.857 313.362 147.36 312.306C147.886 311.251 148.847 310.263 150.241 309.345C151.659 308.428 153.397 307.611 155.455 306.899C157.513 306.19 160.28 305.384 163.756 304.49V299.705C163.756 297.387 163.241 295.653 162.212 294.505C161.206 293.358 159.845 292.783 158.13 292.783C156.598 292.783 155.306 293.094 154.254 293.713C153.225 294.309 152.597 295.01 152.368 295.813C154.609 296.158 155.729 297.387 155.729 299.498C155.729 300.462 155.386 301.31 154.7 302.045C154.014 302.78 153.054 303.148 151.819 303.148C150.79 303.148 149.876 302.791 149.075 302.079C148.275 301.345 147.875 300.323 147.875 299.015ZM163.756 313.889V306.695C161.652 307.177 159.914 307.704 158.542 308.278C157.17 308.828 156.118 309.438 155.386 310.102C154.678 310.768 154.186 311.458 153.912 312.167C153.637 312.857 153.5 313.66 153.5 314.578C153.5 315.727 153.831 316.632 154.495 317.299C155.181 317.94 156.015 318.263 156.999 318.263C159.285 318.263 161.538 316.805 163.756 313.889Z" fill="white" fill-opacity="0.05"/>
<path d="M201.519 320.223C203.531 320.019 204.537 319.477 204.537 318.606C204.537 318.101 204.286 317.539 203.783 316.918L194.419 304.867H192.738C192.738 310.354 192.807 314.371 192.944 316.918C192.944 317.516 193.092 318.033 193.39 318.467C193.71 318.881 194.167 319.202 194.762 319.432C195.379 319.661 195.882 319.834 196.271 319.948C196.682 320.041 197.22 320.132 197.883 320.223C198.02 320.499 198.089 320.787 198.089 321.085C198.089 321.383 198.02 321.636 197.883 321.843C194.865 321.704 192.006 321.636 189.308 321.636C186.518 321.636 183.614 321.704 180.596 321.843C180.504 321.474 180.459 321.222 180.459 321.085C180.459 320.969 180.504 320.683 180.596 320.223C181.35 320.132 181.956 320.041 182.414 319.948C182.894 319.834 183.489 319.661 184.197 319.432C184.929 319.202 185.478 318.881 185.844 318.467C186.21 318.033 186.404 317.516 186.427 316.918C186.518 314.646 186.553 307.485 186.53 295.434C186.507 283.36 186.495 276.6 186.495 275.153C185.192 274.396 182.997 273.927 179.91 273.743C179.795 273.445 179.738 273.17 179.738 272.917C179.738 272.688 179.795 272.424 179.91 272.124C184.254 271.712 188.108 270.77 191.469 269.301C192.086 269.553 192.486 269.863 192.669 270.231L192.738 302.665H194.522L201.45 296.053C201.885 295.548 202.102 295.032 202.102 294.504C202.102 293.539 201.016 292.943 198.844 292.714C198.752 292.348 198.706 292.095 198.706 291.956C198.706 291.749 198.752 291.463 198.844 291.096C201.816 291.233 204.183 291.303 205.944 291.303C207.864 291.303 210.3 291.233 213.25 291.096C213.341 291.372 213.387 291.613 213.387 291.82C213.387 291.956 213.341 292.254 213.25 292.714C211.215 292.943 209.534 293.287 208.207 293.746C206.881 294.183 205.681 294.952 204.606 296.053L199.152 301.596L211.226 316.918C212.598 318.708 214.656 319.812 217.4 320.223C217.491 320.683 217.537 320.992 217.537 321.154C217.537 321.338 217.491 321.568 217.4 321.843C214.45 321.704 211.786 321.636 209.408 321.636C207.099 321.636 204.469 321.704 201.519 321.843C201.428 321.474 201.382 321.199 201.382 321.017C201.382 320.856 201.428 320.592 201.519 320.223Z" fill="white" fill-opacity="0.05"/>
<path d="M234.961 290.34C237.224 290.34 239.259 290.74 241.065 291.543C242.894 292.348 244.451 293.461 245.731 294.885C247.011 296.306 247.995 298.017 248.679 300.014C249.366 301.988 249.71 304.147 249.71 306.488C249.71 311.262 248.371 315.14 245.697 318.125C243.044 321.132 239.466 322.635 234.961 322.635C232.72 322.635 230.685 322.244 228.854 321.464C227.048 320.661 225.505 319.549 224.224 318.125C222.944 316.678 221.949 314.97 221.24 312.995C220.554 311.021 220.211 308.851 220.211 306.488C220.211 304.147 220.554 301.988 221.24 300.014C221.926 298.017 222.898 296.306 224.156 294.885C225.436 293.461 226.991 292.348 228.82 291.543C230.651 290.74 232.697 290.34 234.961 290.34ZM234.961 292.578C232.627 292.578 230.764 293.713 229.368 295.986C227.997 298.258 227.311 301.759 227.311 306.488C227.311 311.217 227.997 314.717 229.368 316.99C230.764 319.237 232.627 320.363 234.961 320.363C237.292 320.363 239.144 319.226 240.517 316.953C241.911 314.681 242.609 311.194 242.609 306.488C242.609 304.122 242.425 302.068 242.06 300.323C241.695 298.579 241.181 297.134 240.517 295.986C239.853 294.839 239.053 293.988 238.115 293.438C237.179 292.865 236.125 292.578 234.961 292.578Z" fill="white" fill-opacity="0.05"/>
<path d="M252.659 291.098C255.678 291.234 258.719 291.305 261.785 291.305C264.368 291.305 267.135 291.234 270.085 291.098C270.176 291.464 270.221 291.75 270.221 291.957C270.221 292.096 270.176 292.349 270.085 292.715C269.444 292.76 268.918 292.82 268.506 292.888C268.118 292.933 267.626 293.024 267.033 293.163C266.437 293.3 265.99 293.507 265.694 293.782C265.397 294.057 265.247 294.391 265.247 294.78C265.247 294.987 265.34 295.413 265.524 296.054L271.764 313.442H271.97L279.276 296.054C279.528 295.435 279.655 294.942 279.655 294.576C279.655 293.518 278.34 292.899 275.709 292.715C275.619 292.349 275.573 292.096 275.573 291.957C275.573 291.75 275.619 291.464 275.709 291.098C278.386 291.234 280.042 291.305 280.683 291.305C282.605 291.305 285.039 291.234 287.989 291.098C288.08 291.373 288.127 291.614 288.127 291.821C288.127 291.957 288.08 292.255 287.989 292.715C285.267 292.831 283.416 293.943 282.433 296.054L270.701 322.636H269.02L258.628 296.054C258.399 295.458 258.057 294.953 257.599 294.539C257.164 294.105 256.593 293.77 255.884 293.541C255.197 293.288 254.66 293.118 254.273 293.024C253.906 292.933 253.369 292.831 252.659 292.715C252.569 292.531 252.523 292.278 252.523 291.957C252.523 291.614 252.569 291.327 252.659 291.098Z" fill="white" fill-opacity="0.05"/>
<path d="M293.304 299.015C293.304 296.49 294.448 294.414 296.735 292.783C299.044 291.154 301.765 290.34 304.897 290.34C308.74 290.34 311.439 291.109 312.994 292.646C314.571 294.184 315.359 296.777 315.359 300.428V314.717C315.359 316.002 315.828 316.644 316.767 316.644C317.521 316.644 318.482 315.727 319.647 313.889C320.472 313.96 321.031 314.326 321.328 314.992C321.167 315.222 320.893 315.634 320.505 316.232C320.116 316.828 319.83 317.253 319.647 317.506C319.465 317.758 319.178 318.147 318.79 318.675C318.4 319.18 318.081 319.56 317.829 319.812C317.6 320.065 317.281 320.363 316.869 320.706C316.481 321.052 316.114 321.316 315.772 321.498C315.452 321.659 315.074 321.798 314.639 321.912C314.206 322.051 313.771 322.119 313.336 322.119C312.194 322.119 311.244 321.705 310.49 320.879C309.758 320.054 309.323 318.78 309.187 317.058C309.162 317.081 308.808 317.413 308.122 318.056C307.437 318.698 306.957 319.135 306.683 319.364C306.431 319.571 305.939 319.949 305.208 320.499C304.498 321.029 303.891 321.407 303.388 321.637C302.885 321.866 302.257 322.085 301.503 322.292C300.748 322.519 300.005 322.635 299.273 322.635C298.106 322.635 297.066 322.474 296.152 322.153C295.26 321.832 294.562 321.441 294.059 320.982C293.556 320.524 293.145 319.994 292.824 319.398C292.504 318.78 292.287 318.216 292.173 317.711C292.08 317.206 292.035 316.701 292.035 316.196C292.035 314.658 292.287 313.362 292.79 312.306C293.315 311.251 294.276 310.263 295.672 309.345C297.088 308.428 298.826 307.611 300.884 306.899C302.944 306.19 305.711 305.384 309.187 304.49V299.705C309.187 297.387 308.672 295.653 307.641 294.505C306.635 293.358 305.276 292.783 303.56 292.783C302.028 292.783 300.737 293.094 299.685 293.713C298.656 294.309 298.027 295.01 297.798 295.813C300.039 296.158 301.16 297.387 301.16 299.498C301.16 300.462 300.816 301.31 300.129 302.045C299.445 302.78 298.484 303.148 297.249 303.148C296.22 303.148 295.305 302.791 294.505 302.079C293.705 301.345 293.304 300.323 293.304 299.015ZM309.187 313.889V306.695C307.082 307.177 305.344 307.704 303.973 308.278C302.599 308.828 301.548 309.438 300.816 310.102C300.107 310.768 299.615 311.458 299.341 312.167C299.067 312.857 298.931 313.66 298.931 314.578C298.931 315.727 299.261 316.632 299.925 317.299C300.61 317.94 301.446 318.263 302.429 318.263C304.716 318.263 306.968 316.805 309.187 313.889Z" fill="white" fill-opacity="0.05"/>
<path d="M431.742 285.586C430.874 281.385 429.272 278.126 426.94 275.808C424.631 273.49 421.853 272.33 418.605 272.33C415.426 272.33 412.956 273.087 411.195 274.602C409.457 276.117 408.59 278.137 408.59 280.662C408.59 282.063 408.714 283.221 408.966 284.14C409.217 285.059 409.732 285.953 410.509 286.826C411.288 287.674 412.419 288.432 413.906 289.098C415.392 289.74 417.336 290.361 419.736 290.957C421.039 291.278 422.172 291.578 423.133 291.853C424.116 292.128 425.19 292.506 426.357 292.988C427.545 293.47 428.562 293.987 429.41 294.537C430.278 295.09 431.136 295.777 431.982 296.605C432.85 297.408 433.548 298.302 434.073 299.289C434.624 300.276 435.057 301.447 435.378 302.801C435.721 304.132 435.893 305.59 435.893 307.175C435.893 309.286 435.503 311.238 434.726 313.028C433.949 314.795 432.931 316.287 431.674 317.504C430.416 318.719 428.963 319.754 427.316 320.602C425.671 321.451 424.001 322.072 422.308 322.461C420.618 322.852 418.936 323.048 417.266 323.048C412.19 323.048 406.784 321.726 401.044 319.087C401.157 316.608 401.214 315.082 401.214 314.508C401.214 310.767 400.905 307.036 400.289 303.317C400.541 303.158 400.792 303.076 401.044 303.076C401.363 303.076 401.649 303.158 401.9 303.317C402.381 306.279 403.169 308.895 404.268 311.167C405.388 313.439 406.668 315.243 408.109 316.574C409.55 317.882 411.037 318.869 412.569 319.535C414.123 320.177 415.689 320.498 417.266 320.498C420.858 320.498 423.613 319.57 425.533 317.709C427.477 315.828 428.449 313.348 428.449 310.273C428.449 307.175 427.728 304.844 426.287 303.283C424.871 301.7 422.149 300.415 418.125 299.428C413.094 298.165 409.161 296.304 406.326 293.85C403.514 291.371 402.106 288.1 402.106 284.037C402.106 281.901 402.449 279.998 403.135 278.321C403.844 276.622 404.746 275.269 405.845 274.259C406.965 273.226 408.27 272.375 409.754 271.711C411.241 271.022 412.705 270.551 414.146 270.298C415.61 270.023 417.096 269.887 418.605 269.887C423.133 269.887 427.844 270.942 432.736 273.053C432.598 274.406 432.53 275.819 432.53 277.288C432.53 280.732 432.804 283.498 433.355 285.586C433.056 285.7 432.804 285.759 432.598 285.759C432.371 285.759 432.084 285.7 431.742 285.586Z" fill="white" fill-opacity="0.05"/>
<path d="M445.941 299.015C445.941 296.49 447.083 294.414 449.369 292.783C451.681 291.154 454.4 290.34 457.534 290.34C461.375 290.34 464.074 291.109 465.628 292.646C467.205 294.184 467.996 296.777 467.996 300.428V314.717C467.996 316.002 468.463 316.644 469.401 316.644C470.156 316.644 471.116 315.727 472.283 313.889C473.106 313.96 473.666 314.326 473.963 314.992C473.804 315.222 473.53 315.634 473.14 316.232C472.752 316.828 472.465 317.253 472.283 317.506C472.1 317.758 471.814 318.147 471.425 318.675C471.037 319.18 470.715 319.56 470.464 319.812C470.237 320.065 469.915 320.363 469.505 320.706C469.115 321.052 468.751 321.316 468.406 321.498C468.087 321.659 467.708 321.798 467.275 321.912C466.84 322.051 466.405 322.119 465.973 322.119C464.828 322.119 463.879 321.705 463.124 320.879C462.392 320.054 461.959 318.78 461.821 317.058C461.798 317.081 461.443 317.413 460.758 318.056C460.072 318.698 459.591 319.135 459.317 319.364C459.066 319.571 458.574 319.949 457.842 320.499C457.133 321.029 456.528 321.407 456.025 321.637C455.522 321.866 454.892 322.085 454.137 322.292C453.382 322.519 452.639 322.635 451.907 322.635C450.743 322.635 449.702 322.474 448.787 322.153C447.894 321.832 447.199 321.441 446.695 320.982C446.192 320.524 445.78 319.994 445.46 319.398C445.139 318.78 444.923 318.216 444.808 317.711C444.717 317.206 444.672 316.701 444.672 316.196C444.672 314.658 444.923 313.362 445.426 312.306C445.952 311.251 446.913 310.263 448.307 309.345C449.725 308.428 451.463 307.611 453.521 306.899C455.578 306.19 458.345 305.384 461.821 304.49V299.705C461.821 297.387 461.307 295.653 460.278 294.505C459.272 293.358 457.91 292.783 456.197 292.783C454.663 292.783 453.371 293.094 452.32 293.713C451.291 294.309 450.661 295.01 450.434 295.813C452.675 296.158 453.795 297.387 453.795 299.498C453.795 300.462 453.453 301.31 452.766 302.045C452.08 302.78 451.119 303.148 449.884 303.148C448.855 303.148 447.942 302.791 447.14 302.079C446.34 301.345 445.941 300.323 445.941 299.015ZM461.821 313.889V306.695C459.718 307.177 457.98 307.704 456.607 308.278C455.236 308.828 454.185 309.438 453.453 310.102C452.743 310.768 452.252 311.458 451.978 312.167C451.703 312.857 451.565 313.66 451.565 314.578C451.565 315.727 451.896 316.632 452.56 317.299C453.247 317.94 454.08 318.263 455.064 318.263C457.35 318.263 459.603 316.805 461.821 313.889Z" fill="white" fill-opacity="0.05"/>
<path d="M477.979 272.124C482.325 271.712 486.177 270.77 489.538 269.301C490.156 269.553 490.557 269.863 490.739 270.231C490.739 296.237 490.831 311.8 491.013 316.918C491.035 317.4 491.174 317.837 491.425 318.226C491.699 318.595 491.996 318.893 492.318 319.122C492.637 319.329 493.073 319.525 493.621 319.707C494.169 319.868 494.593 319.982 494.89 320.053C495.209 320.098 495.633 320.155 496.159 320.223C496.295 320.499 496.365 320.787 496.365 321.085C496.365 321.383 496.295 321.636 496.159 321.843C493.141 321.704 490.213 321.636 487.378 321.636C484.589 321.636 481.684 321.704 478.665 321.843C478.575 321.474 478.529 321.222 478.529 321.085C478.529 320.969 478.575 320.683 478.665 320.223C479.42 320.132 480.027 320.041 480.483 319.948C480.963 319.834 481.559 319.661 482.266 319.432C482.998 319.202 483.548 318.881 483.913 318.467C484.278 318.033 484.473 317.516 484.496 316.918C484.589 314.646 484.634 309.562 484.634 301.667C484.634 298.016 484.623 293.046 484.6 286.756C484.577 280.469 484.566 276.6 484.566 275.153C483.261 274.396 481.067 273.927 477.979 273.743C477.865 273.445 477.809 273.17 477.809 272.917C477.809 272.688 477.865 272.424 477.979 272.124Z" fill="white" fill-opacity="0.05"/>
<path d="M504.32 299.015C504.32 296.49 505.464 294.414 507.751 292.783C510.06 291.154 512.781 290.34 515.915 290.34C519.756 290.34 522.455 291.109 524.009 292.646C525.586 294.184 526.375 296.777 526.375 300.428V314.717C526.375 316.002 526.844 316.644 527.782 316.644C528.537 316.644 529.498 315.727 530.662 313.889C531.487 313.96 532.047 314.326 532.344 314.992C532.183 315.222 531.909 315.634 531.521 316.232C531.131 316.828 530.846 317.253 530.662 317.506C530.481 317.758 530.196 318.147 529.806 318.675C529.416 319.18 529.097 319.56 528.845 319.812C528.616 320.065 528.297 320.363 527.884 320.706C527.497 321.052 527.13 321.316 526.787 321.498C526.468 321.659 526.089 321.798 525.654 321.912C525.222 322.051 524.787 322.119 524.351 322.119C523.209 322.119 522.26 321.705 521.505 320.879C520.773 320.054 520.338 318.78 520.202 317.058C520.18 317.081 519.824 317.413 519.137 318.056C518.453 318.698 517.973 319.135 517.698 319.364C517.447 319.571 516.955 319.949 516.223 320.499C515.514 321.029 514.909 321.407 514.406 321.637C513.903 321.866 513.273 322.085 512.518 322.292C511.764 322.519 511.02 322.635 510.288 322.635C509.124 322.635 508.081 322.474 507.168 322.153C506.275 321.832 505.577 321.441 505.074 320.982C504.571 320.524 504.161 319.994 503.839 319.398C503.52 318.78 503.302 318.216 503.189 317.711C503.096 317.206 503.051 316.701 503.051 316.196C503.051 314.658 503.302 313.362 503.805 312.306C504.331 311.251 505.292 310.263 506.688 309.345C508.104 308.428 509.842 307.611 511.902 306.899C513.959 306.19 516.726 305.384 520.202 304.49V299.705C520.202 297.387 519.688 295.653 518.659 294.505C517.653 293.358 516.291 292.783 514.576 292.783C513.044 292.783 511.752 293.094 510.701 293.713C509.672 294.309 509.042 295.01 508.813 295.813C511.054 296.158 512.176 297.387 512.176 299.498C512.176 300.462 511.832 301.31 511.147 302.045C510.461 302.78 509.5 303.148 508.265 303.148C507.236 303.148 506.321 302.791 505.521 302.079C504.721 301.345 504.32 300.323 504.32 299.015ZM520.202 313.889V306.695C518.097 307.177 516.359 307.704 514.988 308.278C513.615 308.828 512.564 309.438 511.832 310.102C511.122 310.768 510.633 311.458 510.356 312.167C510.082 312.857 509.946 313.66 509.946 314.578C509.946 315.727 510.277 316.632 510.941 317.299C511.625 317.94 512.462 318.263 513.445 318.263C515.731 318.263 517.984 316.805 520.202 313.889Z" fill="white" fill-opacity="0.05"/>
<path d="M577.38 320.224C577.951 320.133 578.421 320.042 578.785 319.949C579.175 319.835 579.597 319.662 580.054 319.433C580.512 319.203 580.854 318.882 581.083 318.468C581.312 318.034 581.428 317.517 581.428 316.919L581.496 300.564C581.496 296.411 580.261 294.334 577.791 294.334C576.556 294.334 575.219 294.723 573.777 295.503C572.336 296.283 570.612 297.455 568.6 299.015V299.429L568.874 316.919C568.896 317.517 569.066 318.034 569.388 318.468C569.73 318.882 570.211 319.203 570.827 319.433C571.446 319.662 571.96 319.835 572.373 319.949C572.783 320.042 573.32 320.133 573.984 320.224C574.074 320.684 574.122 320.993 574.122 321.154C574.122 321.339 574.074 321.568 573.984 321.844C571.033 321.705 568.348 321.637 565.923 321.637C563.705 321.637 561.122 321.705 558.171 321.844C558.081 321.475 558.033 321.2 558.033 321.018C558.033 320.857 558.081 320.593 558.171 320.224C558.742 320.133 559.223 320.042 559.613 319.949C560 319.835 560.424 319.662 560.882 319.433C561.339 319.203 561.681 318.882 561.91 318.468C562.139 318.034 562.252 317.517 562.252 316.919L562.323 300.564C562.323 296.411 561.088 294.334 558.618 294.334C557.383 294.334 556.068 294.712 554.673 295.469C553.302 296.227 551.575 297.387 549.492 298.947C549.492 305.673 549.585 311.662 549.769 316.919C549.792 317.517 549.95 318.034 550.247 318.468C550.546 318.882 550.968 319.203 551.516 319.433C552.089 319.662 552.581 319.835 552.991 319.949C553.404 320.042 553.918 320.133 554.537 320.224C554.673 320.499 554.741 320.788 554.741 321.086C554.741 321.316 554.673 321.568 554.537 321.844C551.516 321.705 548.704 321.637 546.098 321.637C543.308 321.637 540.403 321.705 537.385 321.844C537.294 321.475 537.249 321.223 537.249 321.086C537.249 320.97 537.294 320.684 537.385 320.224C538.14 320.133 538.758 320.042 539.239 319.949C539.717 319.835 540.313 319.662 541.022 319.433C541.729 319.203 542.268 318.882 542.633 318.468C543 318.034 543.193 317.517 543.216 316.919C543.308 314.647 543.354 311.892 543.354 308.655C543.354 307.577 543.342 305.741 543.32 303.148C543.297 300.553 543.286 298.281 543.286 296.331C541.981 295.526 539.787 295.055 536.698 294.919C536.608 294.55 536.562 294.264 536.562 294.057C536.562 293.92 536.608 293.668 536.698 293.299C541.135 292.842 545.001 291.9 548.294 290.476C548.865 290.706 549.266 291.004 549.492 291.373V296.811C550.569 295.824 551.471 295.032 552.203 294.436C552.935 293.818 553.827 293.151 554.879 292.439C555.953 291.727 557.016 291.2 558.069 290.856C559.143 290.51 560.24 290.34 561.362 290.34C563.603 290.34 565.271 290.879 566.37 291.957C567.467 293.013 568.153 294.678 568.427 296.95C569.594 295.895 570.519 295.08 571.206 294.505C571.915 293.931 572.828 293.265 573.95 292.508C575.069 291.75 576.168 291.2 577.242 290.856C578.316 290.51 579.415 290.34 580.535 290.34C583.118 290.34 584.96 291.075 586.057 292.542C587.156 294.011 587.727 296.306 587.772 299.429L588.115 316.919C588.137 317.517 588.309 318.034 588.629 318.468C588.973 318.882 589.454 319.203 590.07 319.433C590.689 319.662 591.203 319.835 591.613 319.949C592.026 320.042 592.563 320.133 593.227 320.224C593.34 320.8 593.397 321.109 593.397 321.154C593.397 321.27 593.34 321.498 593.227 321.844C590.276 321.705 587.566 321.637 585.096 321.637C582.903 321.637 580.329 321.705 577.38 321.844C577.265 321.384 577.208 321.109 577.208 321.018C577.208 320.948 577.265 320.684 577.38 320.224Z" fill="white" fill-opacity="0.05"/>
<path d="M614.117 290.34C616.381 290.34 618.415 290.74 620.221 291.543C622.052 292.348 623.607 293.461 624.887 294.885C626.167 296.306 627.151 298.017 627.838 300.014C628.522 301.988 628.866 304.147 628.866 306.488C628.866 311.262 627.527 315.14 624.853 318.125C622.2 321.132 618.622 322.635 614.117 322.635C611.876 322.635 609.841 322.244 608.012 321.464C606.204 320.661 604.661 319.549 603.38 318.125C602.1 316.678 601.105 314.97 600.396 312.995C599.712 311.021 599.367 308.851 599.367 306.488C599.367 304.147 599.712 301.988 600.396 300.014C601.083 298.017 602.055 296.306 603.312 294.885C604.593 293.461 606.147 292.348 607.978 291.543C609.807 290.74 611.853 290.34 614.117 290.34ZM614.117 292.578C611.785 292.578 609.92 293.713 608.526 295.986C607.153 298.258 606.469 301.759 606.469 306.488C606.469 311.217 607.153 314.717 608.526 316.99C609.92 319.237 611.785 320.363 614.117 320.363C616.448 320.363 618.302 319.226 619.673 316.953C621.069 314.681 621.765 311.194 621.765 306.488C621.765 304.122 621.583 302.068 621.216 300.323C620.851 298.579 620.337 297.134 619.673 295.986C619.011 294.839 618.209 293.988 617.273 293.438C616.335 292.865 615.284 292.578 614.117 292.578Z" fill="white" fill-opacity="0.05"/>
<path d="M631.814 291.098C634.832 291.234 637.873 291.305 640.937 291.305C643.52 291.305 646.287 291.234 649.237 291.098C649.328 291.464 649.376 291.75 649.376 291.957C649.376 292.096 649.328 292.349 649.237 292.715C648.596 292.76 648.07 292.82 647.66 292.888C647.271 292.933 646.779 293.024 646.185 293.163C645.589 293.3 645.145 293.507 644.848 293.782C644.549 294.057 644.402 294.391 644.402 294.78C644.402 294.987 644.492 295.413 644.676 296.054L650.919 313.442H651.125L658.431 296.054C658.682 295.435 658.807 294.942 658.807 294.576C658.807 293.518 657.493 292.899 654.862 292.715C654.771 292.349 654.726 292.096 654.726 291.957C654.726 291.75 654.771 291.464 654.862 291.098C657.538 291.234 659.197 291.305 659.836 291.305C661.757 291.305 664.193 291.234 667.141 291.098C667.234 291.373 667.28 291.614 667.28 291.821C667.28 291.957 667.234 292.255 667.141 292.715C664.422 292.831 662.569 293.943 661.585 296.054L649.854 322.636H648.175L637.78 296.054C637.552 295.458 637.209 294.953 636.752 294.539C636.319 294.105 635.746 293.77 635.036 293.541C634.352 293.288 633.815 293.118 633.425 293.024C633.06 292.933 632.521 292.831 631.814 292.715C631.721 292.531 631.676 292.278 631.676 291.957C631.676 291.614 631.721 291.327 631.814 291.098Z" fill="white" fill-opacity="0.05"/>
<path d="M672.46 299.015C672.46 296.49 673.602 294.414 675.889 292.783C678.198 291.154 680.919 290.34 684.053 290.34C687.894 290.34 690.593 291.109 692.148 292.646C693.725 294.184 694.513 296.777 694.513 300.428V314.717C694.513 316.002 694.982 316.644 695.921 316.644C696.675 316.644 697.636 315.727 698.803 313.889C699.625 313.96 700.185 314.326 700.482 314.992C700.323 315.222 700.049 315.634 699.659 316.232C699.27 316.828 698.984 317.253 698.803 317.506C698.619 317.758 698.334 318.147 697.944 318.675C697.557 319.18 697.235 319.56 696.983 319.812C696.754 320.065 696.435 320.363 696.023 320.706C695.635 321.052 695.268 321.316 694.926 321.498C694.606 321.659 694.228 321.798 693.795 321.912C693.36 322.051 692.925 322.119 692.49 322.119C691.348 322.119 690.398 321.705 689.644 320.879C688.912 320.054 688.477 318.78 688.341 317.058C688.318 317.081 687.962 317.413 687.278 318.056C686.591 318.698 686.111 319.135 685.837 319.364C685.585 319.571 685.093 319.949 684.362 320.499C683.652 321.029 683.047 321.407 682.544 321.637C682.041 321.866 681.411 322.085 680.657 322.292C679.902 322.519 679.159 322.635 678.427 322.635C677.262 322.635 676.222 322.474 675.307 322.153C674.414 321.832 673.718 321.441 673.215 320.982C672.712 320.524 672.299 319.994 671.98 319.398C671.658 318.78 671.443 318.216 671.327 317.711C671.237 317.206 671.191 316.701 671.191 316.196C671.191 314.658 671.443 313.362 671.946 312.306C672.472 311.251 673.43 310.263 674.826 309.345C676.245 308.428 677.983 307.611 680.04 306.899C682.098 306.19 684.865 305.384 688.341 304.49V299.705C688.341 297.387 687.826 295.653 686.798 294.505C685.791 293.358 684.43 292.783 682.714 292.783C681.182 292.783 679.891 293.094 678.839 293.713C677.81 294.309 677.18 295.01 676.952 295.813C679.193 296.158 680.314 297.387 680.314 299.498C680.314 300.462 679.972 301.31 679.286 302.045C678.599 302.78 677.638 303.148 676.403 303.148C675.374 303.148 674.461 302.791 673.659 302.079C672.859 301.345 672.46 300.323 672.46 299.015ZM688.341 313.889V306.695C686.236 307.177 684.5 307.704 683.127 308.278C681.756 308.828 680.702 309.438 679.972 310.102C679.263 310.768 678.771 311.458 678.497 312.167C678.223 312.857 678.085 313.66 678.085 314.578C678.085 315.727 678.415 316.632 679.079 317.299C679.766 317.94 680.6 318.263 681.583 318.263C683.87 318.263 686.122 316.805 688.341 313.889Z" fill="white" fill-opacity="0.05"/>
<mask id="mask0_2309_22547" style="mask-type:luminance" maskUnits="userSpaceOnUse" x="296" y="110" width="115" height="247">
<path d="M410.122 110.684H296.82V356.346H410.122V110.684Z" fill="white"/>
</mask>
<g mask="url(#mask0_2309_22547)">
<path fill-rule="evenodd" clip-rule="evenodd" d="M409.364 116.108C409.364 114.808 408.827 113.633 407.962 112.796C406.849 111.619 405.292 111.187 403.851 111.502H302.179C301.49 111.502 300.838 111.654 300.251 111.927C299.866 112.105 299.501 112.339 299.168 112.63C299.011 112.767 298.864 112.914 298.726 113.07C298.406 113.436 298.152 113.842 297.967 114.269C297.722 114.833 297.586 115.455 297.586 116.108C297.586 116.708 297.699 117.281 297.908 117.806C298.132 118.374 298.474 118.906 298.932 119.365L340.271 160.821C342.066 162.62 344.973 162.62 346.768 160.821C348.56 159.022 348.56 156.105 346.768 154.307L313.269 120.714H393.949L311.789 205.966C310.026 207.795 310.011 210.774 311.758 212.62C311.823 212.69 311.891 212.758 311.959 212.822C312.059 212.945 312.166 213.062 312.281 213.175L378.746 279.281L362.56 294.658C360.72 296.407 360.64 299.323 362.385 301.17C364.13 303.017 367.037 303.095 368.88 301.345L387.411 283.737C387.642 283.519 387.844 283.285 388.018 283.034C388.202 282.887 388.374 282.721 388.54 282.543C390.246 280.657 390.169 277.68 388.367 275.89L321.377 209.26L407.93 119.451C408.814 118.612 409.364 117.424 409.364 116.108ZM361.678 176.252C363.473 174.453 366.38 174.453 368.175 176.252L398.796 206.96C399.401 207.566 399.802 208.299 399.999 209.074C400.994 210.878 400.683 213.196 399.113 214.668L368.855 243.022C367.003 244.759 364.096 244.661 362.363 242.802C360.631 240.943 360.731 238.029 362.585 236.292L389.707 210.874L361.678 182.766C359.884 180.967 359.884 178.051 361.678 176.252ZM348.352 260.171C350.146 258.373 350.146 255.456 348.352 253.657C346.557 251.859 343.65 251.859 341.855 253.657L321.95 273.617C320.158 275.417 320.158 278.333 321.95 280.132C322.036 280.218 322.125 280.298 322.215 280.378C322.313 280.496 322.417 280.612 322.528 280.723L365.607 323.839L341.087 347.236C339.249 348.988 339.177 351.904 340.924 353.749C342.673 355.591 345.58 355.664 347.418 353.91L375.109 327.49C375.859 326.774 376.317 325.864 376.473 324.913C376.822 323.346 376.392 321.631 375.197 320.436L331.685 276.884L348.352 260.171ZM348.952 313.06C350.806 314.798 350.903 317.714 349.172 319.57L342.118 327.14L347.185 331.28C349.152 332.888 349.448 335.788 347.846 337.76C346.242 339.732 343.351 340.028 341.384 338.422L332.986 331.562C332.752 331.373 332.544 331.164 332.356 330.939L332.322 330.909C330.468 329.171 330.371 326.255 332.102 324.397L342.46 313.283C344.191 311.422 347.099 311.324 348.952 313.06ZM367.262 345.246C365.374 343.545 362.471 343.697 360.774 345.587C359.077 347.48 359.231 350.391 361.116 352.093L363.724 354.447C365.61 356.148 368.515 355.996 370.21 354.104C371.907 352.211 371.755 349.302 369.868 347.598L367.262 345.246Z" fill="url(#paint0_linear_2309_22547)" fill-opacity="0.05"/>
</g>
</g>
<defs>
<linearGradient id="paint0_linear_2309_22547" x1="353.498" y1="281.283" x2="353.498" y2="326.776" gradientUnits="userSpaceOnUse">
<stop stop-color="white"/>
<stop offset="1" stop-color="white" stop-opacity="0"/>
</linearGradient>
<clipPath id="clip0_2309_22547">
<rect width="707" height="323" fill="white"/>
</clipPath>
</defs>
</svg>
