<svg width="1237" height="567" viewBox="0 0 1237 567" fill="none" xmlns="http://www.w3.org/2000/svg">
<path d="M7.14062 339.174L30.8362 329.504V178.832L7.14062 169.162V142.646L103.781 141.086V169.162L80.0858 178.832V233.735H101.613L154.579 142.646L213.276 141.086V169.162L183.076 178.208L141.57 247.773L200.577 329.504L224.427 339.174V366.314H127.632V339.174L146.681 329.504L103.162 268.829H80.0858V329.504L103.781 339.174V366.314H7.14062V339.174Z" fill="white" fill-opacity="0.03"/>
<path d="M321.066 190.688C346.569 190.688 366.238 198.174 380.073 213.148C394.012 228.121 400.979 249.386 400.979 276.942C400.979 295.867 397.47 312.296 390.449 326.23C383.532 340.163 373.723 350.874 361.023 358.361C348.324 365.744 333.405 369.435 316.265 369.435C262.369 369.435 235.422 340.163 235.422 281.621C235.422 262.696 238.932 246.422 245.953 232.801C253.077 219.179 263.092 208.781 275.998 201.606C288.904 194.327 303.927 190.688 321.066 190.688ZM319.363 228.901C307.386 228.901 298.558 232.801 292.879 240.599C287.304 248.398 284.516 261.552 284.516 280.061C284.516 297.738 287.149 310.684 292.415 318.899C297.784 327.114 306.25 331.221 317.814 331.221C329.481 331.221 338.051 327.114 343.523 318.899C348.995 310.684 351.731 297.218 351.731 278.501C351.731 261.864 349.15 249.438 343.988 241.224C338.825 233.009 330.617 228.901 319.363 228.901Z" fill="white" fill-opacity="0.03"/>
<path d="M901.28 323.89C901.899 324.306 903.552 325.034 906.236 326.074C909.023 327.113 912.691 328.153 917.23 329.193C921.774 330.129 926.781 330.597 932.253 330.597C942.993 330.597 952.076 328.309 959.51 323.734C966.944 319.159 970.663 312.816 970.663 304.705C970.663 299.818 969.01 295.71 965.707 292.383C962.508 289.055 958.376 286.3 953.317 284.117C948.362 281.829 941.134 278.969 931.634 275.538C917.698 270.651 906.185 265.815 897.097 261.032C888.014 256.249 880.112 249.334 873.404 240.287C866.795 231.241 863.492 219.491 863.492 205.037C863.492 190.791 866.949 178.573 873.868 168.383C880.89 158.089 890.492 150.342 902.676 145.143C914.855 139.944 928.641 137.344 944.024 137.344C954.554 137.344 964.986 138.28 975.31 140.152C985.737 142.023 994.309 143.999 1001.02 146.078C1007.83 148.054 1012.12 149.406 1013.87 150.134L1012.17 208.156H983.053L975.155 181.017C974.327 180.809 972.523 180.341 969.735 179.613C966.944 178.885 963.487 178.157 959.356 177.429C955.228 176.598 951.2 176.182 947.279 176.182C936.539 176.182 928.229 178.314 922.341 182.577C916.457 186.84 913.515 192.299 913.515 198.954C913.515 205.817 916.663 211.224 922.963 215.175C929.362 219.023 939.429 223.39 953.163 228.277C967.103 233.164 978.561 237.948 987.545 242.627C996.628 247.306 1004.38 254.013 1010.77 262.748C1017.28 271.482 1020.53 282.661 1020.53 296.282C1020.53 311.88 1016.82 325.294 1009.38 336.524C1001.95 347.65 991.775 356.125 978.87 361.948C965.965 367.667 951.303 370.527 934.889 370.527C924.355 370.527 913.825 369.591 903.294 367.719C892.867 365.951 884.192 364.131 877.274 362.26C870.355 360.284 865.97 358.984 864.111 358.36V297.062H896.479L901.28 323.89Z" fill="white" fill-opacity="0.03"/>
<path d="M1150.01 345.571C1150.01 345.986 1147.27 348.326 1141.8 352.59C1136.33 356.853 1129.77 360.752 1122.13 364.288C1114.49 367.719 1106.64 369.435 1098.59 369.435C1083.1 369.435 1070.97 365.119 1062.2 356.489C1053.52 347.754 1049.19 335.38 1049.19 319.367C1049.19 301.066 1055.69 287.704 1068.7 279.281C1081.71 270.859 1100.65 266.648 1125.54 266.648H1147.84V249.022C1147.84 233.425 1139.68 225.678 1123.37 225.782C1118.52 225.782 1114.03 226.146 1109.9 226.874C1105.76 227.602 1102.46 228.381 1099.98 229.214C1097.61 229.941 1096.11 230.409 1095.49 230.617L1090.69 250.738H1062.2L1060.03 203.477C1061.89 202.854 1066.43 201.502 1073.66 199.422C1080.98 197.343 1089.71 195.367 1099.83 193.495C1110.05 191.623 1119.7 190.688 1128.79 190.688C1145.1 190.688 1158.06 192.767 1167.66 196.926C1177.26 200.982 1184.29 207.637 1188.73 216.891C1193.17 226.042 1195.39 238.364 1195.39 253.857V332.781L1219.24 338.552V364.132L1155.74 366.315L1150.01 345.571ZM1095.18 314.531C1095.18 320.77 1096.78 325.554 1099.98 328.881C1103.29 332.105 1107.93 333.716 1113.92 333.716C1118.98 333.716 1123.99 332.365 1128.95 329.661C1133.9 326.854 1138.08 323.994 1141.49 321.083C1144.9 318.067 1147.01 316.092 1147.84 315.156V293.787H1129.72C1117.43 293.787 1108.61 295.451 1103.23 298.778C1097.87 302.106 1095.18 307.357 1095.18 314.531Z" fill="white" fill-opacity="0.03"/>
<path d="M0.668672 417.219C9.63065 417.542 16.5922 417.702 21.5533 417.702C26.5144 417.702 33.4759 417.542 42.438 417.219C42.5978 417.862 42.6779 418.305 42.6779 418.548C42.6779 418.992 42.5978 419.495 42.438 420.058C40.5976 420.221 39.0971 420.401 37.9369 420.605C36.8166 420.764 35.4163 421.048 33.7359 421.451C32.0956 421.851 30.8353 422.438 29.9551 423.204C29.0749 423.927 28.6148 424.813 28.5748 425.864C28.0547 437.79 27.7946 448.807 27.7946 458.921H29.535L63.5626 425.864C64.0828 425.097 64.3428 424.514 64.3428 424.111C64.3428 423.344 64.1228 422.717 63.6827 422.234C63.2823 421.711 62.5222 421.328 61.4022 421.088C60.3218 420.804 59.2216 420.605 58.1011 420.481C57.0211 420.361 55.4008 420.221 53.2404 420.058C53.0802 419.335 53.0001 418.832 53.0001 418.548C53.0001 418.305 53.0802 417.862 53.2404 417.219C62.2824 417.542 68.2235 417.702 71.0643 417.702C73.0244 417.702 78.5259 417.542 87.5679 417.219C87.7277 417.862 87.8078 418.305 87.8078 418.548C87.8078 418.832 87.7277 419.335 87.5679 420.058C85.8476 420.221 84.4671 420.381 83.4267 420.545C82.4268 420.705 81.1264 420.988 79.5258 421.387C77.9657 421.751 76.4654 422.318 75.025 423.08C73.6247 423.807 72.2644 424.733 70.9441 425.864L39.9775 455.539L78.0858 494.582C84.4873 500.344 90.1085 503.347 94.9495 503.586C95.1096 504.233 95.1893 504.776 95.1893 505.22C95.1893 505.703 95.1096 506.146 94.9495 506.549C89.1483 506.226 82.7468 506.066 75.745 506.066C69.4637 506.066 61.8823 506.226 53.0001 506.549C52.8403 506.066 52.7602 505.583 52.7602 505.1C52.7602 504.577 52.8403 504.07 53.0001 503.586C56.8812 503.467 59.4416 503.123 60.6818 502.56C61.962 501.957 62.6023 500.927 62.6023 499.478C62.6023 498.955 62.4624 498.451 62.1821 497.968C61.9021 497.485 61.4022 496.858 60.6818 496.092C60.0018 495.289 59.5816 494.782 59.4214 494.582L30.1352 464L27.7946 464.12C27.7946 472.745 28.0147 483.965 28.4548 497.785C28.4948 498.835 28.9549 499.741 29.8351 500.504C30.7153 501.231 31.9755 501.794 33.6159 502.197C35.2963 502.6 36.6966 502.904 37.8168 503.103C38.9771 503.267 40.4775 503.427 42.3179 503.586C42.4777 504.07 42.5578 504.617 42.5578 505.22C42.5578 505.543 42.4777 505.946 42.3179 506.429C35.5163 506.186 28.5548 506.066 21.4333 506.066C14.2317 506.066 7.27012 506.186 0.548647 506.429C0.388611 505.946 0.308594 505.543 0.308594 505.22C0.308594 504.537 0.388611 503.99 0.548647 503.586C1.74891 503.467 2.70912 503.367 3.42928 503.287C4.14944 503.207 5.12964 503.063 6.36993 502.864C7.65022 502.66 8.67043 502.44 9.43059 502.197C10.2308 501.917 11.0509 501.574 11.8912 501.171C12.7313 500.767 13.3514 500.284 13.7516 499.721C14.1917 499.154 14.4117 498.511 14.4117 497.785C14.8918 485.175 15.1319 472.461 15.1319 459.648C15.1319 446.591 14.9318 435.331 14.5317 425.864C14.4917 424.813 14.0316 423.927 13.1514 423.204C12.2712 422.438 10.991 421.851 9.31058 421.451C7.67021 421.048 6.2699 420.764 5.10966 420.605C3.98942 420.401 2.50908 420.221 0.668672 420.058C0.508639 419.335 0.428619 418.832 0.428619 418.548C0.428619 418.145 0.508639 417.702 0.668672 417.219Z" fill="white" fill-opacity="0.03"/>
<path d="M127.356 451.129C131.317 451.129 134.878 451.832 138.039 453.241C141.239 454.655 143.96 456.607 146.201 459.107C148.441 461.602 150.162 464.605 151.362 468.111C152.562 471.577 153.162 475.366 153.162 479.475C153.162 487.856 150.822 494.664 146.141 499.903C141.5 505.182 135.238 507.821 127.356 507.821C123.436 507.821 119.875 507.134 116.674 505.765C113.514 504.355 110.813 502.402 108.572 499.903C106.332 497.363 104.592 494.365 103.351 490.899C102.151 487.433 101.551 483.624 101.551 479.475C101.551 475.366 102.151 471.577 103.351 468.111C104.552 464.605 106.252 461.602 108.452 459.107C110.693 456.607 113.414 454.655 116.614 453.241C119.815 451.832 123.396 451.129 127.356 451.129ZM127.356 455.058C123.276 455.058 120.015 457.05 117.574 461.039C115.174 465.028 113.974 471.174 113.974 479.475C113.974 487.776 115.174 493.921 117.574 497.91C120.015 501.855 123.276 503.832 127.356 503.832C131.437 503.832 134.678 501.835 137.079 497.846C139.519 493.858 140.739 487.736 140.739 479.475C140.739 475.322 140.42 471.717 139.779 468.654C139.139 465.591 138.239 463.056 137.079 461.039C135.918 459.027 134.518 457.534 132.878 456.567C131.238 455.561 129.397 455.058 127.356 455.058Z" fill="white" fill-opacity="0.03"/>
<path d="M164.503 419.154C172.105 418.432 178.846 416.779 184.727 414.199C185.808 414.642 186.508 415.185 186.828 415.832C186.828 461.484 186.988 488.804 187.308 497.788C187.348 498.634 187.588 499.401 188.028 500.084C188.508 500.731 189.028 501.254 189.589 501.657C190.149 502.02 190.909 502.364 191.869 502.683C192.829 502.967 193.57 503.166 194.089 503.29C194.65 503.37 195.39 503.47 196.31 503.59C196.55 504.073 196.67 504.58 196.67 505.103C196.67 505.626 196.55 506.069 196.31 506.433C191.029 506.189 185.908 506.069 180.947 506.069C176.066 506.069 170.984 506.189 165.703 506.433C165.543 505.786 165.463 505.342 165.463 505.103C165.463 504.899 165.543 504.396 165.703 503.59C167.024 503.43 168.084 503.27 168.884 503.106C169.724 502.907 170.764 502.603 172.005 502.2C173.285 501.797 174.245 501.234 174.885 500.507C175.526 499.744 175.865 498.838 175.905 497.788C176.066 493.799 176.146 484.875 176.146 471.015C176.146 464.606 176.125 455.882 176.085 444.841C176.045 433.805 176.026 427.013 176.026 424.473C173.745 423.143 169.904 422.321 164.503 421.997C164.303 421.474 164.203 420.991 164.203 420.548C164.203 420.145 164.303 419.682 164.503 419.154Z" fill="white" fill-opacity="0.03"/>
<path d="M221.996 440.849C222.396 440.689 222.856 440.609 223.377 440.609C223.896 440.609 224.437 440.689 224.997 440.849V454.086H243.181C243.421 454.693 243.541 455.435 243.541 456.322C243.541 457.088 243.421 457.795 243.181 458.438H224.997V490.713C224.997 497.082 227.898 500.264 233.699 500.264C235.899 500.264 237.78 499.841 239.34 498.994C240.94 498.148 242.701 496.878 244.621 495.185C245.621 495.309 246.281 495.792 246.602 496.639C244.841 499.821 242.241 502.48 238.8 504.616C235.359 506.753 231.578 507.819 227.458 507.819C217.775 507.819 212.934 501.917 212.934 490.11V458.438H205.553C205.393 457.715 205.312 457.252 205.312 457.048C205.312 457.008 205.393 456.545 205.553 455.659C207.473 454.693 208.934 453.906 209.933 453.303C210.974 452.656 212.274 451.75 213.834 450.58C215.435 449.414 216.875 448.044 218.155 446.471C219.476 444.862 220.756 442.985 221.996 440.849Z" fill="white" fill-opacity="0.03"/>
<path d="M258.725 466.358C258.725 461.926 260.725 458.28 264.726 455.417C268.767 452.558 273.528 451.129 279.009 451.129C285.73 451.129 290.452 452.479 293.172 455.178C295.933 457.877 297.313 462.429 297.313 468.838V493.921C297.313 496.177 298.133 497.303 299.774 497.303C301.094 497.303 302.774 495.694 304.815 492.468C306.255 492.592 307.235 493.235 307.755 494.405C307.475 494.808 306.995 495.531 306.315 496.581C305.635 497.627 305.135 498.374 304.815 498.817C304.495 499.26 303.994 499.943 303.314 500.869C302.634 501.756 302.074 502.422 301.634 502.866C301.234 503.309 300.674 503.832 299.954 504.435C299.274 505.042 298.633 505.505 298.033 505.824C297.473 506.108 296.813 506.351 296.053 506.551C295.293 506.795 294.533 506.915 293.772 506.915C291.772 506.915 290.111 506.188 288.791 504.738C287.511 503.289 286.751 501.053 286.511 498.03C286.471 498.07 285.851 498.653 284.65 499.783C283.45 500.909 282.61 501.676 282.13 502.079C281.69 502.442 280.829 503.105 279.549 504.072C278.309 505.002 277.249 505.665 276.368 506.068C275.488 506.471 274.388 506.855 273.068 507.218C271.748 507.617 270.447 507.821 269.167 507.821C267.126 507.821 265.306 507.537 263.705 506.974C262.145 506.411 260.925 505.725 260.045 504.918C259.165 504.115 258.445 503.185 257.884 502.139C257.324 501.053 256.944 500.063 256.744 499.176C256.584 498.29 256.504 497.403 256.504 496.517C256.504 493.818 256.944 491.542 257.824 489.689C258.744 487.836 260.425 486.103 262.865 484.49C265.346 482.881 268.387 481.447 271.987 480.198C275.588 478.952 280.429 477.538 286.511 475.969V467.568C286.511 463.499 285.61 460.456 283.81 458.44C282.05 456.428 279.669 455.417 276.669 455.417C273.988 455.417 271.727 455.964 269.887 457.05C268.086 458.097 266.986 459.326 266.586 460.736C270.507 461.343 272.468 463.499 272.468 467.205C272.468 468.898 271.867 470.387 270.667 471.677C269.467 472.966 267.786 473.613 265.626 473.613C263.826 473.613 262.225 472.986 260.825 471.737C259.425 470.447 258.725 468.654 258.725 466.358ZM286.511 492.468V479.838C282.83 480.685 279.789 481.611 277.389 482.617C274.988 483.584 273.148 484.654 271.867 485.82C270.627 486.99 269.767 488.2 269.287 489.445C268.807 490.655 268.567 492.065 268.567 493.678C268.567 495.694 269.147 497.283 270.307 498.453C271.507 499.579 272.967 500.146 274.688 500.146C278.689 500.146 282.63 497.587 286.511 492.468Z" fill="white" fill-opacity="0.03"/>
<path d="M352.585 503.59C356.106 503.23 357.866 502.28 357.866 500.751C357.866 499.864 357.426 498.878 356.546 497.788L340.162 476.633H337.221C337.221 486.264 337.342 493.316 337.581 497.788C337.581 498.838 337.842 499.744 338.362 500.507C338.922 501.234 339.722 501.797 340.762 502.2C341.842 502.603 342.723 502.907 343.403 503.106C344.123 503.27 345.063 503.43 346.223 503.59C346.464 504.073 346.583 504.58 346.583 505.103C346.583 505.626 346.464 506.069 346.223 506.433C340.942 506.189 335.941 506.069 331.22 506.069C326.339 506.069 321.258 506.189 315.977 506.433C315.817 505.786 315.737 505.342 315.737 505.103C315.737 504.899 315.817 504.396 315.977 503.59C317.297 503.43 318.357 503.27 319.158 503.106C319.998 502.907 321.038 502.603 322.278 502.2C323.559 501.797 324.519 501.234 325.159 500.507C325.799 499.744 326.139 498.838 326.179 497.788C326.339 493.799 326.399 481.229 326.359 460.074C326.319 438.88 326.299 427.013 326.299 424.473C324.018 423.143 320.178 422.321 314.777 421.997C314.576 421.474 314.477 420.991 314.477 420.548C314.477 420.145 314.576 419.682 314.777 419.154C322.378 418.432 329.12 416.779 335.001 414.199C336.081 414.642 336.781 415.185 337.101 415.832L337.221 472.768H340.342L352.465 461.16C353.225 460.274 353.605 459.368 353.605 458.441C353.605 456.748 351.705 455.702 347.904 455.299C347.744 454.656 347.664 454.213 347.664 453.969C347.664 453.606 347.744 453.103 347.904 452.46C353.105 452.699 357.246 452.823 360.327 452.823C363.687 452.823 367.948 452.699 373.11 452.46C373.269 452.943 373.349 453.366 373.349 453.73C373.349 453.969 373.269 454.492 373.11 455.299C369.549 455.702 366.608 456.305 364.288 457.112C361.967 457.878 359.867 459.228 357.986 461.16L348.444 470.891L369.569 497.788C371.969 500.93 375.57 502.867 380.371 503.59C380.531 504.396 380.611 504.939 380.611 505.223C380.611 505.546 380.531 505.949 380.371 506.433C375.21 506.189 370.549 506.069 366.388 506.069C362.347 506.069 357.746 506.189 352.585 506.433C352.425 505.786 352.345 505.303 352.345 504.983C352.345 504.7 352.425 504.236 352.585 503.59Z" fill="white" fill-opacity="0.03"/>
<path d="M411.1 451.129C415.061 451.129 418.621 451.832 421.781 453.241C424.98 454.655 427.704 456.607 429.944 459.107C432.184 461.602 433.905 464.605 435.102 468.111C436.304 471.577 436.906 475.366 436.906 479.475C436.906 487.856 434.563 494.664 429.885 499.903C425.242 505.182 418.982 507.821 411.1 507.821C407.179 507.821 403.618 507.134 400.415 505.765C397.255 504.355 394.555 502.402 392.315 499.903C390.074 497.363 388.334 494.365 387.093 490.899C385.893 487.433 385.293 483.624 385.293 479.475C385.293 475.366 385.893 471.577 387.093 468.111C388.294 464.605 389.994 461.602 392.195 459.107C394.435 456.607 397.156 454.655 400.355 453.241C403.559 451.832 407.139 451.129 411.1 451.129ZM411.1 455.058C407.016 455.058 403.757 457.05 401.315 461.039C398.916 465.028 397.715 471.174 397.715 479.475C397.715 487.776 398.916 493.921 401.315 497.91C403.757 501.855 407.016 503.832 411.1 503.832C415.18 503.832 418.419 501.835 420.821 497.846C423.26 493.858 424.481 487.736 424.481 479.475C424.481 475.322 424.16 471.717 423.521 468.654C422.883 465.591 421.983 463.056 420.821 461.039C419.66 459.027 418.26 457.534 416.619 456.567C414.981 455.561 413.138 455.058 411.1 455.058Z" fill="white" fill-opacity="0.03"/>
<path d="M442.066 452.457C447.347 452.697 452.668 452.82 458.032 452.82C462.552 452.82 467.393 452.697 472.555 452.457C472.713 453.1 472.793 453.603 472.793 453.966C472.793 454.21 472.713 454.653 472.555 455.296C471.433 455.376 470.513 455.48 469.791 455.599C469.113 455.679 468.253 455.839 467.214 456.083C466.172 456.322 465.391 456.686 464.871 457.169C464.352 457.652 464.09 458.239 464.09 458.922C464.09 459.285 464.253 460.032 464.574 461.158L475.493 491.68H475.854L488.636 461.158C489.076 460.072 489.298 459.205 489.298 458.562C489.298 456.706 486.998 455.619 482.395 455.296C482.237 454.653 482.157 454.21 482.157 453.966C482.157 453.603 482.237 453.1 482.395 452.457C487.078 452.697 489.976 452.82 491.098 452.82C494.46 452.82 498.718 452.697 503.88 452.457C504.039 452.94 504.122 453.363 504.122 453.727C504.122 453.966 504.039 454.489 503.88 455.296C499.119 455.5 495.879 457.452 494.159 461.158L473.633 507.819H470.691L452.509 461.158C452.109 460.112 451.51 459.225 450.709 458.498C449.948 457.736 448.949 457.149 447.708 456.745C446.506 456.302 445.567 456.003 444.889 455.839C444.247 455.679 443.307 455.5 442.066 455.296C441.907 454.973 441.828 454.529 441.828 453.966C441.828 453.363 441.907 452.86 442.066 452.457Z" fill="white" fill-opacity="0.03"/>
<path d="M513.181 466.358C513.181 461.926 515.183 458.28 519.184 455.417C523.224 452.558 527.986 451.129 533.465 451.129C540.189 451.129 544.911 452.479 547.631 455.178C550.39 457.877 551.77 462.429 551.77 468.838V493.921C551.77 496.177 552.591 497.303 554.232 497.303C555.552 497.303 557.233 495.694 559.271 492.468C560.714 492.592 561.694 493.235 562.213 494.405C561.932 494.808 561.452 495.531 560.774 496.581C560.092 497.627 559.592 498.374 559.271 498.817C558.954 499.26 558.451 499.943 557.773 500.869C557.091 501.756 556.532 502.422 556.092 502.866C555.691 503.309 555.132 503.832 554.411 504.435C553.733 505.042 553.09 505.505 552.492 505.824C551.933 506.108 551.27 506.351 550.509 506.551C549.752 506.795 548.991 506.915 548.23 506.915C546.231 506.915 544.57 506.188 543.25 504.738C541.969 503.289 541.208 501.053 540.97 498.03C540.926 498.07 540.308 498.653 539.107 499.783C537.909 500.909 537.069 501.676 536.589 502.079C536.149 502.442 535.289 503.105 534.008 504.072C532.767 505.002 531.704 505.665 530.824 506.068C529.944 506.471 528.846 506.855 527.526 507.218C526.205 507.617 524.905 507.821 523.624 507.821C521.582 507.821 519.763 507.537 518.165 506.974C516.603 506.411 515.382 505.725 514.501 504.918C513.621 504.115 512.904 503.185 512.341 502.139C511.782 501.053 511.401 500.063 511.203 499.176C511.04 498.29 510.961 497.403 510.961 496.517C510.961 493.818 511.401 491.542 512.281 489.689C513.201 487.836 514.882 486.103 517.324 484.49C519.802 482.881 522.843 481.447 526.443 480.198C530.047 478.952 534.888 477.538 540.97 475.969V467.568C540.97 463.499 540.07 460.456 538.266 458.44C536.506 456.428 534.127 455.417 531.126 455.417C528.445 455.417 526.186 455.964 524.346 457.05C522.546 458.097 521.444 459.326 521.043 460.736C524.964 461.343 526.927 463.499 526.927 467.205C526.927 468.898 526.324 470.387 525.123 471.677C523.926 472.966 522.245 473.613 520.084 473.613C518.284 473.613 516.682 472.986 515.282 471.737C513.883 470.447 513.181 468.654 513.181 466.358ZM540.97 492.468V479.838C537.287 480.685 534.246 481.611 531.847 482.617C529.445 483.584 527.605 484.654 526.324 485.82C525.083 486.99 524.223 488.2 523.743 489.445C523.264 490.655 523.026 492.065 523.026 493.678C523.026 495.694 523.604 497.283 524.766 498.453C525.964 499.579 527.426 500.146 529.147 500.146C533.148 500.146 537.089 497.587 540.97 492.468Z" fill="white" fill-opacity="0.03"/>
<path d="M755.394 442.786C753.875 435.411 751.072 429.689 746.993 425.62C742.953 421.551 738.092 419.515 732.41 419.515C726.848 419.515 722.526 420.845 719.446 423.504C716.405 426.163 714.886 429.709 714.886 434.141C714.886 436.601 715.104 438.633 715.544 440.246C715.984 441.86 716.884 443.429 718.244 444.962C719.608 446.451 721.587 447.781 724.187 448.951C726.788 450.077 730.19 451.167 734.389 452.213C736.668 452.776 738.651 453.303 740.332 453.787C742.053 454.27 743.932 454.933 745.974 455.779C748.051 456.626 749.831 457.532 751.314 458.498C752.833 459.469 754.335 460.674 755.814 462.128C757.333 463.537 758.554 465.107 759.474 466.84C760.437 468.572 761.194 470.629 761.757 473.005C762.356 475.341 762.657 477.9 762.657 480.683C762.657 484.389 761.975 487.815 760.616 490.957C759.256 494.06 757.475 496.679 755.275 498.815C753.075 500.947 750.533 502.764 747.651 504.254C744.772 505.743 741.85 506.833 738.889 507.516C735.931 508.203 732.989 508.546 730.067 508.546C721.186 508.546 711.726 506.226 701.684 501.594C701.882 497.242 701.981 494.563 701.981 493.556C701.981 486.988 701.442 480.44 700.363 473.911C700.803 473.632 701.243 473.488 701.684 473.488C702.243 473.488 702.742 473.632 703.182 473.911C704.023 479.11 705.403 483.702 707.325 487.691C709.284 491.68 711.524 494.846 714.046 497.182C716.567 499.478 719.168 501.211 721.848 502.381C724.568 503.507 727.308 504.07 730.067 504.07C736.351 504.07 741.172 502.441 744.531 499.175C747.932 495.872 749.633 491.52 749.633 486.122C749.633 480.683 748.372 476.59 745.851 473.851C743.373 471.072 738.611 468.816 731.57 467.083C722.768 464.867 715.885 461.601 710.925 457.292C706.005 452.94 703.543 447.198 703.543 440.067C703.543 436.317 704.142 432.975 705.343 430.032C706.584 427.05 708.162 424.674 710.085 422.901C712.043 421.088 714.327 419.595 716.924 418.429C719.525 417.219 722.086 416.393 724.608 415.949C727.169 415.466 729.77 415.227 732.41 415.227C740.332 415.227 748.575 417.079 757.134 420.785C756.893 423.161 756.774 425.64 756.774 428.22C756.774 434.265 757.253 439.12 758.217 442.786C757.694 442.986 757.253 443.089 756.893 443.089C756.496 443.089 755.993 442.986 755.394 442.786Z" fill="white" fill-opacity="0.03"/>
<path d="M780.244 466.358C780.244 461.926 782.242 458.28 786.242 455.417C790.286 452.558 795.044 451.129 800.527 451.129C807.248 451.129 811.97 452.479 814.689 455.178C817.449 457.877 818.833 462.429 818.833 468.838V493.921C818.833 496.177 819.649 497.303 821.291 497.303C822.611 497.303 824.292 495.694 826.334 492.468C827.773 492.592 828.752 493.235 829.272 494.405C828.994 494.808 828.514 495.531 827.833 496.581C827.155 497.627 826.651 498.374 826.334 498.817C826.013 499.26 825.513 499.943 824.831 500.869C824.153 501.756 823.59 502.422 823.15 502.866C822.754 503.309 822.191 503.832 821.473 504.435C820.791 505.042 820.153 505.505 819.55 505.824C818.991 506.108 818.329 506.351 817.572 506.551C816.811 506.795 816.049 506.915 815.292 506.915C813.29 506.915 811.629 506.188 810.308 504.738C809.028 503.289 808.27 501.053 808.029 498.03C807.989 498.07 807.367 498.653 806.169 499.783C804.968 500.909 804.127 501.676 803.648 502.079C803.207 502.442 802.347 503.105 801.067 504.072C799.826 505.002 798.767 505.665 797.887 506.068C797.007 506.471 795.904 506.855 794.584 507.218C793.264 507.617 791.963 507.821 790.683 507.821C788.645 507.821 786.825 507.537 785.223 506.974C783.661 506.411 782.444 505.725 781.564 504.918C780.684 504.115 779.962 503.185 779.403 502.139C778.84 501.053 778.464 500.063 778.261 499.176C778.103 498.29 778.023 497.403 778.023 496.517C778.023 493.818 778.463 491.542 779.344 489.689C780.263 487.836 781.945 486.103 784.383 484.49C786.865 482.881 789.906 481.447 793.506 480.198C797.106 478.952 801.947 477.538 808.029 475.969V467.568C808.029 463.499 807.129 460.456 805.329 458.44C803.568 456.428 801.185 455.417 798.188 455.417C795.504 455.417 793.244 455.964 791.404 457.05C789.604 458.097 788.502 459.326 788.106 460.736C792.027 461.343 793.985 463.499 793.985 467.205C793.985 468.898 793.387 470.387 792.186 471.677C790.984 472.966 789.303 473.613 787.142 473.613C785.342 473.613 783.745 472.986 782.341 471.737C780.942 470.447 780.244 468.654 780.244 466.358ZM808.029 492.468V479.838C804.349 480.685 801.308 481.611 798.906 482.617C796.507 483.584 794.667 484.654 793.387 485.82C792.146 486.99 791.286 488.2 790.806 489.445C790.326 490.655 790.084 492.065 790.084 493.678C790.084 495.694 790.663 497.283 791.825 498.453C793.026 499.579 794.485 500.146 796.206 500.146C800.206 500.146 804.147 497.587 808.029 492.468Z" fill="white" fill-opacity="0.03"/>
<path d="M836.29 419.154C843.894 418.432 850.634 416.779 856.514 414.199C857.596 414.642 858.298 415.185 858.615 415.832C858.615 461.484 858.778 488.804 859.095 497.788C859.134 498.634 859.376 499.401 859.816 500.084C860.296 500.731 860.815 501.254 861.378 501.657C861.937 502.02 862.699 502.364 863.658 502.683C864.618 502.967 865.359 503.166 865.878 503.29C866.437 503.37 867.179 503.47 868.099 503.59C868.337 504.073 868.46 504.58 868.46 505.103C868.46 505.626 868.337 506.069 868.099 506.433C862.818 506.189 857.695 506.069 852.735 506.069C847.855 506.069 842.772 506.189 837.491 506.433C837.332 505.786 837.253 505.342 837.253 505.103C837.253 504.899 837.332 504.396 837.491 503.59C838.811 503.43 839.874 503.27 840.671 503.106C841.511 502.907 842.554 502.603 843.791 502.2C845.071 501.797 846.035 501.234 846.673 500.507C847.312 499.744 847.653 498.838 847.692 497.788C847.855 493.799 847.934 484.875 847.934 471.015C847.934 464.606 847.914 455.882 847.875 444.841C847.835 433.805 847.815 427.013 847.815 424.473C845.531 423.143 841.694 422.321 836.29 421.997C836.091 421.474 835.992 420.991 835.992 420.548C835.992 420.145 836.091 419.682 836.29 419.154Z" fill="white" fill-opacity="0.03"/>
<path d="M882.38 466.358C882.38 461.926 884.383 458.28 888.383 455.417C892.423 452.558 897.185 451.129 902.668 451.129C909.388 451.129 914.11 452.479 916.83 455.178C919.59 457.877 920.969 462.429 920.969 468.838V493.921C920.969 496.177 921.79 497.303 923.431 497.303C924.752 497.303 926.433 495.694 928.471 492.468C929.914 492.592 930.893 493.235 931.412 494.405C931.131 494.808 930.651 495.531 929.973 496.581C929.291 497.627 928.792 498.374 928.471 498.817C928.153 499.26 927.654 499.943 926.972 500.869C926.29 501.756 925.731 502.422 925.291 502.866C924.89 503.309 924.331 503.832 923.61 504.435C922.932 505.042 922.29 505.505 921.691 505.824C921.132 506.108 920.47 506.351 919.709 506.551C918.951 506.795 918.19 506.915 917.429 506.915C915.431 506.915 913.769 506.188 912.449 504.738C911.168 503.289 910.407 501.053 910.169 498.03C910.13 498.07 909.507 498.653 908.306 499.783C907.109 500.909 906.268 501.676 905.788 502.079C905.348 502.442 904.488 503.105 903.207 504.072C901.966 505.002 900.908 505.665 900.027 506.068C899.147 506.471 898.045 506.855 896.725 507.218C895.405 507.617 894.104 507.821 892.824 507.821C890.786 507.821 888.962 507.537 887.364 506.974C885.802 506.411 884.581 505.725 883.701 504.918C882.821 504.115 882.103 503.185 881.54 502.139C880.981 501.053 880.6 500.063 880.402 499.176C880.239 498.29 880.16 497.403 880.16 496.517C880.16 493.818 880.6 491.542 881.48 489.689C882.4 487.836 884.081 486.103 886.524 484.49C889.002 482.881 892.043 481.447 895.646 480.198C899.246 478.952 904.087 477.538 910.169 475.969V467.568C910.169 463.499 909.269 460.456 907.469 458.44C905.709 456.428 903.326 455.417 900.325 455.417C897.645 455.417 895.385 455.964 893.545 457.05C891.745 458.097 890.643 459.326 890.242 460.736C894.164 461.343 896.126 463.499 896.126 467.205C896.126 468.898 895.524 470.387 894.326 471.677C893.125 472.966 891.444 473.613 889.283 473.613C887.483 473.613 885.881 472.986 884.482 471.737C883.082 470.447 882.38 468.654 882.38 466.358ZM910.169 492.468V479.838C906.486 480.685 903.445 481.611 901.046 482.617C898.644 483.584 896.804 484.654 895.524 485.82C894.283 486.99 893.426 488.2 892.942 489.445C892.463 490.655 892.225 492.065 892.225 493.678C892.225 495.694 892.804 497.283 893.965 498.453C895.163 499.579 896.626 500.146 898.346 500.146C902.347 500.146 906.288 497.587 910.169 492.468Z" fill="white" fill-opacity="0.03"/>
<path d="M1010.21 503.588C1011.21 503.429 1012.03 503.269 1012.67 503.105C1013.35 502.906 1014.09 502.602 1014.89 502.199C1015.69 501.796 1016.29 501.233 1016.69 500.506C1017.09 499.743 1017.29 498.837 1017.29 497.787L1017.41 469.077C1017.41 461.786 1015.25 458.141 1010.93 458.141C1008.77 458.141 1006.43 458.823 1003.91 460.193C1001.39 461.562 998.371 463.619 994.85 466.358V467.085L995.33 497.787C995.37 498.837 995.667 499.743 996.23 500.506C996.829 501.233 997.669 501.796 998.748 502.199C999.83 502.602 1000.73 502.906 1001.45 503.105C1002.17 503.269 1003.11 503.429 1004.27 503.588C1004.43 504.395 1004.51 504.938 1004.51 505.221C1004.51 505.545 1004.43 505.948 1004.27 506.431C999.109 506.188 994.41 506.068 990.168 506.068C986.287 506.068 981.767 506.188 976.605 506.431C976.446 505.785 976.363 505.301 976.363 504.982C976.363 504.698 976.446 504.235 976.605 503.588C977.604 503.429 978.444 503.269 979.126 503.105C979.804 502.906 980.546 502.602 981.347 502.199C982.147 501.796 982.746 501.233 983.147 500.506C983.547 499.743 983.745 498.837 983.745 497.787L983.868 469.077C983.868 461.786 981.707 458.141 977.386 458.141C975.225 458.141 972.925 458.803 970.483 460.133C968.084 461.463 965.063 463.499 961.42 466.238C961.42 478.045 961.582 488.559 961.903 497.787C961.943 498.837 962.221 499.743 962.74 500.506C963.263 501.233 964.001 501.796 964.96 502.199C965.963 502.602 966.824 502.906 967.541 503.105C968.263 503.269 969.163 503.429 970.245 503.588C970.483 504.072 970.602 504.579 970.602 505.102C970.602 505.505 970.483 505.948 970.245 506.431C964.96 506.188 960.04 506.068 955.481 506.068C950.6 506.068 945.517 506.188 940.236 506.431C940.078 505.785 939.998 505.341 939.998 505.102C939.998 504.898 940.078 504.395 940.236 503.588C941.556 503.429 942.639 503.269 943.479 503.105C944.316 502.906 945.359 502.602 946.6 502.199C947.837 501.796 948.78 501.233 949.418 500.506C950.061 499.743 950.398 498.837 950.437 497.787C950.6 493.798 950.679 488.962 950.679 483.28C950.679 481.388 950.659 478.165 950.62 473.613C950.58 469.057 950.56 465.068 950.56 461.646C948.277 460.233 944.439 459.406 939.035 459.167C938.876 458.52 938.797 458.017 938.797 457.653C938.797 457.414 938.876 456.971 939.035 456.324C946.798 455.521 953.562 453.868 959.322 451.368C960.321 451.772 961.023 452.295 961.42 452.942V462.489C963.303 460.756 964.881 459.366 966.162 458.32C967.442 457.234 969.004 456.064 970.844 454.814C972.723 453.565 974.583 452.638 976.426 452.035C978.306 451.428 980.224 451.129 982.187 451.129C986.108 451.129 989.026 452.075 990.949 453.968C992.868 455.821 994.069 458.743 994.549 462.732C996.591 460.88 998.209 459.45 999.41 458.44C1000.65 457.434 1002.25 456.264 1004.21 454.934C1006.17 453.605 1008.09 452.638 1009.97 452.035C1011.85 451.428 1013.77 451.129 1015.73 451.129C1020.25 451.129 1023.48 452.419 1025.39 454.994C1027.32 457.574 1028.32 461.602 1028.4 467.085L1028.99 497.787C1029.03 498.837 1029.34 499.743 1029.89 500.506C1030.5 501.233 1031.34 501.796 1032.42 502.199C1033.5 502.602 1034.4 502.906 1035.12 503.105C1035.84 503.269 1036.78 503.429 1037.94 503.588C1038.14 504.599 1038.24 505.142 1038.24 505.221C1038.24 505.425 1038.14 505.824 1037.94 506.431C1032.78 506.188 1028.04 506.068 1023.71 506.068C1019.88 506.068 1015.37 506.188 1010.21 506.431C1010.01 505.625 1009.91 505.142 1009.91 504.982C1009.91 504.858 1010.01 504.395 1010.21 503.588Z" fill="white" fill-opacity="0.03"/>
<path d="M1074.49 451.129C1078.45 451.129 1082.01 451.832 1085.17 453.241C1088.37 454.655 1091.09 456.607 1093.33 459.107C1095.57 461.602 1097.29 464.605 1098.49 468.111C1099.69 471.577 1100.29 475.366 1100.29 479.475C1100.29 487.856 1097.95 494.664 1093.27 499.903C1088.63 505.182 1082.37 507.821 1074.49 507.821C1070.57 507.821 1067 507.134 1063.81 505.765C1060.64 504.355 1057.94 502.402 1055.7 499.903C1053.46 497.363 1051.72 494.365 1050.48 490.899C1049.28 487.433 1048.68 483.624 1048.68 479.475C1048.68 475.366 1049.28 471.577 1050.48 468.111C1051.68 464.605 1053.38 461.602 1055.58 459.107C1057.82 456.607 1060.54 454.655 1063.75 453.241C1066.95 451.832 1070.53 451.129 1074.49 451.129ZM1074.49 455.058C1070.41 455.058 1067.14 457.05 1064.71 461.039C1062.3 465.028 1061.11 471.174 1061.11 479.475C1061.11 487.776 1062.3 493.921 1064.71 497.91C1067.14 501.855 1070.41 503.832 1074.49 503.832C1078.57 503.832 1081.81 501.835 1084.21 497.846C1086.65 493.858 1087.87 487.736 1087.87 479.475C1087.87 475.322 1087.55 471.717 1086.91 468.654C1086.27 465.591 1085.37 463.056 1084.21 461.039C1083.05 459.027 1081.65 457.534 1080.01 456.567C1078.37 455.561 1076.53 455.058 1074.49 455.058Z" fill="white" fill-opacity="0.03"/>
<path d="M1105.45 452.457C1110.73 452.697 1116.05 452.82 1121.41 452.82C1125.93 452.82 1130.78 452.697 1135.94 452.457C1136.1 453.1 1136.18 453.603 1136.18 453.966C1136.18 454.21 1136.1 454.653 1135.94 455.296C1134.82 455.376 1133.9 455.48 1133.18 455.599C1132.5 455.679 1131.64 455.839 1130.6 456.083C1129.55 456.322 1128.78 456.686 1128.26 457.169C1127.73 457.652 1127.48 458.239 1127.48 458.922C1127.48 459.285 1127.64 460.032 1127.96 461.158L1138.88 491.68H1139.24L1152.02 461.158C1152.46 460.072 1152.68 459.205 1152.68 458.562C1152.68 456.706 1150.38 455.619 1145.78 455.296C1145.62 454.653 1145.54 454.21 1145.54 453.966C1145.54 453.603 1145.62 453.1 1145.78 452.457C1150.46 452.697 1153.36 452.82 1154.48 452.82C1157.84 452.82 1162.11 452.697 1167.26 452.457C1167.43 452.94 1167.5 453.363 1167.5 453.727C1167.5 453.966 1167.43 454.489 1167.26 455.296C1162.51 455.5 1159.26 457.452 1157.54 461.158L1137.02 507.819H1134.08L1115.89 461.158C1115.49 460.112 1114.89 459.225 1114.09 458.498C1113.33 457.736 1112.33 457.149 1111.09 456.745C1109.89 456.302 1108.95 456.003 1108.27 455.839C1107.63 455.679 1106.69 455.5 1105.45 455.296C1105.29 454.973 1105.21 454.529 1105.21 453.966C1105.21 453.363 1105.29 452.86 1105.45 452.457Z" fill="white" fill-opacity="0.03"/>
<path d="M1176.57 466.358C1176.57 461.926 1178.57 458.28 1182.57 455.417C1186.61 452.558 1191.37 451.129 1196.85 451.129C1203.57 451.129 1208.29 452.479 1211.01 455.178C1213.77 457.877 1215.15 462.429 1215.15 468.838V493.921C1215.15 496.177 1215.97 497.303 1217.61 497.303C1218.94 497.303 1220.62 495.694 1222.66 492.468C1224.1 492.592 1225.08 493.235 1225.6 494.405C1225.32 494.808 1224.84 495.531 1224.16 496.581C1223.47 497.627 1222.98 498.374 1222.66 498.817C1222.34 499.26 1221.84 499.943 1221.16 500.869C1220.48 501.756 1219.91 502.422 1219.47 502.866C1219.07 503.309 1218.51 503.832 1217.79 504.435C1217.12 505.042 1216.47 505.505 1215.87 505.824C1215.32 506.108 1214.65 506.351 1213.9 506.551C1213.13 506.795 1212.37 506.915 1211.61 506.915C1209.61 506.915 1207.95 506.188 1206.63 504.738C1205.35 503.289 1204.59 501.053 1204.35 498.03C1204.31 498.07 1203.69 498.653 1202.49 499.783C1201.29 500.909 1200.45 501.676 1199.97 502.079C1199.53 502.442 1198.67 503.105 1197.39 504.072C1196.15 505.002 1195.09 505.665 1194.21 506.068C1193.33 506.471 1192.23 506.855 1190.91 507.218C1189.59 507.617 1188.29 507.821 1187.01 507.821C1184.97 507.821 1183.15 507.537 1181.55 506.974C1179.99 506.411 1178.77 505.725 1177.89 504.918C1177.01 504.115 1176.29 503.185 1175.73 502.139C1175.16 501.053 1174.79 500.063 1174.59 499.176C1174.43 498.29 1174.35 497.403 1174.35 496.517C1174.35 493.818 1174.79 491.542 1175.67 489.689C1176.59 487.836 1178.26 486.103 1180.71 484.49C1183.19 482.881 1186.23 481.447 1189.83 480.198C1193.43 478.952 1198.27 477.538 1204.35 475.969V467.568C1204.35 463.499 1203.45 460.456 1201.65 458.44C1199.89 456.428 1197.51 455.417 1194.51 455.417C1191.83 455.417 1189.57 455.964 1187.73 457.05C1185.93 458.097 1184.83 459.326 1184.43 460.736C1188.35 461.343 1190.31 463.499 1190.31 467.205C1190.31 468.898 1189.71 470.387 1188.51 471.677C1187.31 472.966 1185.63 473.613 1183.47 473.613C1181.67 473.613 1180.07 472.986 1178.67 471.737C1177.27 470.447 1176.57 468.654 1176.57 466.358ZM1204.35 492.468V479.838C1200.67 480.685 1197.63 481.611 1195.23 482.617C1192.83 483.584 1190.99 484.654 1189.71 485.82C1188.47 486.99 1187.61 488.2 1187.13 489.445C1186.65 490.655 1186.41 492.065 1186.41 493.678C1186.41 495.694 1186.99 497.283 1188.15 498.453C1189.35 499.579 1190.81 500.146 1192.53 500.146C1196.53 500.146 1200.47 497.587 1204.35 492.468Z" fill="white" fill-opacity="0.03"/>
<mask id="mask0_2331_22767" style="mask-type:luminance" maskUnits="userSpaceOnUse" x="519" y="135" width="199" height="432">
<path d="M717.569 135.762H519.332V567.001H717.569V135.762Z" fill="white"/>
</mask>
<g mask="url(#mask0_2331_22767)">
<path fill-rule="evenodd" clip-rule="evenodd" d="M716.245 145.284C716.245 143.001 715.305 140.94 713.791 139.469C711.844 137.404 709.12 136.646 706.598 137.198H528.708C527.503 137.198 526.361 137.465 525.334 137.944C524.66 138.257 524.022 138.668 523.439 139.179C523.166 139.418 522.908 139.676 522.666 139.951C522.107 140.594 521.663 141.305 521.338 142.056C520.91 143.045 520.672 144.137 520.672 145.284C520.672 146.337 520.87 147.343 521.235 148.265C521.627 149.262 522.226 150.196 523.027 151.002L595.356 223.773C598.496 226.931 603.583 226.931 606.723 223.773C609.859 220.616 609.859 215.496 606.723 212.338L548.112 153.37H689.273L545.523 303.022C542.438 306.233 542.411 311.463 545.467 314.704C545.582 314.826 545.701 314.945 545.82 315.058C545.995 315.272 546.181 315.479 546.383 315.678L662.673 431.721L634.353 458.713C631.134 461.784 630.995 466.903 634.048 470.145C637.101 473.388 642.187 473.523 645.411 470.453L677.834 439.543C678.239 439.16 678.592 438.749 678.897 438.309C679.218 438.05 679.519 437.758 679.809 437.447C682.794 434.137 682.659 428.91 679.507 425.768L562.298 308.805L713.735 151.152C715.281 149.679 716.245 147.595 716.245 145.284ZM632.811 250.862C635.951 247.704 641.038 247.704 644.178 250.862L697.753 304.767C698.812 305.831 699.514 307.118 699.858 308.478C701.599 311.645 701.056 315.713 698.308 318.298L645.367 368.072C642.128 371.121 637.041 370.948 634.008 367.685C630.979 364.422 631.153 359.306 634.397 356.257L681.851 311.637L632.811 262.297C629.671 259.139 629.671 254.019 632.811 250.862ZM609.494 398.175C612.634 395.018 612.634 389.898 609.494 386.74C606.354 383.583 601.267 383.583 598.127 386.74L563.301 421.779C560.165 424.937 560.165 430.056 563.301 433.214C563.451 433.366 563.606 433.506 563.765 433.646C563.935 433.853 564.117 434.057 564.312 434.253L639.686 509.939L596.783 551.011C593.568 554.085 593.441 559.204 596.498 562.443C599.558 565.677 604.645 565.805 607.861 562.726L656.31 516.348C657.622 515.09 658.423 513.493 658.697 511.824C659.307 509.073 658.554 506.062 656.464 503.966L580.333 427.513L609.494 398.175ZM610.545 491.017C613.788 494.067 613.958 499.186 610.929 502.444L598.587 515.733L607.452 523C610.894 525.823 611.413 530.914 608.61 534.376C605.803 537.838 600.744 538.357 597.302 535.538L582.609 523.495C582.201 523.164 581.836 522.796 581.507 522.401L581.447 522.349C578.204 519.299 578.034 514.18 581.063 510.917L599.186 491.408C602.215 488.142 607.302 487.97 610.545 491.017ZM642.58 547.517C639.277 544.53 634.198 544.798 631.229 548.116C628.259 551.438 628.529 556.549 631.827 559.536L636.391 563.668C639.69 566.655 644.772 566.388 647.738 563.065C650.708 559.743 650.442 554.636 647.139 551.646L642.58 547.517Z" fill="url(#paint0_linear_2331_22767)" fill-opacity="0.03"/>
</g>
<defs>
<linearGradient id="paint0_linear_2331_22767" x1="618.498" y1="435.235" x2="618.498" y2="515.094" gradientUnits="userSpaceOnUse">
<stop stop-color="white"/>
<stop offset="1" stop-color="white" stop-opacity="0"/>
</linearGradient>
</defs>
</svg>
