<svg width="50" height="50" viewBox="0 0 50 50" fill="none" xmlns="http://www.w3.org/2000/svg">
<path d="M37.5 20.3125H34.375C34.3738 19.0697 33.8795 17.8781 33.0007 16.9993C32.1219 16.1205 30.9303 15.6262 29.6875 15.625V12.5C31.7587 12.5025 33.7444 13.3264 35.209 14.791C36.6736 16.2556 37.4975 18.2413 37.5 20.3125V20.3125Z" fill="white"/>
<path d="M43.7485 20.3125H40.6235C40.6202 17.4127 39.4668 14.6326 37.4163 12.5822C35.3659 10.5317 32.5858 9.37832 29.686 9.37501V6.25001C33.4143 6.25415 36.9888 7.73706 39.6251 10.3734C42.2615 13.0097 43.7444 16.5842 43.7485 20.3125V20.3125ZM31.7688 33.5656L35.2688 30.0656C35.7373 29.597 36.333 29.2762 36.9821 29.1429C37.6312 29.0096 38.3051 29.0696 38.9204 29.3156L43.1829 31.0219C43.8111 31.2733 44.3496 31.7071 44.729 32.2675C45.1083 32.8278 45.311 33.489 45.311 34.1656V41.9172C45.3121 42.3779 45.2192 42.834 45.0379 43.2576C44.8566 43.6811 44.5908 44.0632 44.2567 44.3805C43.9226 44.6978 43.5273 44.9435 43.0949 45.1027C42.6626 45.2619 42.2023 45.3311 41.7423 45.3063C11.8641 43.4469 5.82975 18.1406 4.70944 8.45001C4.65518 7.97626 4.70184 7.49638 4.84634 7.04195C4.99084 6.58751 5.22991 6.16882 5.54783 5.81341C5.86575 5.458 6.25532 5.17393 6.6909 4.97987C7.12648 4.78582 7.59821 4.68618 8.07507 4.68751H15.6891C16.3658 4.68749 17.027 4.89022 17.5873 5.26954C18.1477 5.64887 18.5815 6.18739 18.8329 6.81564L20.5376 11.0781C20.7836 11.6934 20.8436 12.3673 20.7103 13.0164C20.577 13.6655 20.2562 14.2612 19.7876 14.7297L16.2876 18.2297C16.2876 18.2297 18.2282 31.8735 31.7688 33.5656Z" fill="white"/>
</svg>
