<svg width="60" height="60" viewBox="0 0 60 60" fill="none" xmlns="http://www.w3.org/2000/svg">
<path d="M47.25 23.8438H42.8125C42.8107 22.0789 42.1089 20.3869 40.861 19.139C39.6131 17.8911 37.9211 17.1893 36.1562 17.1875V12.75C39.0974 12.7535 41.9171 13.9235 43.9968 16.0032C46.0765 18.0829 47.2465 20.9026 47.25 23.8438V23.8438Z" fill="#0497F8"/>
<path d="M56.1268 23.8438H51.6893C51.6846 19.7261 50.0468 15.7784 47.1351 12.8667C44.2234 9.95505 40.2757 8.31722 36.158 8.31252V3.87502C41.4523 3.88089 46.528 5.98662 50.2716 9.73022C54.0152 13.4738 56.1209 18.5495 56.1268 23.8438V23.8438ZM39.1156 42.6632L44.0856 37.6932C44.7509 37.0278 45.5968 36.5722 46.5185 36.3829C47.4402 36.1936 48.3972 36.2789 49.2708 36.6282L55.3236 39.0511C56.2157 39.408 56.9804 40.0241 57.519 40.8198C58.0577 41.6155 58.3456 42.5543 58.3455 43.5152V54.5224C58.3471 55.1766 58.2151 55.8243 57.9577 56.4258C57.7003 57.0272 57.3228 57.5698 56.8484 58.0203C56.374 58.4708 55.8127 58.8198 55.1987 59.0458C54.5848 59.2718 53.9312 59.3702 53.2779 59.3349C10.851 56.6946 2.28216 20.7597 0.691312 6.99902C0.614263 6.32628 0.680513 5.64486 0.885705 4.99957C1.0909 4.35427 1.43038 3.75973 1.88183 3.25505C2.33328 2.75037 2.88646 2.34698 3.50498 2.07142C4.12351 1.79586 4.79337 1.65438 5.4705 1.65627H16.2825C17.2433 1.65624 18.1822 1.94411 18.9779 2.48275C19.7736 3.02139 20.3896 3.78609 20.7466 4.67821L23.1673 10.731C23.5166 11.6046 23.6019 12.5616 23.4126 13.4833C23.2233 14.405 22.7677 15.2509 22.1023 15.9162L17.1322 20.8862C17.1322 20.8862 19.8879 40.2603 39.1156 42.6632Z" fill="#0497F8"/>
</svg>
