<svg width="60" height="60" viewBox="0 0 60 60" fill="none" xmlns="http://www.w3.org/2000/svg">
<g clip-path="url(#clip0_2330_22631)">
<path d="M30 0C22.0453 0 14.4094 3.16266 8.78906 8.78672C3.16295 14.413 0.00155845 22.0433 0 30C0 37.9533 3.16406 45.5892 8.78906 51.2133C14.4094 56.8373 22.0453 60 30 60C37.9547 60 45.5906 56.8373 51.2109 51.2133C56.8359 45.5892 60 37.9533 60 30C60 22.0467 56.8359 14.4108 51.2109 8.78672C45.5906 3.16266 37.9547 0 30 0Z" fill="url(#paint0_linear_2330_22631)"/>
<path d="M13.5791 29.6821C22.326 25.8721 28.1572 23.3601 31.0729 22.1465C39.4072 18.681 41.1369 18.0792 42.2666 18.0588C42.5151 18.0548 43.0682 18.1162 43.4291 18.408C43.7291 18.6541 43.8135 18.9869 43.8557 19.2206C43.8932 19.454 43.9447 19.986 43.9026 20.4014C43.4526 25.1451 41.4979 36.6567 40.5041 41.9699C40.0869 44.2181 39.2572 44.9718 38.4557 45.0454C36.7119 45.2057 35.3901 43.8942 33.7026 42.7884C31.0635 41.0573 29.5729 39.9801 27.0088 38.2912C24.0463 36.3393 25.9682 35.2663 27.6557 33.5132C28.0963 33.0543 35.7744 26.0723 35.9197 25.439C35.9385 25.3598 35.9572 25.0645 35.7791 24.9088C35.6057 24.7528 35.3479 24.8062 35.1604 24.8484C34.8932 24.9084 30.6791 27.6965 22.5041 33.2123C21.3088 34.0345 20.226 34.4353 19.251 34.4142C18.1822 34.3912 16.1197 33.8085 14.5869 33.3107C12.7119 32.6999 11.2166 32.377 11.3479 31.3396C11.4135 30.7996 12.1588 30.247 13.5791 29.6821Z" fill="white"/>
</g>
<defs>
<linearGradient id="paint0_linear_2330_22631" x1="3000" y1="0" x2="3000" y2="6000" gradientUnits="userSpaceOnUse">
<stop stop-color="#2AABEE"/>
<stop offset="1" stop-color="#229ED9"/>
</linearGradient>
<clipPath id="clip0_2330_22631">
<rect width="60" height="60" fill="white"/>
</clipPath>
</defs>
</svg>
