<svg width="60" height="60" viewBox="0 0 60 60" fill="none" xmlns="http://www.w3.org/2000/svg">
<g clip-path="url(#clip0_2330_22627)">
<path d="M1.28047 29.6407C1.27906 34.6819 2.60656 39.6042 5.13078 43.9428L1.03906 58.7666L16.3278 54.7889C20.5565 57.0731 25.2944 58.27 30.1091 58.2703H30.1217C46.0159 58.2703 58.9541 45.437 58.9609 29.6633C58.9639 22.0198 55.9667 14.8324 50.5213 9.42492C45.0767 4.01795 37.8357 1.03864 30.1205 1.03516C14.2245 1.03516 1.28727 13.8677 1.2807 29.6407" fill="url(#paint0_linear_2330_22627)"/>
<path d="M0.250781 29.6316C0.249141 34.8542 1.62422 39.9526 4.23844 44.4465L0 59.8016L15.837 55.6814C20.2005 58.0421 25.1135 59.2867 30.1127 59.2886H30.1256C46.59 59.2886 59.993 45.9937 60 29.6553C60.0028 21.7372 56.8978 14.2914 51.2578 8.69023C45.6171 3.08977 38.1171 0.00325581 30.1256 0C13.6584 0 0.257344 13.293 0.250781 29.6316ZM9.68203 43.6726L9.0907 42.7412C6.60492 38.8193 5.29289 34.2872 5.29477 29.6335C5.30016 16.0533 16.4386 5.00465 30.135 5.00465C36.7678 5.00744 43.0012 7.57302 47.6897 12.2279C52.3779 16.8833 54.9577 23.0716 54.956 29.6535C54.9499 43.2337 43.8112 54.2837 30.1256 54.2837H30.1158C25.6596 54.2814 21.2892 53.094 17.4778 50.85L16.5708 50.3163L7.17281 52.7612L9.68203 43.6723V43.6726Z" fill="url(#paint1_linear_2330_22627)"/>
<path d="M22.6586 17.2423C22.0994 16.0091 21.5109 15.9842 20.9791 15.9625C20.5436 15.9439 20.0458 15.9453 19.5484 15.9453C19.0506 15.9453 18.2418 16.1312 17.5581 16.8718C16.8737 17.6132 14.9453 19.4049 14.9453 23.0488C14.9453 26.693 17.6202 30.2146 17.9931 30.7093C18.3665 31.203 23.1571 38.9202 30.7443 41.8891C37.0499 44.3563 38.3331 43.8656 39.7016 43.7418C41.0704 43.6186 44.1182 41.9507 44.74 40.2212C45.3623 38.4918 45.3623 37.0095 45.1757 36.6998C44.9891 36.3912 44.4913 36.2058 43.7448 35.8356C42.9981 35.4651 39.3283 33.6732 38.6441 33.426C37.9598 33.1791 37.4622 33.0558 36.9644 33.7974C36.4666 34.5379 35.0371 36.2058 34.6014 36.6998C34.1662 37.1949 33.7305 37.2565 32.9842 36.886C32.2373 36.5144 29.8333 35.7332 26.9812 33.2102C24.7621 31.247 23.264 28.8225 22.8285 28.0809C22.393 27.3405 22.7819 26.9391 23.1562 26.57C23.4916 26.2381 23.9029 25.7051 24.2765 25.2728C24.6487 24.8402 24.7729 24.5316 25.0218 24.0377C25.2709 23.5432 25.1463 23.1107 24.9599 22.7402C24.7729 22.3698 23.3223 18.7067 22.6586 17.2423Z" fill="white"/>
</g>
<defs>
<linearGradient id="paint0_linear_2330_22627" x1="2897.13" y1="5774.18" x2="2897.13" y2="1.03516" gradientUnits="userSpaceOnUse">
<stop stop-color="#1FAF38"/>
<stop offset="1" stop-color="#60D669"/>
</linearGradient>
<linearGradient id="paint1_linear_2330_22627" x1="3000" y1="5980.16" x2="3000" y2="0" gradientUnits="userSpaceOnUse">
<stop stop-color="#F9F9F9"/>
<stop offset="1" stop-color="white"/>
</linearGradient>
<clipPath id="clip0_2330_22627">
<rect width="60" height="60" fill="white"/>
</clipPath>
</defs>
</svg>
