<svg width="1236" height="565" viewBox="0 0 1236 565" fill="none" xmlns="http://www.w3.org/2000/svg">
<path d="M7.13281 337.979L30.8092 328.343V178.203L7.13281 168.567V142.144L103.695 140.59V168.567L80.019 178.203V232.912H101.529L154.452 142.144L213.102 140.59V168.567L182.926 177.581L141.454 246.901L200.413 328.343L224.244 337.979V365.023H127.527V337.979L146.56 328.343L103.076 267.883H80.019V328.343L103.695 337.979V365.023H7.13281V337.979Z" fill="#07002C" fill-opacity="0.05"/>
<path d="M320.806 190.012C346.287 190.012 365.941 197.472 379.764 212.393C393.692 227.314 400.654 248.503 400.654 275.962C400.654 294.82 397.148 311.191 390.133 325.076C383.22 338.96 373.42 349.633 360.73 357.093C348.041 364.45 333.134 368.128 316.009 368.128C262.156 368.128 235.23 338.96 235.23 280.625C235.23 261.766 238.738 245.55 245.753 231.977C252.872 218.403 262.878 208.041 275.774 200.892C288.67 193.638 303.68 190.012 320.806 190.012ZM319.103 228.091C307.136 228.091 298.316 231.976 292.641 239.748C287.071 247.519 284.285 260.626 284.285 279.07C284.285 296.685 286.916 309.585 292.178 317.771C297.542 325.957 306.001 330.049 317.556 330.049C329.214 330.049 337.776 325.957 343.244 317.771C348.712 309.585 351.446 296.167 351.446 277.516C351.446 260.937 348.867 248.555 343.708 240.37C338.55 232.184 330.349 228.091 319.103 228.091Z" fill="#07002C" fill-opacity="0.05"/>
<path d="M900.554 322.748C901.172 323.162 902.824 323.887 905.506 324.924C908.291 325.96 911.956 326.996 916.492 328.032C921.031 328.965 926.035 329.431 931.502 329.431C942.234 329.431 951.31 327.151 958.737 322.592C966.165 318.033 969.881 311.713 969.881 303.63C969.881 298.76 968.229 294.667 964.929 291.352C961.732 288.036 957.604 285.29 952.55 283.114C947.598 280.835 940.376 277.985 930.884 274.566C916.959 269.696 905.455 264.878 896.375 260.111C887.299 255.345 879.404 248.454 872.701 239.44C866.097 230.425 862.797 218.717 862.797 204.314C862.797 190.119 866.251 177.944 873.164 167.789C880.18 157.531 889.775 149.811 901.949 144.631C914.119 139.45 927.893 136.859 943.264 136.859C953.785 136.859 964.208 137.792 974.524 139.657C984.943 141.522 993.508 143.491 1000.21 145.563C1007.02 147.532 1011.3 148.879 1013.05 149.605L1011.35 207.422H982.261L974.37 180.378C973.542 180.171 971.739 179.705 968.954 178.98C966.165 178.254 962.711 177.529 958.583 176.804C954.459 175.975 950.434 175.56 946.516 175.56C935.784 175.56 927.481 177.685 921.598 181.933C915.719 186.181 912.78 191.621 912.78 198.252C912.78 205.091 915.925 210.479 922.22 214.416C928.614 218.25 938.672 222.602 952.395 227.472C966.324 232.342 977.773 237.109 986.749 241.771C995.825 246.434 1003.57 253.117 1009.96 261.821C1016.46 270.525 1019.71 281.664 1019.71 295.237C1019.71 310.78 1016 324.147 1008.57 335.337C1001.14 346.424 990.976 354.869 978.082 360.671C965.187 366.37 950.537 369.22 934.136 369.22C923.61 369.22 913.089 368.287 902.567 366.422C892.148 364.66 883.48 362.847 876.567 360.982C869.654 359.013 865.273 357.718 863.415 357.096V296.014H895.757L900.554 322.748Z" fill="#07002C" fill-opacity="0.05"/>
<path d="M1149.07 344.349C1149.07 344.763 1146.34 347.094 1140.87 351.343C1135.41 355.591 1128.85 359.477 1121.22 363C1113.59 366.419 1105.75 368.128 1097.7 368.128C1082.22 368.128 1070.1 363.828 1061.33 355.228C1052.67 346.525 1048.34 334.194 1048.34 318.237C1048.34 300.001 1054.83 286.686 1067.83 278.293C1080.83 269.9 1099.76 265.704 1124.62 265.704H1146.91V248.141C1146.91 232.598 1138.76 224.879 1122.46 224.982C1117.61 224.982 1113.12 225.345 1109 226.07C1104.87 226.796 1101.57 227.573 1099.09 228.402C1096.72 229.127 1095.22 229.593 1094.6 229.8L1089.81 249.85H1061.33L1059.17 202.756C1061.02 202.135 1065.56 200.788 1072.79 198.716C1080.11 196.643 1088.83 194.675 1098.94 192.809C1109.15 190.944 1118.8 190.012 1127.88 190.012C1144.17 190.012 1157.12 192.084 1166.71 196.229C1176.31 200.27 1183.33 206.901 1187.76 216.123C1192.2 225.241 1194.42 237.52 1194.42 252.959V331.604L1218.25 337.355V362.844L1154.8 365.02L1149.07 344.349ZM1094.29 313.419C1094.29 319.636 1095.89 324.403 1099.09 327.718C1102.39 330.93 1107.03 332.536 1113.02 332.536C1118.07 332.536 1123.08 331.189 1128.03 328.495C1132.98 325.698 1137.16 322.848 1140.56 319.947C1143.97 316.942 1146.08 314.973 1146.91 314.041V292.747H1128.8C1116.53 292.747 1107.71 294.405 1102.34 297.721C1096.98 301.037 1094.29 306.27 1094.29 313.419Z" fill="#07002C" fill-opacity="0.05"/>
<path d="M0.668381 415.75C9.62312 416.072 16.579 416.231 21.5361 416.231C26.4932 416.231 33.4491 416.072 42.404 415.75C42.5636 416.391 42.6436 416.832 42.6436 417.075C42.6436 417.517 42.5636 418.018 42.404 418.579C40.565 418.742 39.0658 418.921 37.9064 419.124C36.7871 419.283 35.3879 419.566 33.7089 419.968C32.0699 420.366 30.8107 420.95 29.9312 421.714C29.0517 422.435 28.592 423.318 28.552 424.364C28.0323 436.249 27.7724 447.227 27.7724 457.305H29.5114L63.5114 424.364C64.0312 423.6 64.2911 423.019 64.2911 422.618C64.2911 421.854 64.0712 421.229 63.6315 420.747C63.2314 420.226 62.4719 419.844 61.3528 419.606C60.2733 419.323 59.174 419.124 58.0544 419.001C56.9753 418.881 55.3562 418.742 53.1976 418.579C53.0375 417.859 52.9575 417.357 52.9575 417.075C52.9575 416.832 53.0375 416.391 53.1976 415.75C62.2323 416.072 68.1686 416.231 71.0071 416.231C72.9657 416.231 78.4627 416.072 87.4974 415.75C87.657 416.391 87.737 416.832 87.737 417.075C87.737 417.357 87.657 417.859 87.4974 418.579C85.7785 418.742 84.3991 418.901 83.3595 419.064C82.3604 419.224 81.0611 419.506 79.4618 419.904C77.9029 420.266 76.4039 420.831 74.9646 421.591C73.5654 422.315 72.2062 423.238 70.887 424.364L39.9454 453.935L78.023 492.841C84.4193 498.582 90.0359 501.574 94.873 501.813C95.033 502.458 95.1126 502.999 95.1126 503.44C95.1126 503.922 95.033 504.363 94.873 504.765C89.0764 504.443 82.6801 504.284 75.6841 504.284C69.4078 504.284 61.8325 504.443 52.9575 504.765C52.7979 504.284 52.7178 503.802 52.7178 503.321C52.7178 502.8 52.7979 502.294 52.9575 501.813C56.8355 501.694 59.3938 501.351 60.633 500.79C61.9122 500.19 62.552 499.163 62.552 497.719C62.552 497.198 62.4121 496.696 62.132 496.215C61.8524 495.733 61.3528 495.109 60.633 494.345C59.9536 493.545 59.5337 493.04 59.3736 492.841L30.111 462.366L27.7724 462.486C27.7724 471.08 27.9923 482.261 28.432 496.032C28.472 497.078 28.9317 497.981 29.8112 498.741C30.6907 499.466 31.95 500.027 33.589 500.428C35.268 500.83 36.6672 501.133 37.7865 501.332C38.9458 501.495 40.445 501.654 42.2839 501.813C42.4436 502.294 42.5236 502.84 42.5236 503.44C42.5236 503.763 42.4436 504.165 42.2839 504.646C35.4879 504.403 28.532 504.284 21.4162 504.284C14.2204 504.284 7.2645 504.403 0.548453 504.646C0.388547 504.165 0.308594 503.763 0.308594 503.44C0.308594 502.76 0.388547 502.215 0.548453 501.813C1.74775 501.694 2.70718 501.594 3.42676 501.515C4.14633 501.435 5.12574 501.292 6.36503 501.093C7.64429 500.89 8.66367 500.671 9.42322 500.428C10.2228 500.15 11.0423 499.808 11.8818 499.406C12.7213 499.004 13.3409 498.523 13.7407 497.961C14.1804 497.396 14.4003 496.756 14.4003 496.032C14.88 483.466 15.1199 470.798 15.1199 458.03C15.1199 445.019 14.92 433.798 14.5202 424.364C14.4802 423.318 14.0205 422.435 13.141 421.714C12.2615 420.95 10.9823 420.366 9.3033 419.968C7.66426 419.566 6.26508 419.283 5.10578 419.124C3.98644 418.921 2.5073 418.742 0.668381 418.579C0.508478 417.859 0.428522 417.357 0.428522 417.075C0.428522 416.673 0.508478 416.231 0.668381 415.75Z" fill="#07002C" fill-opacity="0.05"/>
<path d="M127.254 449.539C131.211 449.539 134.769 450.239 137.928 451.644C141.125 453.052 143.844 454.998 146.082 457.489C148.321 459.976 150.04 462.968 151.24 466.461C152.439 469.915 153.038 473.691 153.038 477.785C153.038 486.137 150.7 492.921 146.023 498.141C141.385 503.401 135.129 506.031 127.254 506.031C123.336 506.031 119.778 505.347 116.58 503.982C113.422 502.577 110.723 500.632 108.485 498.141C106.246 495.61 104.507 492.622 103.268 489.169C102.069 485.715 101.469 481.919 101.469 477.785C101.469 473.691 102.069 469.915 103.268 466.461C104.467 462.968 106.166 459.976 108.365 457.489C110.604 454.998 113.322 453.052 116.52 451.644C119.718 450.239 123.296 449.539 127.254 449.539ZM127.254 453.454C123.176 453.454 119.918 455.44 117.479 459.415C115.081 463.389 113.881 469.513 113.881 477.785C113.881 486.057 115.081 492.181 117.479 496.156C119.918 500.087 123.176 502.056 127.254 502.056C131.331 502.056 134.569 500.067 136.968 496.092C139.406 492.117 140.626 486.017 140.626 477.785C140.626 473.647 140.306 470.054 139.666 467.002C139.027 463.951 138.127 461.424 136.968 459.415C135.809 457.409 134.409 455.921 132.77 454.958C131.132 453.956 129.293 453.454 127.254 453.454Z" fill="#07002C" fill-opacity="0.05"/>
<path d="M164.37 417.676C171.966 416.956 178.701 415.309 184.578 412.738C185.658 413.18 186.357 413.721 186.677 414.366C186.677 459.856 186.837 487.08 187.157 496.032C187.197 496.876 187.436 497.639 187.876 498.32C188.356 498.964 188.875 499.486 189.435 499.888C189.995 500.25 190.754 500.592 191.714 500.91C192.673 501.193 193.413 501.392 193.932 501.515C194.492 501.594 195.232 501.694 196.151 501.813C196.391 502.295 196.511 502.8 196.511 503.321C196.511 503.843 196.391 504.284 196.151 504.646C190.874 504.404 185.757 504.284 180.8 504.284C175.923 504.284 170.846 504.404 165.569 504.646C165.409 504.002 165.329 503.56 165.329 503.321C165.329 503.118 165.409 502.617 165.569 501.813C166.889 501.654 167.948 501.495 168.747 501.332C169.587 501.133 170.626 500.831 171.865 500.429C173.145 500.027 174.104 499.466 174.744 498.742C175.384 497.982 175.723 497.078 175.763 496.032C175.923 492.057 176.003 483.164 176.003 469.354C176.003 462.968 175.983 454.274 175.943 443.272C175.903 432.275 175.883 425.506 175.883 422.976C173.605 421.651 169.767 420.831 164.37 420.509C164.17 419.988 164.07 419.506 164.07 419.065C164.07 418.663 164.17 418.201 164.37 417.676Z" fill="#07002C" fill-opacity="0.05"/>
<path d="M221.819 439.297C222.218 439.138 222.678 439.059 223.198 439.059C223.717 439.059 224.257 439.138 224.817 439.297V452.487H242.986C243.226 453.092 243.346 453.832 243.346 454.715C243.346 455.479 243.226 456.184 242.986 456.824H224.817V488.985C224.817 495.332 227.715 498.503 233.512 498.503C235.711 498.503 237.589 498.081 239.148 497.238C240.748 496.394 242.507 495.129 244.426 493.442C245.425 493.565 246.084 494.047 246.404 494.89C244.645 498.061 242.047 500.711 238.609 502.84C235.171 504.969 231.393 506.031 227.276 506.031C217.601 506.031 212.764 500.15 212.764 488.385V456.824H205.389C205.228 456.104 205.148 455.643 205.148 455.44C205.148 455.4 205.228 454.938 205.389 454.055C207.307 453.092 208.767 452.308 209.766 451.707C210.805 451.063 212.104 450.16 213.663 448.994C215.263 447.832 216.702 446.467 217.981 444.9C219.3 443.296 220.579 441.426 221.819 439.297Z" fill="#07002C" fill-opacity="0.05"/>
<path d="M258.516 464.714C258.516 460.298 260.514 456.665 264.512 453.812C268.55 450.963 273.307 449.539 278.784 449.539C285.5 449.539 290.217 450.884 292.936 453.574C295.694 456.263 297.073 460.799 297.073 467.185V492.181C297.073 494.429 297.893 495.551 299.532 495.551C300.851 495.551 302.53 493.947 304.569 490.732C306.008 490.856 306.987 491.496 307.507 492.662C307.227 493.064 306.747 493.784 306.068 494.831C305.388 495.873 304.888 496.617 304.569 497.059C304.249 497.5 303.749 498.181 303.07 499.104C302.39 499.987 301.83 500.652 301.39 501.093C300.991 501.535 300.431 502.056 299.711 502.657C299.032 503.262 298.392 503.723 297.792 504.042C297.233 504.324 296.573 504.567 295.814 504.766C295.054 505.009 294.295 505.128 293.535 505.128C291.536 505.128 289.877 504.404 288.558 502.959C287.279 501.515 286.519 499.287 286.279 496.275C286.239 496.315 285.62 496.896 284.421 498.022C283.221 499.144 282.382 499.908 281.902 500.309C281.462 500.672 280.602 501.332 279.323 502.295C278.084 503.222 277.025 503.882 276.145 504.284C275.266 504.686 274.167 505.068 272.847 505.43C271.528 505.828 270.229 506.031 268.95 506.031C266.911 506.031 265.092 505.749 263.493 505.188C261.934 504.627 260.714 503.942 259.835 503.138C258.955 502.339 258.236 501.412 257.676 500.369C257.117 499.287 256.737 498.3 256.537 497.417C256.377 496.534 256.297 495.65 256.297 494.767C256.297 492.077 256.737 489.809 257.616 487.963C258.536 486.117 260.215 484.39 262.653 482.783C265.132 481.179 268.17 479.751 271.768 478.505C275.366 477.264 280.203 475.855 286.279 474.292V465.92C286.279 461.866 285.38 458.834 283.581 456.824C281.822 454.819 279.443 453.812 276.445 453.812C273.767 453.812 271.508 454.357 269.669 455.44C267.87 456.482 266.771 457.708 266.371 459.112C270.289 459.717 272.248 461.866 272.248 465.558C272.248 467.245 271.648 468.729 270.449 470.014C269.25 471.3 267.57 471.944 265.412 471.944C263.613 471.944 262.014 471.319 260.615 470.074C259.215 468.789 258.516 467.002 258.516 464.714ZM286.279 490.732V478.147C282.601 478.991 279.563 479.914 277.165 480.916C274.766 481.879 272.927 482.946 271.648 484.107C270.409 485.273 269.549 486.479 269.07 487.72C268.59 488.926 268.35 490.33 268.35 491.938C268.35 493.947 268.929 495.531 270.089 496.697C271.288 497.819 272.747 498.384 274.466 498.384C278.464 498.384 282.402 495.833 286.279 490.732Z" fill="#07002C" fill-opacity="0.05"/>
<path d="M352.3 501.813C355.818 501.455 357.577 500.508 357.577 498.984C357.577 498.101 357.137 497.118 356.258 496.032L339.887 474.952H336.949C336.949 484.549 337.069 491.576 337.309 496.032C337.309 497.078 337.569 497.982 338.089 498.742C338.648 499.466 339.448 500.027 340.487 500.429C341.566 500.831 342.446 501.133 343.126 501.332C343.845 501.495 344.785 501.654 345.944 501.813C346.184 502.295 346.304 502.8 346.304 503.321C346.304 503.843 346.184 504.284 345.944 504.646C340.667 504.404 335.67 504.284 330.953 504.284C326.076 504.284 320.999 504.404 315.722 504.646C315.562 504.002 315.482 503.56 315.482 503.321C315.482 503.118 315.562 502.617 315.722 501.813C317.041 501.654 318.1 501.495 318.9 501.332C319.739 501.133 320.779 500.831 322.018 500.429C323.297 500.027 324.257 499.466 324.896 498.742C325.536 497.982 325.876 497.078 325.916 496.032C326.076 492.057 326.136 479.532 326.096 458.452C326.056 437.332 326.036 425.506 326.036 422.976C323.757 421.651 319.919 420.831 314.523 420.509C314.322 419.988 314.223 419.506 314.223 419.065C314.223 418.663 314.322 418.201 314.523 417.676C322.118 416.956 328.854 415.309 334.731 412.738C335.81 413.18 336.509 413.721 336.829 414.366L336.949 471.1H340.067L352.18 459.534C352.94 458.65 353.319 457.747 353.319 456.824C353.319 455.137 351.421 454.095 347.623 453.693C347.463 453.052 347.383 452.611 347.383 452.368C347.383 452.006 347.463 451.504 347.623 450.864C352.82 451.103 356.957 451.226 360.036 451.226C363.394 451.226 367.651 451.103 372.808 450.864C372.968 451.345 373.048 451.767 373.048 452.129C373.048 452.368 372.968 452.889 372.808 453.693C369.25 454.095 366.312 454.695 363.993 455.499C361.675 456.263 359.576 457.608 357.697 459.534L348.163 469.23L369.27 496.032C371.669 499.163 375.267 501.093 380.064 501.813C380.224 502.617 380.304 503.158 380.304 503.441C380.304 503.763 380.224 504.165 380.064 504.646C374.907 504.404 370.25 504.284 366.092 504.284C362.055 504.284 357.457 504.404 352.3 504.646C352.14 504.002 352.06 503.52 352.06 503.202C352.06 502.919 352.14 502.458 352.3 501.813Z" fill="#07002C" fill-opacity="0.05"/>
<path d="M410.767 449.539C414.724 449.539 418.282 450.239 421.439 451.644C424.636 453.052 427.357 454.998 429.596 457.489C431.834 459.976 433.553 462.968 434.75 466.461C435.95 469.915 436.552 473.691 436.552 477.785C436.552 486.137 434.211 492.921 429.536 498.141C424.897 503.401 418.642 506.031 410.767 506.031C406.849 506.031 403.291 505.347 400.09 503.982C396.933 502.577 394.235 500.632 391.996 498.141C389.758 495.61 388.019 492.622 386.779 489.169C385.58 485.715 384.98 481.919 384.98 477.785C384.98 473.691 385.58 469.915 386.779 466.461C387.979 462.968 389.678 459.976 391.877 457.489C394.115 454.998 396.834 453.052 400.031 451.644C403.232 450.239 406.809 449.539 410.767 449.539ZM410.767 453.454C406.686 453.454 403.43 455.44 400.989 459.415C398.593 463.389 397.392 469.513 397.392 477.785C397.392 486.057 398.593 492.181 400.989 496.156C403.43 500.087 406.686 502.056 410.767 502.056C414.843 502.056 418.08 500.067 420.48 496.092C422.917 492.117 424.137 486.017 424.137 477.785C424.137 473.647 423.816 470.054 423.178 467.002C422.54 463.951 421.641 461.424 420.48 459.415C419.319 457.409 417.921 455.921 416.281 454.958C414.645 453.956 412.803 453.454 410.767 453.454Z" fill="#07002C" fill-opacity="0.05"/>
<path d="M441.706 450.863C446.983 451.102 452.3 451.225 457.66 451.225C462.176 451.225 467.013 451.102 472.171 450.863C472.329 451.504 472.408 452.005 472.408 452.367C472.408 452.61 472.329 453.052 472.171 453.692C471.05 453.772 470.13 453.875 469.409 453.995C468.732 454.074 467.872 454.233 466.834 454.476C465.793 454.715 465.012 455.077 464.493 455.558C463.974 456.04 463.713 456.625 463.713 457.305C463.713 457.667 463.875 458.411 464.196 459.533L475.106 489.948H475.467L488.239 459.533C488.678 458.451 488.9 457.588 488.9 456.947C488.9 455.097 486.603 454.015 482.003 453.692C481.845 453.052 481.766 452.61 481.766 452.367C481.766 452.005 481.845 451.504 482.003 450.863C486.682 451.102 489.578 451.225 490.699 451.225C494.058 451.225 498.313 451.102 503.471 450.863C503.629 451.345 503.712 451.766 503.712 452.129C503.712 452.367 503.629 452.889 503.471 453.692C498.713 453.895 495.476 455.841 493.757 459.533L473.248 506.03H470.309L452.141 459.533C451.741 458.491 451.143 457.607 450.343 456.883C449.582 456.123 448.584 455.538 447.344 455.137C446.143 454.695 445.204 454.397 444.527 454.233C443.885 454.074 442.946 453.895 441.706 453.692C441.548 453.37 441.469 452.928 441.469 452.367C441.469 451.766 441.548 451.265 441.706 450.863Z" fill="#07002C" fill-opacity="0.05"/>
<path d="M512.765 464.714C512.765 460.298 514.766 456.665 518.763 453.812C522.8 450.963 527.558 449.539 533.033 449.539C539.751 449.539 544.469 450.884 547.187 453.574C549.944 456.263 551.323 460.799 551.323 467.185V492.181C551.323 494.429 552.143 495.551 553.783 495.551C555.102 495.551 556.782 493.947 558.818 490.732C560.26 490.856 561.239 491.496 561.758 492.662C561.476 493.064 560.997 493.784 560.32 494.831C559.638 495.873 559.139 496.617 558.818 497.059C558.501 497.5 557.998 498.181 557.321 499.104C556.639 499.987 556.081 500.652 555.641 501.093C555.241 501.535 554.682 502.056 553.961 502.657C553.284 503.262 552.642 503.723 552.044 504.042C551.485 504.324 550.824 504.567 550.063 504.766C549.307 505.009 548.546 505.128 547.785 505.128C545.789 505.128 544.129 504.404 542.81 502.959C541.53 501.515 540.769 499.287 540.532 496.275C540.488 496.315 539.87 496.896 538.67 498.022C537.473 499.144 536.634 499.908 536.154 500.309C535.714 500.672 534.855 501.332 533.575 502.295C532.335 503.222 531.274 503.882 530.394 504.284C529.515 504.686 528.417 505.068 527.098 505.43C525.779 505.828 524.48 506.031 523.2 506.031C521.16 506.031 519.341 505.749 517.745 505.188C516.184 504.627 514.964 503.942 514.084 503.138C513.205 502.339 512.488 501.412 511.925 500.369C511.367 499.287 510.987 498.3 510.788 497.417C510.626 496.534 510.547 495.65 510.547 494.767C510.547 492.077 510.987 489.809 511.866 487.963C512.785 486.117 514.465 484.39 516.905 482.783C519.381 481.179 522.42 479.751 526.017 478.505C529.618 477.264 534.455 475.855 540.532 474.292V465.92C540.532 461.866 539.632 458.834 537.83 456.824C536.071 454.819 533.694 453.812 530.695 453.812C528.017 453.812 525.759 454.357 523.921 455.44C522.122 456.482 521.021 457.708 520.621 459.112C524.539 459.717 526.5 461.866 526.5 465.558C526.5 467.245 525.898 468.729 524.697 470.014C523.501 471.3 521.821 471.944 519.662 471.944C517.864 471.944 516.263 471.319 514.865 470.074C513.467 468.789 512.765 467.002 512.765 464.714ZM540.532 490.732V478.147C536.851 478.991 533.813 479.914 531.416 480.916C529.016 481.879 527.177 482.946 525.898 484.107C524.658 485.273 523.798 486.479 523.319 487.72C522.84 488.926 522.602 490.33 522.602 491.938C522.602 493.947 523.18 495.531 524.341 496.697C525.537 497.819 526.999 498.384 528.718 498.384C532.716 498.384 536.653 495.833 540.532 490.732Z" fill="#07002C" fill-opacity="0.05"/>
<path d="M754.783 441.224C753.266 433.875 750.465 428.173 746.389 424.119C742.352 420.064 737.495 418.035 731.818 418.035C726.26 418.035 721.942 419.36 718.864 422.01C715.825 424.66 714.308 428.193 714.308 432.61C714.308 435.061 714.526 437.086 714.966 438.693C715.405 440.301 716.305 441.864 717.663 443.392C719.026 444.877 721.003 446.201 723.602 447.367C726.201 448.489 729.6 449.576 733.795 450.618C736.073 451.179 738.053 451.704 739.733 452.186C741.452 452.667 743.33 453.328 745.37 454.171C747.446 455.015 749.225 455.918 750.707 456.881C752.224 457.848 753.725 459.049 755.203 460.498C756.72 461.902 757.94 463.466 758.859 465.193C759.822 466.919 760.579 468.969 761.141 471.336C761.739 473.664 762.041 476.214 762.041 478.987C762.041 482.68 761.359 486.094 760 489.225C758.642 492.317 756.863 494.927 754.664 497.055C752.466 499.18 749.926 500.991 747.046 502.475C744.17 503.959 741.25 505.045 738.291 505.725C735.336 506.41 732.396 506.752 729.477 506.752C720.603 506.752 711.151 504.44 701.116 499.825C701.314 495.488 701.413 492.818 701.413 491.815C701.413 485.27 700.874 478.745 699.797 472.239C700.237 471.961 700.676 471.817 701.116 471.817C701.675 471.817 702.174 471.961 702.614 472.239C703.453 477.42 704.832 481.995 706.753 485.97C708.71 489.945 710.949 493.1 713.468 495.428C715.988 497.716 718.586 499.443 721.264 500.609C723.982 501.731 726.72 502.292 729.477 502.292C735.756 502.292 740.573 500.668 743.928 497.414C747.327 494.123 749.027 489.786 749.027 484.407C749.027 478.987 747.767 474.909 745.248 472.18C742.772 469.41 738.014 467.162 730.978 465.435C722.184 463.227 715.306 459.972 710.35 455.679C705.434 451.342 702.974 445.621 702.974 438.514C702.974 434.778 703.572 431.448 704.773 428.515C706.013 425.543 707.589 423.176 709.511 421.409C711.468 419.603 713.749 418.115 716.344 416.953C718.943 415.747 721.502 414.924 724.022 414.482C726.581 414 729.18 413.762 731.818 413.762C739.733 413.762 747.969 415.608 756.522 419.3C756.28 421.668 756.162 424.139 756.162 426.709C756.162 432.733 756.641 437.571 757.604 441.224C757.081 441.423 756.641 441.526 756.281 441.526C755.884 441.526 755.381 441.423 754.783 441.224Z" fill="#07002C" fill-opacity="0.05"/>
<path d="M779.609 464.714C779.609 460.298 781.606 456.665 785.603 453.812C789.644 450.963 794.397 449.539 799.876 449.539C806.591 449.539 811.309 450.884 814.027 453.574C816.784 456.263 818.167 460.799 818.167 467.185V492.181C818.167 494.429 818.983 495.551 820.623 495.551C821.942 495.551 823.622 493.947 825.662 490.732C827.1 490.856 828.078 491.496 828.597 492.662C828.32 493.064 827.841 493.784 827.159 494.831C826.482 495.873 825.979 496.617 825.662 497.059C825.341 497.5 824.842 498.181 824.161 499.104C823.483 499.987 822.921 500.652 822.481 501.093C822.085 501.535 821.522 502.056 820.805 502.657C820.124 503.262 819.486 503.723 818.884 504.042C818.325 504.324 817.664 504.567 816.907 504.766C816.146 505.009 815.386 505.128 814.629 505.128C812.628 505.128 810.969 504.404 809.649 502.959C808.37 501.515 807.613 499.287 807.372 496.275C807.332 496.315 806.71 496.896 805.514 498.022C804.313 499.144 803.473 499.908 802.994 500.309C802.554 500.672 801.695 501.332 800.415 502.295C799.175 503.222 798.117 503.882 797.238 504.284C796.358 504.686 795.257 505.068 793.938 505.43C792.619 505.828 791.319 506.031 790.04 506.031C788.004 506.031 786.185 505.749 784.585 505.188C783.024 504.627 781.808 503.942 780.928 503.138C780.049 502.339 779.328 501.412 778.769 500.369C778.207 499.287 777.83 498.3 777.628 497.417C777.47 496.534 777.391 495.65 777.391 494.767C777.391 492.077 777.83 489.809 778.71 487.963C779.629 486.117 781.309 484.39 783.745 482.783C786.225 481.179 789.263 479.751 792.86 478.505C796.458 477.264 801.295 475.855 807.372 474.292V465.92C807.372 461.866 806.472 458.834 804.674 456.824C802.915 454.819 800.534 453.812 797.539 453.812C794.857 453.812 792.599 454.357 790.761 455.44C788.962 456.482 787.861 457.708 787.465 459.112C791.383 459.717 793.34 461.866 793.34 465.558C793.34 467.245 792.742 468.729 791.541 470.014C790.341 471.3 788.661 471.944 786.502 471.944C784.704 471.944 783.107 471.319 781.705 470.074C780.306 468.789 779.609 467.002 779.609 464.714ZM807.372 490.732V478.147C803.695 478.991 800.657 479.914 798.256 480.916C795.859 481.879 794.021 482.946 792.742 484.107C791.502 485.273 790.642 486.479 790.163 487.72C789.683 488.926 789.442 490.33 789.442 491.938C789.442 493.947 790.02 495.531 791.181 496.697C792.381 497.819 793.839 498.384 795.558 498.384C799.555 498.384 803.493 495.833 807.372 490.732Z" fill="#07002C" fill-opacity="0.05"/>
<path d="M835.614 417.676C843.212 416.956 849.946 415.309 855.821 412.738C856.903 413.18 857.604 413.721 857.921 414.366C857.921 459.856 858.083 487.08 858.4 496.032C858.44 496.876 858.682 497.639 859.121 498.32C859.601 498.964 860.12 499.486 860.682 499.888C861.241 500.25 862.001 500.592 862.96 500.91C863.919 501.193 864.66 501.392 865.179 501.515C865.737 501.594 866.478 501.694 867.397 501.813C867.635 502.295 867.757 502.8 867.757 503.321C867.757 503.843 867.635 504.284 867.397 504.646C862.12 504.404 857.002 504.284 852.046 504.284C847.169 504.284 842.091 504.404 836.814 504.646C836.655 504.002 836.576 503.56 836.576 503.321C836.576 503.118 836.655 502.617 836.814 501.813C838.133 501.654 839.195 501.495 839.991 501.332C840.831 501.133 841.873 500.831 843.109 500.429C844.388 500.027 845.351 499.466 845.989 498.742C846.627 497.982 846.967 497.078 847.007 496.032C847.169 492.057 847.249 483.164 847.249 469.354C847.249 462.968 847.229 454.274 847.189 443.272C847.15 432.275 847.13 425.506 847.13 422.976C844.848 421.651 841.013 420.831 835.614 420.509C835.415 419.988 835.316 419.506 835.316 419.065C835.316 418.663 835.415 418.201 835.614 417.676Z" fill="#07002C" fill-opacity="0.05"/>
<path d="M881.668 464.714C881.668 460.298 883.668 456.665 887.665 453.812C891.702 450.963 896.46 449.539 901.939 449.539C908.654 449.539 913.372 450.884 916.09 453.574C918.847 456.263 920.225 460.799 920.225 467.185V492.181C920.225 494.429 921.045 495.551 922.685 495.551C924.005 495.551 925.684 493.947 927.721 490.732C929.163 490.856 930.141 491.496 930.66 492.662C930.379 493.064 929.899 493.784 929.222 494.831C928.541 495.873 928.042 496.617 927.721 497.059C927.404 497.5 926.905 498.181 926.223 499.104C925.542 499.987 924.983 500.652 924.543 501.093C924.143 501.535 923.585 502.056 922.864 502.657C922.186 503.262 921.545 503.723 920.946 504.042C920.388 504.324 919.726 504.567 918.966 504.766C918.209 505.009 917.448 505.128 916.688 505.128C914.691 505.128 913.031 504.404 911.712 502.959C910.432 501.515 909.672 499.287 909.434 496.275C909.394 496.315 908.773 496.896 907.572 498.022C906.376 499.144 905.536 499.908 905.057 500.309C904.617 500.672 903.757 501.332 902.478 502.295C901.238 503.222 900.18 503.882 899.3 504.284C898.421 504.686 897.32 505.068 896.001 505.43C894.681 505.828 893.382 506.031 892.102 506.031C890.066 506.031 888.244 505.749 886.647 505.188C885.086 504.627 883.866 503.942 882.987 503.138C882.107 502.339 881.39 501.412 880.828 500.369C880.269 499.287 879.889 498.3 879.691 497.417C879.528 496.534 879.449 495.65 879.449 494.767C879.449 492.077 879.889 489.809 880.768 487.963C881.688 486.117 883.367 484.39 885.808 482.783C888.283 481.179 891.322 479.751 894.923 478.505C898.52 477.264 903.357 475.855 909.434 474.292V465.92C909.434 461.866 908.535 458.834 906.736 456.824C904.977 454.819 902.596 453.812 899.598 453.812C896.92 453.812 894.662 454.357 892.823 455.44C891.025 456.482 889.924 457.708 889.523 459.112C893.441 459.717 895.402 461.866 895.402 465.558C895.402 467.245 894.8 468.729 893.604 470.014C892.404 471.3 890.724 471.944 888.565 471.944C886.766 471.944 885.166 471.319 883.767 470.074C882.369 468.789 881.668 467.002 881.668 464.714ZM909.434 490.732V478.147C905.754 478.991 902.715 479.914 900.319 480.916C897.918 481.879 896.08 482.946 894.8 484.107C893.56 485.273 892.705 486.479 892.221 487.72C891.742 488.926 891.504 490.33 891.504 491.938C891.504 493.947 892.083 495.531 893.243 496.697C894.44 497.819 895.902 498.384 897.621 498.384C901.618 498.384 905.556 495.833 909.434 490.732Z" fill="#07002C" fill-opacity="0.05"/>
<path d="M1009.39 501.814C1010.39 501.654 1011.21 501.495 1011.85 501.332C1012.53 501.133 1013.27 500.831 1014.07 500.429C1014.87 500.027 1015.47 499.466 1015.87 498.742C1016.27 497.982 1016.47 497.079 1016.47 496.032L1016.59 467.424C1016.59 460.159 1014.43 456.526 1010.11 456.526C1007.95 456.526 1005.62 457.206 1003.1 458.571C1000.58 459.936 997.561 461.985 994.043 464.714V465.439L994.523 496.032C994.562 497.079 994.859 497.982 995.422 498.742C996.02 499.466 996.86 500.027 997.938 500.429C999.019 500.831 999.918 501.133 1000.64 501.332C1001.36 501.495 1002.3 501.654 1003.46 501.814C1003.61 502.617 1003.7 503.158 1003.7 503.441C1003.7 503.763 1003.61 504.165 1003.46 504.646C998.298 504.404 993.604 504.284 989.365 504.284C985.486 504.284 980.97 504.404 975.812 504.646C975.654 504.002 975.571 503.52 975.571 503.202C975.571 502.92 975.654 502.458 975.812 501.814C976.811 501.654 977.651 501.495 978.332 501.332C979.009 501.133 979.75 500.831 980.55 500.429C981.351 500.027 981.949 499.466 982.349 498.742C982.749 497.982 982.947 497.079 982.947 496.032L983.07 467.424C983.07 460.159 980.911 456.526 976.593 456.526C974.434 456.526 972.136 457.186 969.696 458.511C967.299 459.836 964.28 461.866 960.64 464.595C960.64 476.361 960.802 486.837 961.123 496.032C961.163 497.079 961.44 497.982 961.959 498.742C962.482 499.466 963.219 500.027 964.177 500.429C965.18 500.831 966.039 501.133 966.756 501.332C967.477 501.495 968.377 501.654 969.458 501.814C969.696 502.295 969.815 502.8 969.815 503.321C969.815 503.723 969.696 504.165 969.458 504.646C964.177 504.404 959.261 504.284 954.705 504.284C949.829 504.284 944.75 504.404 939.473 504.646C939.315 504.002 939.236 503.56 939.236 503.321C939.236 503.119 939.315 502.617 939.473 501.814C940.792 501.654 941.874 501.495 942.714 501.332C943.55 501.133 944.592 500.831 945.831 500.429C947.067 500.027 948.01 499.466 948.648 498.742C949.29 497.982 949.627 497.079 949.666 496.032C949.829 492.057 949.908 487.239 949.908 481.577C949.908 479.691 949.888 476.48 949.849 471.944C949.809 467.404 949.789 463.429 949.789 460.019C947.507 458.611 943.672 457.787 938.273 457.549C938.114 456.904 938.035 456.403 938.035 456.041C938.035 455.802 938.114 455.36 938.273 454.716C946.03 453.916 952.788 452.269 958.544 449.778C959.542 450.18 960.244 450.701 960.64 451.345V460.859C962.521 459.132 964.098 457.747 965.378 456.705C966.657 455.623 968.218 454.457 970.056 453.212C971.934 451.966 973.792 451.043 975.634 450.442C977.512 449.837 979.429 449.539 981.39 449.539C985.308 449.539 988.224 450.482 990.145 452.368C992.063 454.214 993.263 457.127 993.742 461.102C995.783 459.255 997.399 457.831 998.599 456.824C999.839 455.822 1001.44 454.656 1003.4 453.331C1005.35 452.006 1007.27 451.043 1009.15 450.442C1011.03 449.837 1012.95 449.539 1014.91 449.539C1019.43 449.539 1022.65 450.824 1024.56 453.391C1026.48 455.961 1027.48 459.976 1027.56 465.439L1028.16 496.032C1028.2 497.079 1028.5 497.982 1029.06 498.742C1029.66 499.466 1030.5 500.027 1031.58 500.429C1032.66 500.831 1033.56 501.133 1034.28 501.332C1035 501.495 1035.94 501.654 1037.1 501.814C1037.3 502.82 1037.39 503.361 1037.39 503.441C1037.39 503.644 1037.3 504.042 1037.1 504.646C1031.94 504.404 1027.2 504.284 1022.88 504.284C1019.05 504.284 1014.55 504.404 1009.39 504.646C1009.19 503.843 1009.09 503.361 1009.09 503.202C1009.09 503.079 1009.19 502.617 1009.39 501.814Z" fill="#07002C" fill-opacity="0.05"/>
<path d="M1073.62 449.539C1077.58 449.539 1081.13 450.239 1084.29 451.644C1087.49 453.052 1090.21 454.998 1092.45 457.489C1094.69 459.976 1096.4 462.968 1097.6 466.461C1098.8 469.915 1099.4 473.691 1099.4 477.785C1099.4 486.137 1097.06 492.921 1092.39 498.141C1087.75 503.401 1081.49 506.031 1073.62 506.031C1069.7 506.031 1066.14 505.347 1062.95 503.982C1059.78 502.577 1057.09 500.632 1054.85 498.141C1052.61 495.61 1050.87 492.622 1049.63 489.169C1048.43 485.715 1047.83 481.919 1047.83 477.785C1047.83 473.691 1048.43 469.915 1049.63 466.461C1050.83 462.968 1052.53 459.976 1054.73 457.489C1056.97 454.998 1059.68 453.052 1062.89 451.644C1066.08 450.239 1069.66 449.539 1073.62 449.539ZM1073.62 453.454C1069.54 453.454 1066.28 455.44 1063.84 459.415C1061.44 463.389 1060.25 469.513 1060.25 477.785C1060.25 486.057 1061.44 492.181 1063.84 496.156C1066.28 500.087 1069.54 502.056 1073.62 502.056C1077.69 502.056 1080.93 500.067 1083.33 496.092C1085.77 492.117 1086.99 486.017 1086.99 477.785C1086.99 473.647 1086.67 470.054 1086.03 467.002C1085.39 463.951 1084.49 461.424 1083.33 459.415C1082.17 457.409 1080.77 455.921 1079.14 454.958C1077.5 453.956 1075.66 453.454 1073.62 453.454Z" fill="#07002C" fill-opacity="0.05"/>
<path d="M1104.56 450.863C1109.84 451.102 1115.16 451.225 1120.51 451.225C1125.03 451.225 1129.86 451.102 1135.02 450.863C1135.18 451.504 1135.26 452.005 1135.26 452.367C1135.26 452.61 1135.18 453.052 1135.02 453.692C1133.9 453.772 1132.98 453.875 1132.26 453.995C1131.58 454.074 1130.72 454.233 1129.69 454.476C1128.64 454.715 1127.87 455.077 1127.35 455.558C1126.83 456.04 1126.57 456.625 1126.57 457.305C1126.57 457.667 1126.73 458.411 1127.05 459.533L1137.96 489.948H1138.32L1151.09 459.533C1151.53 458.451 1151.75 457.588 1151.75 456.947C1151.75 455.097 1149.45 454.015 1144.85 453.692C1144.7 453.052 1144.62 452.61 1144.62 452.367C1144.62 452.005 1144.7 451.504 1144.85 450.863C1149.53 451.102 1152.43 451.225 1153.55 451.225C1156.91 451.225 1161.17 451.102 1166.32 450.863C1166.48 451.345 1166.56 451.766 1166.56 452.129C1166.56 452.367 1166.48 452.889 1166.32 453.692C1161.57 453.895 1158.33 455.841 1156.61 459.533L1136.1 506.03H1133.16L1114.99 459.533C1114.59 458.491 1113.99 457.607 1113.19 456.883C1112.44 456.123 1111.44 455.538 1110.2 455.137C1109 454.695 1108.06 454.397 1107.38 454.233C1106.74 454.074 1105.8 453.895 1104.56 453.692C1104.4 453.37 1104.32 452.928 1104.32 452.367C1104.32 451.766 1104.4 451.265 1104.56 450.863Z" fill="#07002C" fill-opacity="0.05"/>
<path d="M1175.62 464.714C1175.62 460.298 1177.61 456.665 1181.61 453.812C1185.65 450.963 1190.41 449.539 1195.88 449.539C1202.6 449.539 1207.32 450.884 1210.03 453.574C1212.79 456.263 1214.17 460.799 1214.17 467.185V492.181C1214.17 494.429 1214.99 495.551 1216.63 495.551C1217.95 495.551 1219.63 493.947 1221.67 490.732C1223.11 490.856 1224.09 491.496 1224.61 492.662C1224.33 493.064 1223.85 493.784 1223.17 494.831C1222.49 495.873 1221.99 496.617 1221.67 497.059C1221.35 497.5 1220.85 498.181 1220.17 499.104C1219.49 499.987 1218.93 500.652 1218.49 501.093C1218.09 501.535 1217.53 502.056 1216.81 502.657C1216.13 503.262 1215.49 503.723 1214.89 504.042C1214.33 504.324 1213.67 504.567 1212.91 504.766C1212.15 505.009 1211.39 505.128 1210.63 505.128C1208.64 505.128 1206.98 504.404 1205.66 502.959C1204.38 501.515 1203.62 499.287 1203.38 496.275C1203.34 496.315 1202.72 496.896 1201.52 498.022C1200.32 499.144 1199.48 499.908 1199 500.309C1198.56 500.672 1197.7 501.332 1196.42 502.295C1195.18 503.222 1194.13 503.882 1193.25 504.284C1192.37 504.686 1191.26 505.068 1189.95 505.43C1188.63 505.828 1187.33 506.031 1186.05 506.031C1184.01 506.031 1182.19 505.749 1180.59 505.188C1179.03 504.627 1177.82 503.942 1176.94 503.138C1176.06 502.339 1175.34 501.412 1174.78 500.369C1174.21 499.287 1173.84 498.3 1173.64 497.417C1173.48 496.534 1173.4 495.65 1173.4 494.767C1173.4 492.077 1173.84 489.809 1174.72 487.963C1175.64 486.117 1177.31 484.39 1179.75 482.783C1182.23 481.179 1185.27 479.751 1188.87 478.505C1192.47 477.264 1197.3 475.855 1203.38 474.292V465.92C1203.38 461.866 1202.48 458.834 1200.68 456.824C1198.92 454.819 1196.54 453.812 1193.54 453.812C1190.86 453.812 1188.61 454.357 1186.77 455.44C1184.97 456.482 1183.87 457.708 1183.47 459.112C1187.39 459.717 1189.35 461.866 1189.35 465.558C1189.35 467.245 1188.75 468.729 1187.55 470.014C1186.35 471.3 1184.67 471.944 1182.51 471.944C1180.71 471.944 1179.11 471.319 1177.71 470.074C1176.31 468.789 1175.62 467.002 1175.62 464.714ZM1203.38 490.732V478.147C1199.7 478.991 1196.66 479.914 1194.26 480.916C1191.87 481.879 1190.03 482.946 1188.75 484.107C1187.51 485.273 1186.65 486.479 1186.17 487.72C1185.69 488.926 1185.45 490.33 1185.45 491.938C1185.45 493.947 1186.03 495.531 1187.19 496.697C1188.39 497.819 1189.85 498.384 1191.57 498.384C1195.56 498.384 1199.5 495.833 1203.38 490.732Z" fill="#07002C" fill-opacity="0.05"/>
<path d="M0.0871538 57.7732H0.522923C0.929642 57.7732 1.27826 57.5982 1.56877 57.248C1.91738 56.8979 2.2079 56.4893 2.44031 56.0225C2.67272 55.5558 2.84703 55.0596 2.96323 54.5344C3.07943 53.9507 3.13754 53.4255 3.13754 52.9588V6.30254C3.13754 5.89402 3.05038 5.42718 2.87608 4.90197C2.75987 4.37676 2.58557 3.88073 2.35315 3.41387C2.12074 2.94702 1.83023 2.56769 1.48162 2.27591C1.1911 1.92577 0.842489 1.7507 0.435769 1.7507H0V0.875352H12.2887V1.7507H11.5915C11.1847 1.80906 10.8071 2.01331 10.4585 2.36345C10.168 2.71359 9.9065 3.12209 9.67408 3.58894C9.44165 4.05578 9.26735 4.55183 9.15115 5.07704C9.03496 5.54388 8.97685 5.95239 8.97685 6.30254V26.0855H14.729C15.2519 22.7592 16.2687 19.5495 17.7794 16.4566C19.3482 13.3054 21.3527 10.5042 23.793 8.05324C26.2333 5.60225 29.1094 3.6473 32.4212 2.18838C35.7331 0.729459 39.4807 0 43.6641 0C48.1961 0 52.2052 0.816994 55.6913 2.45099C59.2357 4.02662 62.2278 6.18583 64.6682 8.92859C67.1085 11.613 68.9387 14.7643 70.1588 18.3824C71.4372 21.9422 72.0762 25.677 72.0762 29.5869C72.0762 33.9637 71.3208 37.9903 69.8102 41.6668C68.2997 45.3432 66.208 48.4945 63.5352 51.1206C60.8623 53.7466 57.7248 55.8184 54.1225 57.3356C50.5203 58.7946 46.6273 59.5239 42.4439 59.5239C37.97 59.5239 33.99 58.7071 30.5038 57.073C27.0758 55.4388 24.1707 53.2799 21.7885 50.5954C19.4063 47.9108 17.576 44.818 16.2978 41.3166C15.0776 37.8152 14.4675 34.1679 14.4675 30.3747V29.0617H8.97685V52.9588C8.97685 53.4255 9.03496 53.9217 9.15115 54.4469C9.32546 54.9721 9.52881 55.4973 9.76123 56.0225C9.99365 56.4893 10.2842 56.8979 10.6328 57.248C10.9814 57.5982 11.359 57.7732 11.7658 57.7732H12.3758V58.6486H0.0871538V57.7732ZM43.5769 56.4602C47.4699 56.2851 50.8396 55.4098 53.6868 53.8342C56.5918 52.2 58.9742 50.1577 60.8334 47.7067C62.6925 45.1972 64.0581 42.4546 64.9296 39.4784C65.8594 36.5022 66.3241 33.5552 66.3241 30.6373C66.3241 27.4277 65.7722 24.1889 64.6682 20.9209C63.5641 17.6529 61.9953 14.7059 59.9618 12.0799C57.9284 9.39543 55.4298 7.23626 52.4666 5.60225C49.5616 3.9099 46.2498 3.06373 42.5311 3.06373C38.9287 3.06373 35.7331 3.88073 32.9442 5.51472C30.2133 7.09035 27.8892 9.13283 25.9718 11.6422C24.1126 14.1515 22.689 16.9527 21.7013 20.0456C20.7136 23.1385 20.2197 26.173 20.2197 29.1492C20.2197 32.3589 20.7717 35.5977 21.8756 38.8656C23.0377 42.0754 24.6355 44.9931 26.6691 47.6192C28.7608 50.2452 31.2301 52.3751 34.0772 54.0092C36.9242 55.6434 40.0908 56.4602 43.5769 56.4602Z" fill="#07002C" fill-opacity="0.05"/>
<path d="M106.938 21.2695C110.075 21.2695 112.777 21.8239 115.043 22.9327C117.367 23.9831 119.284 25.3837 120.795 27.1344C122.364 28.8851 123.526 30.8984 124.281 33.1743C125.037 35.4502 125.414 37.7845 125.414 40.1771C125.414 42.5115 125.037 44.8165 124.281 47.0924C123.584 49.3683 122.48 51.4107 120.969 53.2199C119.517 55.0291 117.686 56.4877 115.479 57.5966C113.271 58.7055 110.656 59.2598 107.635 59.2598C105.833 59.2598 103.974 58.7931 102.057 57.8592C100.198 56.8673 98.5125 55.6418 97.002 54.1828V72.215C97.002 72.6817 97.0603 73.1779 97.1763 73.7031C97.2924 74.2868 97.4667 74.812 97.6992 75.2787C97.9896 75.7455 98.2804 76.1541 98.5708 76.5042C98.9194 76.8544 99.3263 77.0295 99.7909 77.0295V77.9048H88.4609V77.0295C88.8678 77.0295 89.2453 76.8544 89.5939 76.5042C89.9426 76.1541 90.2329 75.7455 90.4655 75.2787C90.7559 74.812 90.9595 74.2868 91.0756 73.7031C91.1916 73.1779 91.2499 72.6817 91.2499 72.215V27.0469C91.2499 26.5216 91.2209 26.0256 91.1627 25.5588C91.1627 25.0335 91.0755 24.5959 90.9012 24.2457C90.7269 23.8372 90.4366 23.5163 90.0297 23.2828C89.6811 22.9911 89.1582 22.816 88.4609 22.7576V21.8823H97.002V25.7338C98.1639 24.3333 99.5584 23.2537 101.185 22.495C102.87 21.678 104.788 21.2695 106.938 21.2695ZM107.722 56.2836C109.755 56.2251 111.528 55.7584 113.038 54.883C114.549 54.0077 115.798 52.8697 116.786 51.4692C117.774 50.0686 118.5 48.522 118.965 46.8298C119.429 45.0791 119.662 43.2699 119.662 41.4026C119.662 39.3018 119.372 37.2301 118.79 35.1876C118.209 33.1452 117.367 31.3361 116.263 29.7604C115.159 28.1264 113.794 26.8134 112.167 25.8214C110.598 24.7709 108.797 24.2457 106.763 24.2457C105.543 24.2457 104.323 24.4792 103.103 24.946C101.941 25.4128 100.895 26.084 99.9652 26.9593C99.0937 27.8347 98.3676 28.8851 97.7864 30.1106C97.2635 31.2777 97.002 32.5907 97.002 34.0497V45.5168C97.002 47.0924 97.3217 48.5515 97.9607 49.8935C98.5997 51.1775 99.4134 52.3155 100.401 53.3074C101.447 54.2413 102.609 54.9706 103.887 55.4958C105.166 56.021 106.444 56.2836 107.722 56.2836Z" fill="#07002C" fill-opacity="0.05"/>
<path d="M180.377 52.9578C180.377 53.4245 180.435 53.9497 180.551 54.5334C180.726 55.0587 180.929 55.5548 181.162 56.0215C181.394 56.4883 181.684 56.8969 182.033 57.247C182.44 57.5972 182.817 57.7722 183.166 57.7722V58.6476H172.01V57.7722C172.417 57.7722 172.795 57.6262 173.143 57.3346C173.492 56.9844 173.782 56.5758 174.015 56.1091C174.247 55.5839 174.421 55.0587 174.538 54.5334C174.654 53.9497 174.712 53.4245 174.712 52.9578V31.9494L153.97 52.3451V52.9578C153.97 53.4245 154.027 53.9497 154.144 54.5334C154.26 55.0587 154.434 55.5548 154.667 56.0215C154.899 56.4883 155.16 56.8969 155.451 57.247C155.8 57.5972 156.177 57.7722 156.584 57.7722V58.6476H145.516V57.7722C145.922 57.7722 146.3 57.6262 146.649 57.3346C146.997 56.9844 147.288 56.5758 147.52 56.1091C147.752 55.5839 147.927 55.0587 148.043 54.5334C148.159 53.9497 148.217 53.4245 148.217 52.9578V27.31C148.217 26.9015 148.159 26.4346 148.043 25.9094C147.927 25.3842 147.752 24.8882 147.52 24.4213C147.288 23.9545 146.997 23.5751 146.649 23.2834C146.3 22.9332 145.922 22.7582 145.516 22.7582V21.8828H156.584V22.7582C156.119 22.7582 155.713 22.9332 155.364 23.2834C155.073 23.5751 154.812 23.9545 154.58 24.4213C154.405 24.8882 154.26 25.3842 154.144 25.9094C154.027 26.4346 153.97 26.9015 153.97 27.31V48.2309L174.712 27.8352V27.31C174.712 26.9015 174.654 26.4346 174.538 25.9094C174.421 25.3842 174.247 24.8882 174.015 24.4213C173.782 23.9545 173.492 23.5751 173.143 23.2834C172.795 22.9332 172.417 22.7582 172.01 22.7582V21.8828H183.166V22.7582C182.701 22.7582 182.265 22.9332 181.859 23.2834C181.51 23.5751 181.219 23.9545 180.987 24.4213C180.813 24.8882 180.668 25.3842 180.551 25.9094C180.435 26.4346 180.377 26.9015 180.377 27.31V52.9578Z" fill="#07002C" fill-opacity="0.05"/>
<path d="M242.543 55.7604V66.5272H241.672C241.556 65.8269 241.352 65.01 241.062 64.0762C240.771 63.2008 240.364 62.3545 239.842 61.5377C239.319 60.7208 238.68 60.0205 237.924 59.4368C237.227 58.9116 236.414 58.649 235.484 58.649H207.769C206.839 58.649 205.997 58.9116 205.241 59.4368C204.486 60.0205 203.818 60.7208 203.237 61.5377C202.714 62.3545 202.278 63.2008 201.93 64.0762C201.639 65.01 201.465 65.8269 201.407 66.5272H200.535V55.7604H203.847C204.196 55.7604 204.515 55.6143 204.806 55.3227C205.154 55.031 205.474 54.6809 205.764 54.2723C206.113 53.8636 206.433 53.4259 206.723 52.9592C207.013 52.434 207.275 51.9673 207.507 51.5587C208.379 49.5744 209.425 47.2109 210.645 44.4683C211.923 41.7257 213.201 38.8952 214.48 35.9774C215.816 33.0596 217.094 30.2292 218.315 27.4865C219.535 24.6854 220.581 22.2927 221.452 20.3086L236.181 52.6091C236.646 53.601 237.082 54.3888 237.488 54.9725C237.895 55.4977 238.447 55.7604 239.144 55.7604H242.543ZM208.64 55.7604H231.3L219.97 30.8128L208.64 55.7604Z" fill="#07002C" fill-opacity="0.05"/>
<path d="M294.83 52.9578C294.83 53.4245 294.888 53.9497 295.005 54.5334C295.179 55.0587 295.382 55.5548 295.615 56.0215C295.847 56.4883 296.138 56.8969 296.486 57.247C296.893 57.5972 297.271 57.7722 297.619 57.7722V58.6476H286.464V57.7722C286.87 57.7722 287.248 57.6262 287.597 57.3346C287.945 56.9844 288.236 56.5758 288.468 56.1091C288.701 55.5839 288.875 55.0587 288.991 54.5334C289.107 53.9497 289.165 53.4245 289.165 52.9578V31.9494L268.423 52.3451V52.9578C268.423 53.4245 268.481 53.9497 268.597 54.5334C268.713 55.0587 268.888 55.5548 269.12 56.0215C269.352 56.4883 269.614 56.8969 269.904 57.247C270.253 57.5972 270.631 57.7722 271.037 57.7722V58.6476H259.969V57.7722C260.376 57.7722 260.753 57.6262 261.102 57.3346C261.45 56.9844 261.741 56.5758 261.973 56.1091C262.206 55.5839 262.38 55.0587 262.496 54.5334C262.613 53.9497 262.671 53.4245 262.671 52.9578V27.31C262.671 26.9015 262.613 26.4346 262.496 25.9094C262.38 25.3842 262.206 24.8882 261.973 24.4213C261.741 23.9545 261.45 23.5751 261.102 23.2834C260.753 22.9332 260.376 22.7582 259.969 22.7582V21.8828H271.037V22.7582C270.573 22.7582 270.166 22.9332 269.817 23.2834C269.527 23.5751 269.265 23.9545 269.033 24.4213C268.858 24.8882 268.713 25.3842 268.597 25.9094C268.481 26.4346 268.423 26.9015 268.423 27.31V48.2309L289.165 27.8352V27.31C289.165 26.9015 289.107 26.4346 288.991 25.9094C288.875 25.3842 288.701 24.8882 288.468 24.4213C288.236 23.9545 287.945 23.5751 287.597 23.2834C287.248 22.9332 286.87 22.7582 286.464 22.7582V21.8828H297.619V22.7582C297.155 22.7582 296.719 22.9332 296.312 23.2834C295.963 23.5751 295.673 23.9545 295.44 24.4213C295.266 24.8882 295.121 25.3842 295.005 25.9094C294.888 26.4346 294.83 26.9015 294.83 27.31V52.9578Z" fill="#07002C" fill-opacity="0.05"/>
<path d="M347.409 53.1329C347.409 53.5996 347.467 54.0958 347.583 54.621C347.757 55.1462 347.961 55.6424 348.193 56.1091C348.425 56.5758 348.687 56.9844 348.978 57.3346C349.268 57.6262 349.646 57.7722 350.111 57.7722V58.6476H339.042V57.7722C339.449 57.7722 339.797 57.6262 340.088 57.3346C340.437 56.9844 340.727 56.5758 340.959 56.1091C341.192 55.6424 341.366 55.1462 341.482 54.621C341.598 54.0958 341.657 53.5996 341.657 53.1329V41.053C340.32 42.4536 338.897 43.5331 337.386 44.2918C335.933 44.9921 334.103 45.3422 331.895 45.3422C329.804 45.3422 327.944 44.9336 326.318 44.1168C324.691 43.2999 323.325 42.22 322.221 40.878C321.176 39.4774 320.362 37.9309 319.781 36.2386C319.258 34.4879 318.997 32.6788 318.997 30.8114V27.31C318.997 26.9015 318.938 26.4346 318.822 25.9094C318.764 25.3842 318.648 24.8882 318.474 24.4213C318.299 23.9545 318.067 23.5751 317.777 23.2834C317.544 22.9332 317.283 22.7582 316.992 22.7582V21.8828H327.189V22.7582C326.841 22.7582 326.492 22.9332 326.143 23.2834C325.853 23.5751 325.591 23.9545 325.359 24.4213C325.185 24.8882 325.039 25.3842 324.923 25.9094C324.807 26.4346 324.749 26.9015 324.749 27.31V30.8114C324.749 32.7955 325.039 34.4879 325.62 35.8884C326.201 37.2306 326.928 38.3394 327.799 39.2148C328.671 40.0316 329.629 40.6444 330.675 41.053C331.721 41.4032 332.738 41.5782 333.726 41.5782C335.236 41.5782 336.602 41.2281 337.822 40.5278C339.1 39.7692 340.378 38.6312 341.657 37.1139V27.31C341.657 26.9015 341.598 26.4346 341.482 25.9094C341.366 25.3842 341.192 24.8882 340.959 24.4213C340.727 23.9545 340.437 23.5751 340.088 23.2834C339.797 22.9332 339.449 22.7582 339.042 22.7582V21.8828H350.111V22.7582C349.646 22.7582 349.268 22.9332 348.978 23.2834C348.687 23.5751 348.425 23.9545 348.193 24.4213C347.961 24.8882 347.757 25.3842 347.583 25.9094C347.467 26.4346 347.409 26.9015 347.409 27.31V53.1329Z" fill="#07002C" fill-opacity="0.05"/>
<path d="M375.635 40.965C375.868 43.0073 376.362 44.9625 377.117 46.8298C377.872 48.639 378.86 50.2437 380.08 51.6442C381.358 53.0448 382.898 54.1828 384.699 55.0581C386.501 55.875 388.592 56.2836 390.974 56.2836C392.253 56.2836 393.589 56.1085 394.983 55.7584C396.436 55.3498 397.771 54.7955 398.991 54.0952C400.211 53.395 401.289 52.5486 402.216 51.5567C403.206 50.5063 403.872 49.3393 404.22 48.0553H405.005V54.6204C404.656 54.6204 404.252 54.737 403.785 54.9706C403.381 55.2041 402.885 55.4958 402.303 55.8459C401.142 56.5462 399.574 57.305 397.597 58.1219C395.623 58.8806 393.008 59.2598 389.754 59.2598C387.14 59.2598 384.641 58.8806 382.259 58.1219C379.935 57.3631 377.872 56.1961 376.071 54.6204C374.27 53.0448 372.817 51.0315 371.713 48.5805C370.667 46.1295 370.145 43.2118 370.145 39.827C370.145 37.6678 370.493 35.4794 371.19 33.2619C371.946 31.0443 373.05 29.0602 374.502 27.3095C376.013 25.5004 377.931 24.0415 380.254 22.9327C382.579 21.8239 385.368 21.2695 388.621 21.2695C391.527 21.2695 394.054 21.7656 396.202 22.7576C398.413 23.7497 400.211 25.1211 401.606 26.8718C403.06 28.6225 404.133 30.6942 404.831 33.0868C405.528 35.4794 405.876 38.1055 405.876 40.965H375.635ZM388.273 24.1582C386.239 24.1582 384.467 24.5667 382.956 25.3837C381.504 26.2007 380.254 27.2511 379.209 28.535C378.163 29.8188 377.349 31.2777 376.768 32.9117C376.187 34.5457 375.81 36.1797 375.635 37.8137H400.473C400.417 36.1214 400.097 34.4582 399.514 32.8242C398.991 31.1902 398.239 29.7313 397.248 28.4474C396.262 27.1636 395.013 26.1423 393.502 25.3837C391.991 24.5667 390.248 24.1582 388.273 24.1582Z" fill="#07002C" fill-opacity="0.05"/>
<path d="M455.628 55.4958C455.164 55.4958 454.728 55.6124 454.32 55.8459C453.916 56.021 453.449 56.2546 452.926 56.5462C451.94 57.1299 450.632 57.7427 449.004 58.3845C447.38 58.9682 445.344 59.2598 442.903 59.2598C439.94 59.2598 437.211 58.7931 434.711 57.8592C432.271 56.8673 430.151 55.5248 428.349 53.8326C426.55 52.0819 425.156 50.0686 424.165 47.7927C423.179 45.4583 422.684 42.9492 422.684 40.2647C422.684 37.7553 423.119 35.3627 423.991 33.0868C424.922 30.8109 426.229 28.7976 427.913 27.0469C429.6 25.2961 431.66 23.8956 434.101 22.8452C436.6 21.7947 439.417 21.2695 442.555 21.2695C444.706 21.2695 446.449 21.5321 447.784 22.0573C449.123 22.5242 450.256 22.9911 451.183 23.4579C451.706 23.7497 452.201 23.9831 452.665 24.1582C453.187 24.3333 453.71 24.4208 454.233 24.4208V31.0735H453.362C453.073 29.9647 452.55 29.0018 451.793 28.1848C451.04 27.3095 450.169 26.58 449.178 25.9964C448.192 25.4129 447.118 24.9752 445.954 24.6834C444.793 24.3916 443.66 24.2457 442.555 24.2457C440.174 24.2457 438.082 24.6834 436.28 25.5588C434.481 26.3757 432.999 27.4845 431.835 28.8851C430.674 30.2273 429.802 31.7738 429.22 33.5245C428.642 35.2752 428.349 37.0842 428.349 38.9516C428.349 41.111 428.669 43.2409 429.307 45.3417C430.005 47.3841 430.963 49.2223 432.183 50.8564C433.463 52.4906 435.004 53.8036 436.803 54.7955C438.664 55.7875 440.756 56.2836 443.078 56.2836C444.706 56.2836 446.215 56.0501 447.61 55.5833C449.004 55.1166 450.196 54.5039 451.183 53.7451C452.229 52.9863 453.045 52.1695 453.623 51.2941C454.265 50.3603 454.641 49.4849 454.756 48.6681H455.628V55.4958Z" fill="#07002C" fill-opacity="0.05"/>
<path d="M500.036 51.8199C500.384 52.4616 500.852 53.1329 501.43 53.8332C502.013 54.5334 502.65 55.1752 503.348 55.7589C504.104 56.3426 504.861 56.8384 505.614 57.247C506.37 57.5972 507.095 57.7722 507.793 57.7722V58.6476H504.481C501.811 58.6476 499.747 58.0933 498.293 56.9844C496.843 55.8755 495.71 54.5625 494.894 53.0453L490.798 45.2547C490.16 44.0292 489.086 42.9788 487.573 42.1034C486.063 41.1696 484.467 40.7029 482.779 40.7029V53.1329C482.779 53.5996 482.811 54.0958 482.867 54.621C482.985 55.1462 483.16 55.6424 483.389 56.1091C483.623 56.5758 483.912 56.9844 484.261 57.3346C484.61 57.6262 485.018 57.7722 485.481 57.7722V58.6476H474.238V57.7722C474.646 57.7722 475.023 57.6262 475.371 57.3346C475.779 56.9844 476.1 56.5758 476.33 56.1091C476.564 55.6424 476.738 55.1462 476.853 54.621C476.972 54.0958 477.027 53.5996 477.027 53.1329V27.3975C477.027 26.989 476.972 26.5222 476.853 25.997C476.738 25.4134 476.564 24.8882 476.33 24.4213C476.156 23.9545 475.894 23.5751 475.546 23.2834C475.197 22.9332 474.761 22.7582 474.238 22.7582V21.8828H485.394V22.7582C484.99 22.7582 484.61 22.9332 484.261 23.2834C483.972 23.5751 483.71 23.9545 483.477 24.4213C483.247 24.8882 483.073 25.4134 482.954 25.997C482.839 26.5222 482.779 26.989 482.779 27.3975V36.4137C485.279 34.1961 487.747 32.0661 490.187 30.0236C492.628 27.9227 495.1 25.7635 497.596 23.546C497.596 23.4876 497.627 23.4293 497.683 23.3709C497.742 23.3125 497.77 23.2542 497.77 23.1958C497.77 22.9041 497.627 22.7582 497.334 22.7582V21.8828H504.916V22.7582C504.627 22.7582 504.279 22.8457 503.871 23.0208C503.467 23.1958 503.058 23.4001 502.65 23.6335C502.187 23.867 501.723 24.1587 501.256 24.5089C498.641 26.7264 496.027 29.0023 493.412 31.3366C490.798 33.6125 488.183 35.8593 485.568 38.0768C488.068 38.0768 490.1 38.5437 491.669 39.4774C493.297 40.4112 494.664 41.8993 495.765 43.9417L500.036 51.8199Z" fill="#07002C" fill-opacity="0.05"/>
<path d="M539.882 59.2598C536.979 59.2598 534.364 58.7931 532.038 57.8592C529.713 56.8673 527.709 55.5543 526.025 53.9202C524.397 52.2279 523.121 50.2437 522.19 47.9678C521.319 45.6919 520.883 43.2118 520.883 40.5273C520.883 37.6678 521.378 35.0709 522.364 32.7366C523.351 30.344 524.718 28.3015 526.461 26.6092C528.204 24.9168 530.268 23.6038 532.649 22.6701C535.029 21.7364 537.616 21.2695 540.405 21.2695C543.194 21.2695 545.749 21.7364 548.075 22.6701C550.4 23.5454 552.405 24.8001 554.088 26.4341C555.772 28.0681 557.079 30.0231 558.01 32.299C558.941 34.5165 559.405 36.9675 559.405 39.6519C559.405 42.1614 558.969 44.6124 558.097 47.0049C557.285 49.3393 556.034 51.4107 554.35 53.2199C552.722 55.0291 550.689 56.4877 548.249 57.5966C545.868 58.7056 543.079 59.2598 539.882 59.2598ZM539.359 24.1582C537.268 24.2749 535.41 24.8001 533.782 25.7338C532.213 26.6092 530.878 27.7763 529.773 29.2352C528.727 30.6358 527.915 32.2406 527.332 34.0497C526.809 35.8587 526.548 37.697 526.548 39.5644C526.548 41.7237 526.869 43.8246 527.506 45.8669C528.204 47.8512 529.162 49.6309 530.383 51.2066C531.662 52.7822 533.171 54.0367 534.915 54.9706C536.658 55.9044 538.603 56.3712 540.754 56.3712C542.905 56.3712 544.791 55.9044 546.419 54.9706C548.103 54.0367 549.497 52.8407 550.602 51.3816C551.708 49.8645 552.52 48.1719 553.043 46.3046C553.625 44.4373 553.914 42.5696 553.914 40.7023C553.914 38.7766 553.625 36.8508 553.043 34.925C552.46 32.9409 551.561 31.161 550.341 29.5854C549.121 27.9514 547.58 26.6383 545.722 25.6463C543.919 24.6542 541.8 24.1582 539.359 24.1582Z" fill="#07002C" fill-opacity="0.05"/>
<path d="M584.198 40.965C584.427 43.0073 584.923 44.9625 585.679 46.8298C586.432 48.639 587.422 50.2437 588.643 51.6442C589.918 53.0448 591.459 54.1828 593.262 55.0581C595.06 55.875 597.152 56.2836 599.537 56.2836C600.812 56.2836 602.151 56.1085 603.546 55.7584C604.996 55.3498 606.335 54.7955 607.555 54.0952C608.775 53.395 609.849 52.5486 610.78 51.5567C611.766 50.5063 612.436 49.3393 612.784 48.0553H613.569V54.6204C613.22 54.6204 612.812 54.737 612.348 54.9706C611.94 55.2041 611.445 55.4958 610.867 55.8459C609.702 56.5462 608.133 57.305 606.161 58.1219C604.184 58.8806 601.569 59.2598 598.317 59.2598C595.702 59.2598 593.202 58.8806 590.821 58.1219C588.496 57.3631 586.432 56.1961 584.634 54.6204C582.831 53.0448 581.377 51.0315 580.276 48.5805C579.23 46.1295 578.707 43.2118 578.707 39.827C578.707 37.6678 579.056 35.4794 579.753 33.2619C580.506 31.0443 581.611 29.0602 583.065 27.3095C584.574 25.5004 586.491 24.0415 588.817 22.9327C591.138 21.8239 593.927 21.2695 597.184 21.2695C600.087 21.2695 602.615 21.7656 604.766 22.7576C606.973 23.7497 608.775 25.1211 610.17 26.8718C611.619 28.6225 612.697 30.6942 613.394 33.0868C614.092 35.4794 614.44 38.1055 614.44 40.965H584.198ZM596.835 24.1582C594.799 24.1582 593.028 24.5667 591.519 25.3837C590.065 26.2007 588.817 27.2511 587.771 28.535C586.725 29.8188 585.909 31.2777 585.331 32.9117C584.748 34.5457 584.372 36.1797 584.198 37.8137H609.037C608.977 36.1214 608.656 34.4582 608.078 32.8242C607.555 31.1902 606.798 29.7313 605.812 28.4474C604.822 27.1636 603.574 26.1423 602.064 25.3837C600.551 24.5667 598.808 24.1582 596.835 24.1582Z" fill="#07002C" fill-opacity="0.05"/>
<path d="M677.286 52.9578C677.286 53.4245 677.345 53.9497 677.46 54.5334C677.575 55.0587 677.722 55.5548 677.896 56.0215C678.13 56.4883 678.391 56.8969 678.68 57.247C679.029 57.5972 679.437 57.7722 679.901 57.7722V58.6476H668.832V57.7722C669.296 57.7722 669.704 57.6262 670.052 57.3346C670.401 56.9844 670.662 56.5758 670.837 56.1091C671.07 55.5839 671.245 55.0587 671.359 54.5334C671.474 53.9497 671.534 53.4245 671.534 52.9578V27.31C671.534 26.9015 671.474 26.4346 671.359 25.9094C671.245 25.3259 671.07 24.8298 670.837 24.4213C670.603 23.9545 670.314 23.5751 669.965 23.2834C669.616 22.9332 669.24 22.7582 668.832 22.7582V21.8828H705.001V22.7582C704.07 22.7582 703.373 23.3125 702.909 24.4213C702.446 25.4718 702.212 26.4346 702.212 27.31V52.9578C702.212 53.4245 702.271 53.9497 702.386 54.5334C702.501 55.0587 702.675 55.5548 702.909 56.0215C703.143 56.4883 703.432 56.8969 703.781 57.247C704.189 57.5972 704.593 57.7722 705.001 57.7722V58.6476H693.758V57.7722C694.281 57.7722 694.689 57.6262 694.978 57.3346C695.327 56.9844 695.616 56.5758 695.85 56.1091C696.083 55.5839 696.226 55.0587 696.286 54.5334C696.4 53.9497 696.46 53.4245 696.46 52.9578V24.9465H677.286V52.9578Z" fill="#07002C" fill-opacity="0.05"/>
<path d="M748.465 58.6471V54.1828L748.029 54.6204C746.579 56.0795 744.892 57.2175 742.974 58.0343C741.116 58.8512 738.85 59.2598 736.176 59.2598C734.144 59.2598 732.401 59.0263 730.947 58.5595C729.497 58.0928 728.305 57.4506 727.374 56.6338C726.447 55.7584 725.749 54.7665 725.282 53.6576C724.878 52.5486 724.672 51.3816 724.672 50.1562C724.672 48.1719 725.195 46.4212 726.241 44.904C727.346 43.3869 728.915 42.0444 730.947 40.8774C732.983 39.7103 735.451 38.6599 738.355 37.7262C741.318 36.7341 744.69 35.7712 748.465 34.8375C748.35 32.5616 747.886 30.7233 747.07 29.3228C746.258 27.9222 745.3 26.8426 744.194 26.084C743.093 25.267 741.928 24.7418 740.708 24.5083C739.488 24.2166 738.442 24.0707 737.571 24.0707C736.061 24.0707 734.726 24.3041 733.562 24.7709C732.401 25.1794 731.383 25.763 730.511 26.5216C729.64 27.2219 728.915 28.0389 728.332 28.9726C727.809 29.9064 727.405 30.84 727.112 31.7738H726.328V24.946C726.851 24.946 727.461 24.7709 728.158 24.4208C728.855 24.0123 729.671 23.5746 730.598 23.1078C731.589 22.6409 732.749 22.2324 734.084 21.8823C735.479 21.4738 737.135 21.2695 739.052 21.2695C742.249 21.2695 744.836 21.678 746.809 22.495C748.786 23.312 750.295 24.3916 751.341 25.7338C752.446 27.076 753.171 28.6225 753.52 30.3732C753.868 32.0655 754.043 33.8162 754.043 35.6253V52.9573C754.043 54.1243 754.336 55.2332 754.914 56.2836C755.497 57.2755 756.281 57.7717 757.267 57.7717V58.6471H748.465ZM748.465 50.3312V37.8137L747.593 37.9888C746.199 38.3389 744.487 38.8057 742.451 39.3893C740.478 39.973 738.589 40.7314 736.786 41.6652C734.988 42.5991 733.447 43.7076 732.167 44.9916C730.891 46.2756 730.25 47.7637 730.25 49.4559C730.25 51.3232 731.006 52.8697 732.516 54.0952C734.029 55.3207 736.002 55.9335 738.442 55.9335C740.36 55.9335 742.047 55.5248 743.497 54.708C744.951 53.8326 746.286 52.7237 747.506 51.3816L748.465 50.3312Z" fill="#07002C" fill-opacity="0.05"/>
<path d="M796.055 21.2695C799.192 21.2695 801.894 21.8239 804.16 22.9327C806.485 23.9831 808.403 25.3837 809.912 27.1344C811.481 28.8851 812.642 30.8984 813.398 33.1743C814.155 35.4502 814.531 37.7845 814.531 40.1771C814.531 42.5115 814.155 44.8165 813.398 47.0924C812.701 49.3683 811.596 51.4107 810.087 53.2199C808.633 55.0291 806.802 56.4877 804.596 57.5966C802.389 58.7055 799.775 59.2598 796.752 59.2598C794.949 59.2598 793.092 58.7931 791.174 57.8592C789.316 56.8673 787.629 55.6418 786.119 54.1828V72.215C786.119 72.6817 786.179 73.1779 786.293 73.7031C786.408 74.2868 786.583 74.812 786.816 75.2787C787.106 75.7455 787.399 76.1541 787.688 76.5042C788.037 76.8544 788.445 77.0295 788.908 77.0295V77.9048H777.578V77.0295C777.986 77.0295 778.362 76.8544 778.711 76.5042C779.06 76.1541 779.349 75.7455 779.583 75.2787C779.872 74.812 780.078 74.2868 780.193 73.7031C780.308 73.1779 780.367 72.6817 780.367 72.215V27.0469C780.367 26.5216 780.339 26.0256 780.28 25.5588C780.28 25.0335 780.193 24.5959 780.018 24.2457C779.844 23.8372 779.555 23.5163 779.147 23.2828C778.798 22.9911 778.275 22.816 777.578 22.7576V21.8823H786.119V25.7338C787.28 24.3333 788.674 23.2537 790.303 22.495C791.986 21.678 793.904 21.2695 796.055 21.2695ZM796.839 56.2836C798.871 56.2251 800.646 55.7584 802.155 54.883C803.665 54.0077 804.917 52.8697 805.903 51.4692C806.89 50.0686 807.618 48.522 808.082 46.8298C808.545 45.0791 808.779 43.2699 808.779 41.4026C808.779 39.3018 808.49 37.2301 807.908 35.1876C807.325 33.1452 806.485 31.3361 805.38 29.7604C804.275 28.1264 802.912 26.8134 801.284 25.8214C799.715 24.7709 797.913 24.2457 795.88 24.2457C794.66 24.2457 793.44 24.4792 792.22 24.946C791.059 25.4128 790.013 26.084 789.082 26.9593C788.211 27.8347 787.486 28.8851 786.904 30.1106C786.381 31.2777 786.119 32.5907 786.119 34.0497V45.5168C786.119 47.0924 786.44 48.5515 787.078 49.8935C787.716 51.1775 788.532 52.3155 789.518 53.3074C790.564 54.2413 791.725 54.9706 793.004 55.4958C794.284 56.021 795.56 56.2836 796.839 56.2836Z" fill="#07002C" fill-opacity="0.05"/>
<path d="M862.727 31.074C862.727 30.4321 862.612 29.7318 862.378 28.9732C862.145 28.2145 861.796 27.5434 861.332 26.9599C860.869 26.3179 860.287 25.7927 859.589 25.3842C858.892 24.9757 858.08 24.7715 857.149 24.7715H849.48V52.9578C849.48 53.4245 849.539 53.9207 849.654 54.4459C849.769 54.9711 849.943 55.4963 850.177 56.0215C850.466 56.4883 850.759 56.8969 851.048 57.247C851.397 57.5972 851.805 57.7722 852.268 57.7722V58.6476H840.938V57.7722C841.402 57.7722 841.81 57.5972 842.159 57.247C842.507 56.8969 842.796 56.4883 843.03 56.0215C843.319 55.5548 843.525 55.0587 843.64 54.5334C843.755 53.9497 843.814 53.4245 843.814 52.9578V24.7715H836.319C835.388 24.7715 834.576 24.9757 833.879 25.3842C833.182 25.7927 832.599 26.3179 832.136 26.9599C831.728 27.5434 831.411 28.2145 831.177 28.9732C830.943 29.7318 830.829 30.4321 830.829 31.074H829.957V21.8828H863.511V31.074H862.727Z" fill="#07002C" fill-opacity="0.05"/>
<path d="M889.25 52.9578C889.25 53.4245 889.305 53.9497 889.424 54.5334C889.539 55.0587 889.713 55.5548 889.947 56.0215C890.177 56.4883 890.438 56.8969 890.731 57.247C891.08 57.5972 891.456 57.7722 891.864 57.7722V58.6476H880.883V57.7722C881.287 57.7722 881.636 57.6262 881.929 57.3346C882.277 56.9844 882.567 56.5758 882.8 56.1091C883.03 55.5839 883.204 55.0587 883.323 54.5334C883.438 53.9497 883.497 53.4245 883.497 52.9578V27.31C883.497 26.9015 883.438 26.4346 883.323 25.9094C883.204 25.3842 883.03 24.8882 882.8 24.4213C882.567 23.9545 882.277 23.5751 881.929 23.2834C881.636 22.9332 881.287 22.7582 880.883 22.7582V21.8828H891.864V22.7582C891.397 22.7582 890.993 22.9332 890.644 23.2834C890.351 23.5751 890.089 23.9545 889.86 24.4213C889.685 24.8882 889.539 25.3842 889.424 25.9094C889.305 26.4346 889.25 26.9015 889.25 27.31V37.9018H909.121V27.31C909.121 26.9015 909.061 26.4346 908.946 25.9094C908.828 25.3842 908.653 24.8882 908.423 24.4213C908.249 23.9545 907.988 23.5751 907.639 23.2834C907.346 22.9332 906.97 22.7582 906.506 22.7582V21.8828H917.487V22.7582C917.02 22.7582 916.616 22.9332 916.267 23.2834C915.974 23.5751 915.713 23.9545 915.483 24.4213C915.249 24.8882 915.075 25.3842 914.96 25.9094C914.901 26.4346 914.873 26.9015 914.873 27.31V52.9578C914.873 53.4245 914.928 53.9497 915.047 54.5334C915.162 55.0587 915.336 55.5548 915.57 56.0215C915.8 56.4883 916.061 56.8969 916.354 57.247C916.703 57.5972 917.079 57.7722 917.487 57.7722V58.6476H906.506V57.7722C906.91 57.7722 907.259 57.6262 907.552 57.3346C907.901 56.9844 908.19 56.5758 908.423 56.1091C908.653 55.5839 908.828 55.0587 908.946 54.5334C909.061 53.9497 909.121 53.4245 909.121 52.9578V40.7904H889.25V52.9578Z" fill="#07002C" fill-opacity="0.05"/>
<path d="M942.724 40.7907C942.898 42.9501 943.334 44.9924 944.031 46.9182C944.788 48.7855 945.802 50.4487 947.082 51.9077C948.361 53.3083 949.93 54.4172 951.788 55.2341C953.646 56.0509 955.797 56.4595 958.237 56.4595C959.517 56.4595 960.852 56.2845 962.247 55.9343C963.7 55.5257 965.035 54.9714 966.256 54.2712C967.535 53.5709 968.636 52.7246 969.567 51.7326C970.554 50.6822 971.251 49.5152 971.659 48.2312H972.182V54.4462C971.774 54.5047 971.338 54.6503 970.875 54.8839C970.411 55.1175 969.916 55.3801 969.393 55.6717C968.232 56.372 966.664 57.1308 964.687 57.9476C962.769 58.7064 960.214 59.0856 957.017 59.0856C954.462 59.0856 951.99 58.7064 949.609 57.9476C947.284 57.1889 945.224 56.0219 943.421 54.4462C941.678 52.8706 940.256 50.8863 939.151 48.4938C938.105 46.0429 937.582 43.1542 937.582 39.8279C937.582 37.6686 937.931 35.5095 938.628 33.3503C939.385 31.1327 940.486 29.1486 941.94 27.3979C943.449 25.6472 945.339 24.2174 947.605 23.1086C949.93 21.9998 952.687 21.4455 955.884 21.4455C958.673 21.4455 961.114 21.9415 963.205 22.9336C965.356 23.9256 967.127 25.297 968.522 27.0477C969.976 28.7984 971.049 30.8701 971.746 33.2627C972.503 35.597 972.907 38.1063 972.966 40.7907H942.724ZM955.536 23.984C953.444 23.984 951.614 24.3925 950.045 25.2095C948.536 26.0265 947.256 27.1061 946.21 28.4483C945.164 29.7321 944.352 31.2202 943.77 32.9126C943.188 34.6049 942.839 36.2973 942.724 37.9896H967.912C967.852 36.2389 967.563 34.5466 967.04 32.9126C966.517 31.2202 965.733 29.7321 964.687 28.4483C963.7 27.1061 962.421 26.0265 960.852 25.2095C959.343 24.3925 957.568 23.984 955.536 23.984ZM962.77 16.1058C962.77 16.9228 962.508 17.5939 961.985 18.1191C961.462 18.6443 960.824 18.9069 960.068 18.9069C959.256 18.9069 958.558 18.6443 957.976 18.1191C957.453 17.5939 957.192 16.9228 957.192 16.1058C957.192 15.2888 957.453 14.6177 957.976 14.0925C958.558 13.5673 959.256 13.3047 960.068 13.3047C960.824 13.3047 961.462 13.5673 961.985 14.0925C962.508 14.6177 962.77 15.2888 962.77 16.1058ZM952.747 16.1058C952.747 16.9228 952.485 17.5939 951.962 18.1191C951.439 18.6443 950.77 18.9069 949.958 18.9069C949.146 18.9069 948.476 18.6443 947.953 18.1191C947.43 17.5939 947.169 16.9228 947.169 16.1058C947.169 15.2888 947.43 14.6177 947.953 14.0925C948.476 13.5673 949.146 13.3047 949.958 13.3047C950.77 13.3047 951.439 13.5673 951.962 14.0925C952.485 14.6177 952.747 15.2888 952.747 16.1058Z" fill="#07002C" fill-opacity="0.05"/>
<path d="M1006.4 21.2695C1009.54 21.2695 1012.24 21.8239 1014.51 22.9327C1016.83 23.9831 1018.75 25.3837 1020.26 27.1344C1021.83 28.8851 1022.99 30.8984 1023.75 33.1743C1024.5 35.4502 1024.88 37.7845 1024.88 40.1771C1024.88 42.5115 1024.5 44.8165 1023.75 47.0924C1023.05 49.3683 1021.95 51.4107 1020.43 53.2199C1018.98 55.0291 1017.15 56.4877 1014.94 57.5966C1012.74 58.7055 1010.12 59.2598 1007.1 59.2598C1005.3 59.2598 1003.44 58.7931 1001.52 57.8592C999.664 56.8673 997.98 55.6418 996.467 54.1828V72.215C996.467 72.6817 996.526 73.1779 996.641 73.7031C996.76 74.2868 996.934 74.812 997.164 75.2787C997.457 75.7455 997.746 76.1541 998.036 76.5042C998.384 76.8544 998.792 77.0295 999.256 77.0295V77.9048H987.926V77.0295C988.334 77.0295 988.71 76.8544 989.059 76.5042C989.407 76.1541 989.701 75.7455 989.93 75.2787C990.223 74.812 990.426 74.2868 990.54 73.7031C990.659 73.1779 990.715 72.6817 990.715 72.215V27.0469C990.715 26.5216 990.687 26.0256 990.628 25.5588C990.628 25.0335 990.54 24.5959 990.366 24.2457C990.192 23.8372 989.903 23.5163 989.495 23.2828C989.146 22.9911 988.623 22.816 987.926 22.7576V21.8823H996.467V25.7338C997.632 24.3333 999.026 23.2537 1000.65 22.495C1002.34 21.678 1004.26 21.2695 1006.4 21.2695ZM1007.19 56.2836C1009.22 56.2251 1010.99 55.7584 1012.5 54.883C1014.02 54.0077 1015.26 52.8697 1016.25 51.4692C1017.24 50.0686 1017.97 48.522 1018.43 46.8298C1018.9 45.0791 1019.13 43.2699 1019.13 41.4026C1019.13 39.3018 1018.84 37.2301 1018.26 35.1876C1017.68 33.1452 1016.83 31.3361 1015.73 29.7604C1014.63 28.1264 1013.26 26.8134 1011.63 25.8214C1010.06 24.7709 1008.26 24.2457 1006.23 24.2457C1005.01 24.2457 1003.79 24.4792 1002.57 24.946C1001.41 25.4128 1000.36 26.084 999.43 26.9593C998.559 27.8347 997.834 28.8851 997.251 30.1106C996.728 31.2777 996.467 32.5907 996.467 34.0497V45.5168C996.467 47.0924 996.788 48.5515 997.426 49.8935C998.067 51.1775 998.879 52.3155 999.866 53.3074C1000.91 54.2413 1002.08 54.9706 1003.35 55.4958C1004.63 56.021 1005.91 56.2836 1007.19 56.2836Z" fill="#07002C" fill-opacity="0.05"/>
<path d="M1077.05 55.4958C1076.59 55.4958 1076.15 55.6124 1075.75 55.8459C1075.34 56.021 1074.87 56.2546 1074.35 56.5462C1073.36 57.1299 1072.05 57.7427 1070.43 58.3845C1068.8 58.9682 1066.77 59.2598 1064.33 59.2598C1061.37 59.2598 1058.63 58.7931 1056.14 57.8592C1053.7 56.8673 1051.57 55.5248 1049.77 53.8326C1047.97 52.0819 1046.58 50.0686 1045.59 47.7927C1044.6 45.4583 1044.11 42.9492 1044.11 40.2647C1044.11 37.7553 1044.55 35.3627 1045.42 33.0868C1046.34 30.8109 1047.65 28.7976 1049.34 27.0469C1051.02 25.2961 1053.09 23.8956 1055.53 22.8452C1058.02 21.7947 1060.84 21.2695 1063.98 21.2695C1066.13 21.2695 1067.87 21.5321 1069.21 22.0573C1070.54 22.5242 1071.68 22.9911 1072.61 23.4579C1073.13 23.7497 1073.62 23.9831 1074.09 24.1582C1074.61 24.3333 1075.14 24.4208 1075.66 24.4208V31.0735H1074.79C1074.49 29.9647 1073.97 29.0018 1073.22 28.1848C1072.46 27.3095 1071.59 26.58 1070.6 25.9964C1069.61 25.4129 1068.54 24.9752 1067.38 24.6834C1066.21 24.3916 1065.08 24.2457 1063.98 24.2457C1061.6 24.2457 1059.5 24.6834 1057.71 25.5588C1055.9 26.3757 1054.42 27.4845 1053.26 28.8851C1052.1 30.2273 1051.22 31.7738 1050.65 33.5245C1050.06 35.2752 1049.77 37.0842 1049.77 38.9516C1049.77 41.111 1050.09 43.2409 1050.73 45.3417C1051.43 47.3841 1052.39 49.2223 1053.61 50.8564C1054.88 52.4906 1056.43 53.8036 1058.23 54.7955C1060.09 55.7875 1062.18 56.2836 1064.5 56.2836C1066.13 56.2836 1067.64 56.0501 1069.04 55.5833C1070.43 55.1166 1071.62 54.5039 1072.61 53.7451C1073.65 52.9863 1074.47 52.1695 1075.05 51.2941C1075.69 50.3603 1076.06 49.4849 1076.18 48.6681H1077.05V55.4958Z" fill="#07002C" fill-opacity="0.05"/>
<path d="M1124.52 31.074C1124.52 30.4321 1124.4 29.7318 1124.17 28.9732C1123.93 28.2145 1123.59 27.5434 1123.12 26.9599C1122.65 26.3179 1122.08 25.7927 1121.38 25.3842C1120.68 24.9757 1119.87 24.7715 1118.94 24.7715H1111.27V52.9578C1111.27 53.4245 1111.32 53.9207 1111.44 54.4459C1111.56 54.9711 1111.73 55.4963 1111.97 56.0215C1112.25 56.4883 1112.54 56.8969 1112.84 57.247C1113.19 57.5972 1113.59 57.7722 1114.06 57.7722V58.6476H1102.73V57.7722C1103.19 57.7722 1103.6 57.5972 1103.95 57.247C1104.3 56.8969 1104.59 56.4883 1104.82 56.0215C1105.11 55.5548 1105.31 55.0587 1105.43 54.5334C1105.54 53.9497 1105.6 53.4245 1105.6 52.9578V24.7715H1098.11C1097.18 24.7715 1096.37 24.9757 1095.67 25.3842C1094.97 25.7927 1094.39 26.3179 1093.92 26.9599C1093.52 27.5434 1093.2 28.2145 1092.97 28.9732C1092.73 29.7318 1092.62 30.4321 1092.62 31.074H1091.75V21.8828H1125.3V31.074H1124.52Z" fill="#07002C" fill-opacity="0.05"/>
<path d="M1172.04 30.6363C1172.04 31.6284 1171.84 32.5621 1171.43 33.4375C1171.02 34.3128 1170.5 35.1298 1169.86 35.8884C1169.28 36.5887 1168.58 37.2306 1167.77 37.8142C1166.95 38.3394 1166.17 38.7479 1165.41 39.0397C1166.4 39.2148 1167.42 39.5358 1168.46 40.0026C1169.57 40.4693 1170.56 41.0821 1171.43 41.8408C1172.36 42.5996 1173.11 43.5625 1173.69 44.7295C1174.28 45.8384 1174.56 47.1805 1174.56 48.7561C1174.56 49.573 1174.36 50.5653 1173.95 51.7323C1173.61 52.8412 1172.94 53.9207 1171.95 54.9711C1171.02 55.9631 1169.72 56.8384 1168.03 57.5972C1166.4 58.2975 1164.28 58.6476 1161.67 58.6476H1142.49V57.7722C1142.96 57.7722 1143.36 57.5972 1143.71 57.247C1144.06 56.8969 1144.35 56.4883 1144.58 56.0215C1144.88 55.5548 1145.08 55.0587 1145.19 54.5334C1145.31 53.9497 1145.37 53.4245 1145.37 52.9578V27.3975C1145.37 26.4638 1145.11 25.4718 1144.58 24.4213C1144.12 23.3125 1143.42 22.7582 1142.49 22.7582V21.8828H1160.27C1162.36 21.8828 1164.14 22.1746 1165.59 22.7582C1167.1 23.2834 1168.32 23.9837 1169.25 24.859C1170.24 25.676 1170.94 26.6097 1171.34 27.6601C1171.81 28.6522 1172.04 29.6443 1172.04 30.6363ZM1151.03 37.9018H1157.74C1159.43 37.9018 1160.83 37.7267 1161.93 37.3765C1163.09 36.968 1164.02 36.4428 1164.72 35.8009C1165.41 35.159 1165.91 34.4295 1166.2 33.6125C1166.55 32.7955 1166.72 31.9494 1166.72 31.074C1166.72 30.3737 1166.52 29.6443 1166.11 28.8856C1165.71 28.127 1165.1 27.4559 1164.28 26.8723C1163.53 26.2304 1162.6 25.7052 1161.49 25.2967C1160.39 24.8882 1159.14 24.6839 1157.74 24.6839H1151.03V37.9018ZM1159.57 55.8465C1160.27 55.8465 1161.14 55.788 1162.19 55.6714C1163.29 55.4963 1164.34 55.1752 1165.33 54.7085C1166.37 54.1833 1167.24 53.454 1167.94 52.5201C1168.7 51.5282 1169.07 50.2442 1169.07 48.6686C1169.07 46.9764 1168.58 45.6049 1167.59 44.5544C1166.61 43.504 1165.45 42.7162 1164.11 42.191C1162.83 41.6073 1161.49 41.2281 1160.1 41.053C1158.7 40.878 1157.63 40.7904 1156.87 40.7904H1151.03V55.8465H1159.57Z" fill="#07002C" fill-opacity="0.05"/>
<path d="M1212.66 59.2598C1209.76 59.2598 1207.14 58.7931 1204.82 57.8592C1202.49 56.8673 1200.49 55.5543 1198.8 53.9202C1197.17 52.2279 1195.9 50.2437 1194.97 47.9678C1194.1 45.6919 1193.66 43.2118 1193.66 40.5273C1193.66 37.6678 1194.16 35.0709 1195.14 32.7366C1196.13 30.344 1197.49 28.3015 1199.24 26.6092C1200.98 24.9168 1203.05 23.6038 1205.43 22.6701C1207.81 21.7364 1210.39 21.2695 1213.18 21.2695C1215.97 21.2695 1218.53 21.7364 1220.85 22.6701C1223.18 23.5454 1225.18 24.8001 1226.87 26.4341C1228.55 28.0681 1229.86 30.0231 1230.79 32.299C1231.72 34.5165 1232.18 36.9675 1232.18 39.6519C1232.18 42.1614 1231.75 44.6124 1230.87 47.0049C1230.06 49.3393 1228.81 51.4107 1227.13 53.2199C1225.5 55.0291 1223.47 56.4877 1221.03 57.5966C1218.65 58.7056 1215.86 59.2598 1212.66 59.2598ZM1212.14 24.1582C1210.05 24.2749 1208.19 24.8001 1206.56 25.7338C1204.99 26.6092 1203.66 27.7763 1202.55 29.2352C1201.5 30.6358 1200.69 32.2406 1200.11 34.0497C1199.59 35.8587 1199.33 37.697 1199.33 39.5644C1199.33 41.7237 1199.65 43.8246 1200.28 45.8669C1200.98 47.8512 1201.94 49.6309 1203.16 51.2066C1204.44 52.7822 1205.95 54.0367 1207.69 54.9706C1209.43 55.9044 1211.38 56.3712 1213.53 56.3712C1215.68 56.3712 1217.57 55.9044 1219.2 54.9706C1220.88 54.0367 1222.27 52.8407 1223.38 51.3816C1224.48 49.8645 1225.3 48.1719 1225.82 46.3046C1226.4 44.4373 1226.69 42.5696 1226.69 40.7023C1226.69 38.7766 1226.4 36.8508 1225.82 34.925C1225.24 32.9409 1224.34 31.161 1223.12 29.5854C1221.9 27.9514 1220.36 26.6383 1218.5 25.6463C1216.7 24.6542 1214.58 24.1582 1212.14 24.1582Z" fill="#07002C" fill-opacity="0.05"/>
<mask id="mask0_2371_21759" style="mask-type:luminance" maskUnits="userSpaceOnUse" x="518" y="135" width="199" height="430">
<path d="M716.991 135.281H518.914V565H716.991V135.281Z" fill="white"/>
</mask>
<g mask="url(#mask0_2371_21759)">
<path fill-rule="evenodd" clip-rule="evenodd" d="M715.669 144.77C715.669 142.496 714.73 140.441 713.216 138.976C711.271 136.918 708.55 136.162 706.03 136.713H528.284C527.08 136.713 525.939 136.979 524.913 137.456C524.239 137.768 523.601 138.178 523.019 138.687C522.746 138.925 522.488 139.182 522.247 139.456C521.688 140.097 521.244 140.806 520.919 141.554C520.492 142.539 520.254 143.627 520.254 144.77C520.254 145.82 520.452 146.822 520.816 147.741C521.209 148.734 521.807 149.665 522.607 150.468L594.877 222.983C598.015 226.13 603.098 226.13 606.235 222.983C609.369 219.837 609.369 214.735 606.235 211.588L547.672 152.828H688.718L545.085 301.952C542.003 305.152 541.975 310.363 545.029 313.592C545.144 313.715 545.263 313.833 545.382 313.946C545.556 314.159 545.742 314.365 545.944 314.563L662.14 430.197L633.843 457.094C630.626 460.154 630.488 465.255 633.538 468.486C636.588 471.717 641.671 471.852 644.892 468.792L677.289 437.992C677.693 437.61 678.046 437.2 678.351 436.762C678.672 436.504 678.973 436.213 679.262 435.903C682.245 432.604 682.11 427.396 678.961 424.265L561.846 307.715L713.161 150.618C714.706 149.15 715.669 147.073 715.669 144.77ZM632.302 249.976C635.44 246.829 640.522 246.829 643.66 249.976L697.192 303.691C698.25 304.751 698.951 306.034 699.296 307.389C701.035 310.545 700.492 314.599 697.747 317.174L644.848 366.772C641.612 369.811 636.529 369.638 633.498 366.387C630.472 363.136 630.646 358.037 633.887 354.999L681.302 310.537L632.302 261.37C629.165 258.224 629.165 253.122 632.302 249.976ZM609.004 396.77C612.142 393.623 612.142 388.522 609.004 385.375C605.867 382.229 600.784 382.229 597.647 385.375L562.848 420.29C559.715 423.437 559.715 428.538 562.848 431.685C562.999 431.837 563.153 431.976 563.312 432.115C563.482 432.322 563.664 432.525 563.859 432.72L639.171 508.139L596.304 549.066C593.091 552.13 592.964 557.231 596.018 560.458C599.077 563.68 604.159 563.808 607.372 560.74L655.782 514.525C657.093 513.272 657.894 511.681 658.167 510.017C658.777 507.276 658.024 504.276 655.937 502.187L579.867 426.004L609.004 396.77ZM610.054 489.284C613.295 492.323 613.465 497.424 610.438 500.671L598.106 513.913L606.964 521.154C610.403 523.967 610.922 529.04 608.121 532.49C605.316 535.94 600.261 536.457 596.823 533.648L582.141 521.648C581.733 521.317 581.369 520.951 581.04 520.557L580.98 520.506C577.74 517.466 577.569 512.365 580.596 509.114L598.704 489.673C601.731 486.419 606.814 486.248 610.054 489.284ZM642.063 545.585C638.763 542.608 633.689 542.875 630.721 546.181C627.754 549.492 628.024 554.585 631.32 557.561L635.879 561.679C639.175 564.655 644.254 564.389 647.217 561.078C650.184 557.768 649.919 552.679 646.619 549.699L642.063 545.585Z" fill="url(#paint0_linear_2371_21759)" fill-opacity="0.05"/>
</g>
<defs>
<linearGradient id="paint0_linear_2371_21759" x1="618.001" y1="433.699" x2="618.001" y2="513.276" gradientUnits="userSpaceOnUse">
<stop stop-color="#07002C"/>
<stop offset="1" stop-color="#07002C" stop-opacity="0"/>
</linearGradient>
</defs>
</svg>
